<?xml version="1.0" encoding="utf-8" standalone="no"?>
<!DOCTYPE svg PUBLIC "-//W3C//DTD SVG 1.1//EN"
  "http://www.w3.org/Graphics/SVG/1.1/DTD/svg11.dtd">
<svg xmlns:xlink="http://www.w3.org/1999/xlink" width="566.64pt" height="566.611562pt" viewBox="0 0 566.64 566.611562" xmlns="http://www.w3.org/2000/svg" version="1.1">
 <metadata>
  <rdf:RDF xmlns:dc="http://purl.org/dc/elements/1.1/" xmlns:cc="http://creativecommons.org/ns#" xmlns:rdf="http://www.w3.org/1999/02/22-rdf-syntax-ns#">
   <cc:Work>
    <dc:type rdf:resource="http://purl.org/dc/dcmitype/StillImage"/>
    <dc:date>2025-09-19T17:39:37.146734</dc:date>
    <dc:format>image/svg+xml</dc:format>
    <dc:creator>
     <cc:Agent>
      <dc:title>Matplotlib v3.10.3, https://matplotlib.org/</dc:title>
     </cc:Agent>
    </dc:creator>
   </cc:Work>
  </rdf:RDF>
 </metadata>
 <defs>
  <style type="text/css">*{stroke-linejoin: round; stroke-linecap: butt}</style>
 </defs>
 <g id="figure_1">
  <g id="patch_1">
   <path d="M 0 566.611562 
L 566.64 566.611562 
L 566.64 0 
L 0 0 
z
" style="fill: #ffffff"/>
  </g>
  <g id="axes_1">
   <g id="matplotlib.axis_1"/>
   <g id="matplotlib.axis_2"/>
   <g id="patch_2">
    <path d="M 283.319986 58.755469 
C 254.914592 58.755469 226.734937 63.81491 200.103674 73.696319 
C 173.47241 83.577729 148.812819 98.12405 127.282334 116.652532 
C 105.751848 135.181014 87.692677 157.397161 73.952451 182.258228 
C 60.212226 207.119295 51.009337 234.230137 46.775733 262.318267 
C 42.54213 290.406397 43.345103 319.025378 49.146962 346.83194 
C 54.948821 374.638502 65.657352 401.190682 80.769935 425.242216 
C 95.882517 449.29375 115.15895 470.46236 137.694466 487.754467 
C 160.229981 505.046574 185.666398 518.187335 212.809821 526.55997 
C 239.953244 534.932605 268.372253 538.404038 296.73296 536.811332 
C 325.093668 535.218627 352.945305 528.587097 378.980617 517.228004 
C 405.015928 505.868911 428.821105 489.962797 449.278817 470.256238 
C 469.736529 450.54968 486.521619 427.355895 498.846255 401.763517 
C 511.170891 376.17114 518.839183 348.586938 521.49121 320.305616 
C 524.143237 292.024293 521.736846 263.495357 514.384985 236.057854 
C 507.033124 208.620351 494.852645 182.710376 478.415255 159.54405 
C 461.977865 136.377724 441.544823 116.323256 418.075182 100.321931 
L 310.271026 258.44164 
C 314.964954 261.641905 319.051562 265.652798 322.33904 270.286063 
C 325.626518 274.919329 328.062614 280.101324 329.532986 285.588824 
C 331.003358 291.076325 331.484636 296.782112 330.954231 302.438377 
C 330.423826 308.094641 328.890167 313.611481 326.42524 318.729957 
C 323.960313 323.848433 320.603295 328.487189 316.511753 332.428501 
C 312.42021 336.369813 307.659175 339.551036 302.452112 341.822854 
C 297.24505 344.094673 291.674723 345.420979 286.002581 345.73952 
C 280.33044 346.058061 274.646638 345.363775 269.217953 343.689248 
C 263.789269 342.014721 258.701985 339.386568 254.194882 335.928147 
C 249.687779 332.469725 245.832493 328.236003 242.809976 323.425697 
C 239.78746 318.61539 237.645753 313.304954 236.485382 307.743642 
C 235.32501 302.182329 235.164415 296.458533 236.011136 290.840907 
C 236.857856 285.223281 238.698434 279.801113 241.446479 274.828899 
C 244.194524 269.856686 247.806359 265.413456 252.112456 261.70776 
C 256.418553 258.002064 261.350471 255.092799 266.676724 253.116517 
C 272.002977 251.140236 277.638907 250.128347 283.319986 250.128347 
z
" style="fill: #1b365d; stroke: #ffffff; stroke-width: 2; stroke-linejoin: miter"/>
   </g>
   <g id="patch_3">
    <path d="M 418.075166 100.321914 
C 398.326268 86.85736 376.670411 76.428445 353.830159 69.38316 
C 330.989907 62.337876 307.222178 58.755469 283.32002 58.755469 
L 283.319993 250.128347 
C 288.100425 250.128347 292.85397 250.844829 297.422021 252.253886 
C 301.990071 253.662942 306.321243 255.748725 310.271022 258.441636 
z
" style="fill: #800020; stroke: #ffffff; stroke-width: 2; stroke-linejoin: miter"/>
   </g>
   <g id="text_1">
    <!-- No -->
    <g style="fill: #262626" transform="translate(200.969226 529.093573) scale(0.1 -0.1)">
     <defs>
      <path id="DINAlternate-Bold-4e" d="M 481 0 
L 1172 0 
L 1172 3238 
L 1184 3238 
L 3244 0 
L 3897 0 
L 3897 4556 
L 3206 4556 
L 3206 1319 
L 3194 1319 
L 1131 4556 
L 481 4556 
L 481 0 
z
" transform="scale(0.015625)"/>
      <path id="DINAlternate-Bold-6f" d="M 263 1625 
Q 263 1113 347 844 
Q 434 575 616 378 
Q 750 225 991 103 
Q 1228 -31 1600 -38 
Q 1984 -31 2222 103 
Q 2350 159 2431 238 
Q 2522 306 2584 378 
Q 2778 575 2859 844 
Q 2938 1113 2938 1625 
Q 2938 2138 2859 2413 
Q 2778 2681 2584 2866 
Q 2456 3028 2222 3156 
Q 1984 3278 1600 3284 
Q 1228 3278 991 3156 
Q 750 3028 616 2866 
Q 434 2681 347 2413 
Q 263 2138 263 1625 
L 263 1625 
z
M 2284 1619 
Q 2284 1288 2253 1131 
Q 2222 972 2125 850 
Q 2053 756 1913 684 
Q 1778 616 1600 616 
Q 1434 616 1294 684 
Q 1159 756 1075 850 
Q 991 972 953 1131 
Q 916 1288 916 1625 
Q 916 1966 953 2125 
Q 991 2278 1075 2394 
Q 1159 2503 1294 2566 
Q 1434 2631 1600 2631 
Q 1778 2631 1913 2566 
Q 2053 2503 2125 2394 
Q 2222 2278 2253 2125 
Q 2284 1966 2284 1619 
L 2284 1619 
z
" transform="scale(0.015625)"/>
     </defs>
     <use xlink:href="#DINAlternate-Bold-4e"/>
     <use xlink:href="#DINAlternate-Bold-6f" transform="translate(68.408203 0)"/>
    </g>
   </g>
   <g id="text_2">
    <!-- 90.5% -->
    <g style="fill: #ffffff" transform="translate(212.392622 494.805311) scale(0.1 -0.1)">
     <defs>
      <path id="DINAlternate-Bold-39" d="M 675 0 
Q 672 0 728 114 
Q 784 228 875 409 
Q 966 591 1078 812 
Q 1191 1034 1300 1250 
Q 1409 1466 1504 1647 
Q 1600 1828 1659 1931 
Q 1569 1878 1455 1867 
Q 1341 1856 1191 1863 
Q 984 1869 829 1937 
Q 675 2006 562 2109 
Q 450 2213 375 2339 
Q 300 2466 254 2586 
Q 209 2706 189 2811 
Q 169 2916 169 2975 
Q 169 2994 167 3044 
Q 166 3094 166 3155 
Q 166 3216 167 3278 
Q 169 3341 175 3384 
Q 178 3406 195 3495 
Q 213 3584 259 3709 
Q 306 3834 390 3976 
Q 475 4119 611 4244 
Q 747 4369 945 4459 
Q 1144 4550 1416 4575 
Q 1700 4600 1917 4540 
Q 2134 4481 2290 4368 
Q 2447 4256 2550 4106 
Q 2653 3956 2711 3801 
Q 2769 3647 2787 3501 
Q 2806 3356 2794 3253 
Q 2775 3100 2753 2979 
Q 2731 2859 2701 2750 
Q 2672 2641 2634 2534 
Q 2597 2428 2547 2303 
Q 2534 2269 2479 2153 
Q 2425 2038 2342 1870 
Q 2259 1703 2161 1498 
Q 2063 1294 1959 1088 
Q 1719 600 1422 0 
L 675 0 
z
M 816 3300 
Q 816 3178 828 3031 
Q 841 2884 902 2754 
Q 963 2625 1094 2533 
Q 1225 2441 1463 2428 
Q 1581 2422 1678 2458 
Q 1775 2494 1850 2553 
Q 1925 2613 1979 2688 
Q 2034 2763 2070 2836 
Q 2106 2909 2122 2971 
Q 2138 3034 2138 3072 
Q 2134 3150 2132 3247 
Q 2131 3344 2114 3444 
Q 2097 3544 2056 3636 
Q 2016 3728 1941 3797 
Q 1866 3866 1748 3905 
Q 1631 3944 1456 3934 
Q 1263 3925 1139 3837 
Q 1016 3750 944 3644 
Q 872 3538 844 3438 
Q 816 3338 816 3300 
z
" transform="scale(0.015625)"/>
      <path id="DINAlternate-Bold-30" d="M 2175 1313 
Q 2156 622 1534 616 
Q 909 622 897 1313 
L 897 3244 
Q 909 3928 1534 3941 
Q 2156 3928 2175 3244 
L 2175 1313 
z
M 244 1275 
Q 250 647 647 306 
Q 1019 -31 1534 -38 
Q 2066 -31 2438 306 
Q 2816 647 2828 1275 
L 2828 3284 
Q 2816 3916 2438 4256 
Q 2066 4594 1534 4594 
Q 1019 4594 647 4256 
Q 250 3916 244 3284 
L 244 1275 
z
" transform="scale(0.015625)"/>
      <path id="DINAlternate-Bold-2e" d="M 441 0 
L 1094 0 
L 1094 653 
L 441 653 
L 441 0 
z
" transform="scale(0.015625)"/>
      <path id="DINAlternate-Bold-35" d="M 319 2094 
L 934 2094 
Q 1050 2303 1197 2388 
Q 1344 2469 1522 2469 
Q 1722 2469 1856 2413 
Q 1991 2344 2059 2228 
Q 2188 1984 2181 1594 
Q 2181 1434 2175 1266 
Q 2163 1094 2106 947 
Q 2053 800 1919 709 
Q 1778 616 1544 616 
Q 997 622 891 1147 
L 238 1147 
Q 331 519 722 238 
Q 1106 -38 1569 -38 
Q 1913 -31 2163 122 
Q 2419 269 2553 447 
Q 2706 628 2772 863 
Q 2834 1100 2834 1544 
Q 2834 1831 2816 2028 
Q 2797 2222 2753 2356 
Q 2669 2603 2478 2791 
Q 2350 2931 2144 3028 
Q 1925 3116 1663 3122 
Q 1253 3122 934 2872 
L 934 2872 
L 934 3903 
L 2747 3903 
L 2747 4556 
L 319 4556 
L 319 2094 
z
" transform="scale(0.015625)"/>
      <path id="DINAlternate-Bold-25" d="M 2156 984 
Q 2156 1300 2394 1300 
Q 2631 1300 2631 984 
L 2631 641 
Q 2631 325 2394 325 
Q 2156 325 2156 641 
L 2156 984 
z
M 1791 594 
Q 1797 263 1984 116 
Q 2156 -38 2394 -38 
Q 2638 -38 2816 116 
Q 2906 191 2950 313 
Q 2994 428 2994 594 
L 2994 1031 
Q 2988 1363 2816 1516 
Q 2638 1663 2394 1663 
Q 2156 1663 1984 1516 
Q 1797 1363 1791 1031 
L 1791 594 
z
M 325 3525 
Q 331 3194 519 3047 
Q 691 2894 928 2894 
Q 1172 2894 1350 3047 
Q 1441 3122 1484 3244 
Q 1528 3359 1528 3525 
L 1528 3963 
Q 1522 4294 1350 4447 
Q 1172 4594 928 4594 
Q 691 4594 519 4447 
Q 331 4294 325 3963 
L 325 3525 
z
M 691 3916 
Q 691 4231 928 4231 
Q 1166 4231 1166 3916 
L 1166 3572 
Q 1166 3256 928 3256 
Q 691 3256 691 3572 
L 691 3916 
z
M 372 0 
L 794 0 
L 2950 4556 
L 2528 4556 
L 372 0 
z
" transform="scale(0.015625)"/>
     </defs>
     <use xlink:href="#DINAlternate-Bold-39"/>
     <use xlink:href="#DINAlternate-Bold-30" transform="translate(47.998047 0)"/>
     <use xlink:href="#DINAlternate-Bold-2e" transform="translate(95.996094 0)"/>
     <use xlink:href="#DINAlternate-Bold-35" transform="translate(119.970703 0)"/>
     <use xlink:href="#DINAlternate-Bold-25" transform="translate(167.96875 0)"/>
    </g>
   </g>
   <g id="text_3">
    <!-- Yes -->
    <g style="fill: #262626" transform="translate(353.830156 71.916759) scale(0.1 -0.1)">
     <defs>
      <path id="DINAlternate-Bold-59" d="M 1275 0 
L 1925 0 
L 1925 1875 
L 3297 4556 
L 2566 4556 
L 1600 2534 
L 1600 2534 
L 634 4556 
L -97 4556 
L 1275 1875 
L 1275 0 
z
" transform="scale(0.015625)"/>
      <path id="DINAlternate-Bold-65" d="M 2938 1375 
L 2938 1913 
Q 2931 2553 2541 2919 
Q 2156 3278 1600 3284 
Q 1369 3284 1131 3200 
Q 891 3116 697 2925 
Q 506 2738 384 2413 
Q 263 2094 263 1613 
Q 263 1113 403 800 
Q 531 475 738 294 
Q 844 206 966 147 
Q 1081 78 1203 38 
Q 1447 -38 1703 -38 
Q 2375 -44 2872 488 
L 2400 891 
L 2400 891 
Q 2088 575 1691 575 
Q 1350 575 1141 781 
Q 916 984 916 1375 
L 2938 1375 
z
M 916 1913 
Q 934 2291 1119 2484 
Q 1306 2669 1600 2669 
Q 1894 2669 2081 2484 
Q 2272 2291 2284 1913 
L 916 1913 
z
" transform="scale(0.015625)"/>
      <path id="DINAlternate-Bold-73" d="M 519 991 
L 63 544 
Q 697 -38 1491 -38 
Q 2075 -31 2450 231 
Q 2828 488 2834 959 
Q 2834 1363 2625 1625 
Q 2400 1894 1894 1931 
L 1356 1972 
Q 1119 1997 1025 2088 
Q 922 2169 928 2278 
Q 928 2450 1056 2559 
Q 1178 2669 1484 2669 
Q 1753 2669 1959 2591 
Q 2169 2503 2356 2369 
L 2356 2369 
L 2759 2841 
Q 2522 3047 2222 3169 
Q 2066 3225 1888 3256 
Q 1709 3284 1484 3284 
Q 966 3284 628 3034 
Q 281 2784 275 2284 
Q 281 1869 544 1638 
Q 800 1400 1209 1363 
L 1784 1313 
Q 1966 1306 2075 1234 
Q 2181 1166 2181 991 
Q 2181 794 2003 684 
Q 1825 575 1544 575 
Q 916 575 519 991 
L 519 991 
z
" transform="scale(0.015625)"/>
     </defs>
     <use xlink:href="#DINAlternate-Bold-59"/>
     <use xlink:href="#DINAlternate-Bold-65" transform="translate(42 0)"/>
     <use xlink:href="#DINAlternate-Bold-73" transform="translate(92 0)"/>
    </g>
   </g>
   <g id="text_4">
    <!-- 9.5% -->
    <g style="fill: #ffffff" transform="translate(334.659881 106.205019) scale(0.1 -0.1)">
     <use xlink:href="#DINAlternate-Bold-39"/>
     <use xlink:href="#DINAlternate-Bold-2e" transform="translate(47.998047 0)"/>
     <use xlink:href="#DINAlternate-Bold-35" transform="translate(71.972656 0)"/>
     <use xlink:href="#DINAlternate-Bold-25" transform="translate(119.970703 0)"/>
    </g>
   </g>
   <g id="text_5">
    <g id="patch_4">
     <path d="M 481.702388 551.653963 
L 548.3952 551.653963 
Q 551.0952 551.653963 551.0952 548.953962 
L 551.0952 540.700681 
Q 551.0952 538.000681 548.3952 538.000681 
L 481.702388 538.000681 
Q 479.002388 538.000681 479.002388 540.700681 
L 479.002388 548.953962 
Q 479.002388 551.653963 481.702388 551.653963 
z
" style="fill: #d3d3d3; opacity: 0.8; stroke: #808080; stroke-linejoin: miter"/>
    </g>
    <!-- Non-null: 147/388 -->
    <g style="fill: #808080" transform="translate(481.702388 547.107556) scale(0.09 -0.09)">
     <defs>
      <path id="DINAlternate-Bold-6e" d="M 422 0 
L 1075 0 
L 1075 1931 
Q 1075 2272 1259 2450 
Q 1441 2631 1722 2631 
Q 2003 2631 2181 2450 
Q 2363 2272 2363 1931 
L 2363 0 
L 3016 0 
L 3016 2156 
Q 3000 2713 2669 3000 
Q 2334 3284 1931 3284 
Q 1409 3284 1088 2900 
L 1075 2900 
L 1075 3244 
L 422 3244 
L 422 0 
z
" transform="scale(0.015625)"/>
      <path id="DINAlternate-Bold-2d" d="M 341 1447 
L 2266 1447 
L 2266 2100 
L 341 2100 
L 341 1447 
z
" transform="scale(0.015625)"/>
      <path id="DINAlternate-Bold-75" d="M 422 1088 
Q 428 538 781 256 
Q 1106 -31 1509 -38 
Q 2028 -38 2350 347 
L 2363 347 
L 2363 0 
L 3016 0 
L 3016 3244 
L 2363 3244 
L 2363 1313 
Q 2363 984 2181 800 
Q 2003 616 1722 616 
Q 1441 616 1259 800 
Q 1075 984 1075 1313 
L 1075 3244 
L 422 3244 
L 422 1088 
z
" transform="scale(0.015625)"/>
      <path id="DINAlternate-Bold-6c" d="M 422 788 
Q 422 359 666 178 
Q 897 0 1253 0 
L 1544 0 
L 1544 616 
L 1319 616 
Q 1075 616 1075 838 
L 1075 4556 
L 422 4556 
L 422 788 
z
" transform="scale(0.015625)"/>
      <path id="DINAlternate-Bold-3a" d="M 441 1453 
L 1094 1453 
L 1094 2106 
L 441 2106 
L 441 1453 
z
M 441 0 
L 1094 0 
L 1094 653 
L 441 653 
L 441 0 
z
" transform="scale(0.015625)"/>
      <path id="DINAlternate-Bold-20" transform="scale(0.015625)"/>
      <path id="DINAlternate-Bold-31" d="M 1241 3866 
L 1241 0 
L 1894 0 
L 1894 4556 
L 1241 4556 
L 594 4084 
L 594 3391 
L 594 3391 
L 1241 3866 
L 1241 3866 
z
" transform="scale(0.015625)"/>
      <path id="DINAlternate-Bold-34" d="M 78 678 
L 1978 678 
L 1978 0 
L 2631 0 
L 2631 678 
L 2994 678 
L 2994 1294 
L 2631 1294 
L 2631 2603 
L 1978 2603 
L 1978 1294 
L 788 1294 
L 2328 4556 
L 1600 4556 
L 78 1294 
L 78 678 
z
" transform="scale(0.015625)"/>
      <path id="DINAlternate-Bold-37" d="M 325 3244 
L 978 3244 
L 978 3903 
L 2188 3903 
L 647 0 
L 1375 0 
L 2919 3903 
L 2919 4556 
L 325 4556 
L 325 3244 
z
" transform="scale(0.015625)"/>
      <path id="DINAlternate-Bold-2f" d="M 50 -38 
L 550 -38 
L 2081 4594 
L 1581 4594 
L 50 -38 
z
" transform="scale(0.015625)"/>
      <path id="DINAlternate-Bold-33" d="M 1125 2059 
L 1400 2059 
Q 1703 2059 1900 1875 
Q 2100 1684 2106 1338 
Q 2100 997 1900 813 
Q 1703 616 1416 616 
Q 1147 616 984 763 
Q 825 903 738 1131 
L 84 1131 
Q 191 563 550 263 
Q 909 -38 1375 -38 
Q 1978 -31 2363 347 
Q 2753 716 2759 1356 
Q 2759 1644 2638 1906 
Q 2509 2169 2222 2356 
Q 2503 2547 2613 2791 
Q 2706 3034 2706 3297 
Q 2700 3816 2350 4197 
Q 1984 4588 1363 4594 
Q 872 4588 519 4244 
Q 159 3897 109 3391 
L 763 3391 
Q 825 3672 1006 3806 
Q 1178 3941 1388 3941 
Q 1678 3934 1863 3756 
Q 2047 3572 2053 3284 
Q 2053 3000 1869 2822 
Q 1684 2638 1350 2638 
L 1125 2638 
L 1125 2059 
z
" transform="scale(0.015625)"/>
      <path id="DINAlternate-Bold-38" d="M 884 3291 
Q 891 3616 1088 3781 
Q 1281 3941 1534 3941 
Q 1797 3941 1991 3781 
Q 2181 3616 2188 3291 
Q 2181 2975 1991 2809 
Q 1797 2638 1534 2638 
Q 1281 2638 1088 2809 
Q 891 2975 884 3291 
L 884 3291 
z
M 147 1331 
Q 153 716 563 347 
Q 953 -31 1534 -38 
Q 2119 -31 2522 347 
Q 2919 716 2925 1331 
Q 2919 1991 2388 2356 
Q 2591 2534 2719 2766 
Q 2841 2981 2841 3278 
Q 2834 3847 2469 4219 
Q 2106 4588 1534 4594 
Q 972 4588 616 4219 
Q 238 3847 231 3278 
Q 231 2981 366 2766 
Q 481 2534 684 2356 
Q 153 1991 147 1331 
L 147 1331 
z
M 800 1338 
Q 806 1656 1025 1856 
Q 1234 2053 1534 2059 
Q 1844 2053 2053 1856 
Q 2266 1656 2272 1338 
Q 2266 1025 2053 825 
Q 1844 616 1534 616 
Q 1234 616 1025 825 
Q 806 1025 800 1338 
L 800 1338 
z
" transform="scale(0.015625)"/>
     </defs>
     <use xlink:href="#DINAlternate-Bold-4e"/>
     <use xlink:href="#DINAlternate-Bold-6f" transform="translate(68.408203 0)"/>
     <use xlink:href="#DINAlternate-Bold-6e" transform="translate(118.408203 0)"/>
     <use xlink:href="#DINAlternate-Bold-2d" transform="translate(172.119141 0)"/>
     <use xlink:href="#DINAlternate-Bold-6e" transform="translate(212.792969 0)"/>
     <use xlink:href="#DINAlternate-Bold-75" transform="translate(266.503906 0)"/>
     <use xlink:href="#DINAlternate-Bold-6c" transform="translate(320.214844 0)"/>
     <use xlink:href="#DINAlternate-Bold-6c" transform="translate(345.996094 0)"/>
     <use xlink:href="#DINAlternate-Bold-3a" transform="translate(371.777344 0)"/>
     <use xlink:href="#DINAlternate-Bold-20" transform="translate(395.751953 0)"/>
     <use xlink:href="#DINAlternate-Bold-31" transform="translate(419.726562 0)"/>
     <use xlink:href="#DINAlternate-Bold-34" transform="translate(467.724609 0)"/>
     <use xlink:href="#DINAlternate-Bold-37" transform="translate(515.722656 0)"/>
     <use xlink:href="#DINAlternate-Bold-2f" transform="translate(563.720703 0)"/>
     <use xlink:href="#DINAlternate-Bold-33" transform="translate(597.021484 0)"/>
     <use xlink:href="#DINAlternate-Bold-38" transform="translate(645.019531 0)"/>
     <use xlink:href="#DINAlternate-Bold-38" transform="translate(693.017578 0)"/>
    </g>
   </g>
   <g id="text_6">
    <!-- Have you ever required medical attention because of drugs you have taken? -->
    <g style="fill: #262626" transform="translate(78.827969 16.531562) scale(0.13 -0.13)">
     <defs>
      <path id="DINAlternate-Bold-48" d="M 2975 0 
L 3666 0 
L 3666 4556 
L 2975 4556 
L 2975 2603 
L 1172 2603 
L 1172 4556 
L 481 4556 
L 481 0 
L 1172 0 
L 1172 1991 
L 2975 1991 
L 2975 0 
z
" transform="scale(0.015625)"/>
      <path id="DINAlternate-Bold-61" d="M 2125 0 
L 2778 0 
L 2778 2216 
Q 2772 2809 2406 3053 
Q 2041 3291 1428 3284 
Q 703 3297 331 2809 
L 844 2419 
L 844 2419 
Q 928 2559 1075 2619 
Q 1216 2669 1459 2669 
Q 2131 2681 2125 2253 
L 2125 1913 
L 1222 1913 
Q 703 1906 434 1631 
Q 166 1363 166 953 
Q 166 525 475 250 
Q 769 -31 1313 -38 
Q 1644 -38 1831 44 
Q 2022 122 2113 288 
L 2125 288 
L 2125 0 
z
M 2125 1141 
Q 2125 775 1972 672 
Q 1803 569 1394 575 
Q 1069 575 928 703 
Q 781 819 781 984 
Q 775 1363 1344 1375 
L 2125 1375 
L 2125 1141 
z
" transform="scale(0.015625)"/>
      <path id="DINAlternate-Bold-76" d="M 1153 0 
L 1691 0 
L 2881 3244 
L 2188 3244 
L 1428 972 
L 1416 972 
L 653 3244 
L -38 3244 
L 1153 0 
z
" transform="scale(0.015625)"/>
      <path id="DINAlternate-Bold-79" d="M 1119 128 
L 941 -416 
Q 897 -556 788 -628 
Q 678 -697 550 -697 
L 359 -697 
L 359 -1313 
L 575 -1313 
Q 878 -1313 1119 -1178 
Q 1356 -1038 1491 -672 
L 2888 3244 
L 2194 3244 
L 1428 972 
L 1416 972 
L 647 3244 
L -44 3244 
L 1119 128 
z
" transform="scale(0.015625)"/>
      <path id="DINAlternate-Bold-72" d="M 422 0 
L 1075 0 
L 1075 1953 
Q 1081 2309 1281 2469 
Q 1459 2631 1709 2631 
Q 1931 2631 2138 2469 
L 2138 2469 
L 2613 3034 
Q 2322 3278 1931 3284 
Q 1409 3284 1088 2900 
L 1075 2900 
L 1075 3244 
L 422 3244 
L 422 0 
z
" transform="scale(0.015625)"/>
      <path id="DINAlternate-Bold-71" d="M 2247 347 
L 2247 -1313 
L 2900 -1313 
L 2900 3244 
L 2247 3244 
L 2247 2906 
L 2247 2906 
Q 1925 3269 1409 3284 
Q 813 3269 538 2859 
Q 403 2706 359 2456 
Q 306 2209 306 1619 
Q 306 1044 359 794 
Q 403 544 538 384 
Q 684 197 903 84 
Q 1113 -31 1409 -38 
Q 1656 -38 1869 72 
Q 2066 172 2247 347 
L 2247 347 
z
M 1606 616 
Q 1375 616 1253 703 
Q 1119 794 1056 934 
Q 997 1081 978 1259 
Q 959 1434 959 1619 
Q 959 1813 978 1997 
Q 997 2181 1056 2322 
Q 1119 2469 1253 2553 
Q 1375 2631 1606 2631 
Q 1838 2631 1972 2541 
Q 2106 2450 2156 2303 
Q 2222 2156 2241 1984 
Q 2247 1803 2247 1619 
Q 2247 1447 2241 1275 
Q 2222 1094 2156 947 
Q 2106 800 1972 709 
Q 1838 616 1606 616 
L 1606 616 
z
" transform="scale(0.015625)"/>
      <path id="DINAlternate-Bold-69" d="M 441 0 
L 1094 0 
L 1094 3244 
L 441 3244 
L 441 0 
z
M 441 3903 
L 1094 3903 
L 1094 4556 
L 441 4556 
L 441 3903 
z
" transform="scale(0.015625)"/>
      <path id="DINAlternate-Bold-64" d="M 2363 341 
L 2363 0 
L 3016 0 
L 3016 4556 
L 2363 4556 
L 2363 2900 
L 2363 2900 
Q 2181 3072 1984 3181 
Q 1772 3284 1522 3284 
Q 928 3269 653 2859 
Q 519 2706 475 2456 
Q 422 2209 422 1625 
Q 422 1050 475 800 
Q 519 538 653 384 
Q 800 197 1019 84 
Q 1228 -31 1522 -38 
Q 2041 -25 2363 341 
L 2363 341 
z
M 1722 2631 
Q 1953 2631 2088 2541 
Q 2222 2450 2272 2303 
Q 2334 2156 2356 1984 
Q 2363 1813 2363 1625 
Q 2363 1453 2356 1275 
Q 2334 1094 2272 947 
Q 2222 800 2088 709 
Q 1953 616 1722 616 
Q 1491 616 1369 703 
Q 1234 794 1172 934 
Q 1113 1081 1094 1266 
Q 1075 1441 1075 1625 
Q 1075 1819 1094 2003 
Q 1113 2175 1172 2322 
Q 1234 2469 1369 2553 
Q 1491 2631 1722 2631 
L 1722 2631 
z
" transform="scale(0.015625)"/>
      <path id="DINAlternate-Bold-6d" d="M 459 0 
L 1113 0 
L 1113 1931 
Q 1113 2272 1300 2450 
Q 1478 2631 1759 2631 
Q 2041 2631 2222 2450 
Q 2400 2272 2400 1931 
L 2400 0 
L 3053 0 
L 3053 1931 
Q 3053 2272 3238 2450 
Q 3419 2631 3700 2631 
Q 3981 2631 4159 2450 
Q 4338 2272 4338 1931 
L 4338 0 
L 4991 0 
L 4991 2156 
Q 4978 2713 4647 3000 
Q 4313 3284 3909 3284 
Q 3269 3291 2888 2859 
L 2888 2859 
Q 2719 3047 2516 3169 
Q 2309 3278 1972 3284 
Q 1447 3284 1125 2900 
L 1113 2900 
L 1113 3244 
L 459 3244 
L 459 0 
z
" transform="scale(0.015625)"/>
      <path id="DINAlternate-Bold-63" d="M 2328 953 
L 2328 953 
Q 2081 622 1669 616 
Q 838 600 825 1619 
Q 838 2644 1669 2631 
Q 2081 2619 2328 2291 
L 2328 2291 
L 2809 2719 
Q 2597 2975 2309 3128 
Q 2022 3278 1644 3284 
Q 1069 3291 634 2900 
Q 184 2503 172 1619 
Q 184 744 634 353 
Q 1069 -38 1644 -38 
Q 2022 -31 2309 128 
Q 2597 281 2809 525 
L 2328 953 
z
" transform="scale(0.015625)"/>
      <path id="DINAlternate-Bold-74" d="M 459 3244 
L 134 3244 
L 134 2747 
L 459 2747 
L 459 800 
Q 459 416 684 213 
Q 903 0 1247 0 
L 1588 0 
L 1588 616 
L 1344 616 
Q 1106 609 1113 856 
L 1113 2747 
L 1588 2747 
L 1588 3244 
L 1113 3244 
L 1113 4231 
L 459 4231 
L 459 3244 
z
" transform="scale(0.015625)"/>
      <path id="DINAlternate-Bold-62" d="M 422 0 
L 1075 0 
L 1075 341 
L 1075 341 
Q 1400 -25 1913 -38 
Q 2216 -31 2431 84 
Q 2650 197 2784 384 
Q 2919 538 2969 800 
Q 3016 1050 3016 1625 
Q 3016 2209 2969 2456 
Q 2919 2706 2784 2859 
Q 2509 3269 1913 3284 
Q 1663 3284 1466 3181 
Q 1253 3072 1075 2900 
L 1075 2900 
L 1075 4556 
L 422 4556 
L 422 0 
z
M 1716 2631 
Q 1947 2631 2081 2553 
Q 2216 2469 2272 2322 
Q 2334 2175 2356 2003 
Q 2363 1819 2363 1625 
Q 2363 1441 2356 1266 
Q 2334 1081 2272 934 
Q 2216 794 2081 703 
Q 1947 616 1716 616 
Q 1497 616 1369 709 
Q 1234 800 1172 947 
Q 1113 1094 1094 1275 
Q 1075 1453 1075 1625 
Q 1075 1813 1094 1984 
Q 1113 2156 1172 2303 
Q 1234 2450 1369 2541 
Q 1497 2631 1716 2631 
L 1716 2631 
z
" transform="scale(0.015625)"/>
      <path id="DINAlternate-Bold-66" d="M 525 0 
L 1178 0 
L 1178 2747 
L 1831 2747 
L 1831 3244 
L 1178 3244 
L 1178 3672 
Q 1166 3950 1459 3941 
L 1831 3941 
L 1831 4556 
L 1409 4556 
Q 1031 4556 781 4353 
Q 525 4134 525 3672 
L 525 3244 
L 197 3244 
L 197 2747 
L 525 2747 
L 525 0 
z
" transform="scale(0.015625)"/>
      <path id="DINAlternate-Bold-67" d="M 2247 341 
L 2247 6 
Q 2241 -325 2041 -513 
Q 1838 -697 1503 -697 
Q 1325 -691 1159 -600 
Q 997 -519 872 -403 
L 872 -403 
L 366 -806 
Q 831 -1338 1491 -1350 
Q 2066 -1350 2478 -997 
Q 2888 -653 2900 78 
L 2900 3244 
L 2247 3244 
L 2247 2900 
L 2247 2900 
Q 1894 3284 1409 3284 
Q 1094 3278 884 3163 
Q 666 3041 550 2888 
Q 422 2731 366 2503 
Q 306 2272 306 1619 
Q 306 978 366 750 
Q 422 519 550 359 
Q 666 219 884 97 
Q 1094 -31 1409 -38 
Q 1925 -25 2247 341 
L 2247 341 
z
M 959 1619 
Q 959 1997 984 2144 
Q 1006 2291 1088 2381 
Q 1153 2469 1288 2553 
Q 1416 2625 1606 2631 
Q 1797 2625 1925 2553 
Q 2053 2469 2119 2381 
Q 2200 2291 2228 2144 
Q 2247 1997 2247 1619 
Q 2247 1247 2228 1106 
Q 2200 959 2119 863 
Q 2053 775 1925 703 
Q 1797 616 1606 616 
Q 1416 616 1288 703 
Q 1153 775 1088 863 
Q 1006 959 984 1106 
Q 959 1247 959 1619 
L 959 1619 
z
" transform="scale(0.015625)"/>
      <path id="DINAlternate-Bold-68" d="M 422 0 
L 1075 0 
L 1075 1931 
Q 1075 2272 1259 2450 
Q 1441 2631 1722 2631 
Q 2003 2631 2181 2450 
Q 2363 2272 2363 1931 
L 2363 0 
L 3016 0 
L 3016 2156 
Q 3000 2713 2669 3000 
Q 2334 3284 1931 3284 
Q 1409 3284 1088 2900 
L 1075 2900 
L 1075 4556 
L 422 4556 
L 422 0 
z
" transform="scale(0.015625)"/>
      <path id="DINAlternate-Bold-6b" d="M 422 0 
L 1075 0 
L 1075 934 
L 1588 1516 
L 1588 1516 
L 2450 0 
L 3269 0 
L 1997 1978 
L 3116 3244 
L 2334 3244 
L 1088 1722 
L 1075 1722 
L 1075 4556 
L 422 4556 
L 422 0 
z
" transform="scale(0.015625)"/>
      <path id="DINAlternate-Bold-3f" d="M 1081 1125 
L 1734 1125 
L 1734 1491 
Q 1728 1728 1844 1894 
L 2425 2694 
Q 2625 2963 2631 3366 
Q 2625 3934 2253 4269 
Q 1894 4588 1394 4594 
Q 903 4588 550 4244 
Q 191 3903 184 3372 
L 184 3244 
L 838 3244 
Q 838 3628 1019 3788 
Q 1178 3941 1428 3941 
Q 1631 3941 1803 3794 
Q 1972 3641 1978 3372 
Q 1978 3175 1819 2950 
L 1247 2156 
Q 1147 2016 1113 1875 
Q 1081 1728 1081 1544 
L 1081 1125 
z
M 1081 0 
L 1734 0 
L 1734 653 
L 1081 653 
L 1081 0 
z
" transform="scale(0.015625)"/>
     </defs>
     <use xlink:href="#DINAlternate-Bold-48"/>
     <use xlink:href="#DINAlternate-Bold-61" transform="translate(64.794922 0)"/>
     <use xlink:href="#DINAlternate-Bold-76" transform="translate(114.794922 0)"/>
     <use xlink:href="#DINAlternate-Bold-65" transform="translate(158.554688 0)"/>
     <use xlink:href="#DINAlternate-Bold-20" transform="translate(208.554688 0)"/>
     <use xlink:href="#DINAlternate-Bold-79" transform="translate(232.529297 0)"/>
     <use xlink:href="#DINAlternate-Bold-6f" transform="translate(276.289062 0)"/>
     <use xlink:href="#DINAlternate-Bold-75" transform="translate(326.289062 0)"/>
     <use xlink:href="#DINAlternate-Bold-20" transform="translate(380 0)"/>
     <use xlink:href="#DINAlternate-Bold-65" transform="translate(403.974609 0)"/>
     <use xlink:href="#DINAlternate-Bold-76" transform="translate(453.349609 0)"/>
     <use xlink:href="#DINAlternate-Bold-65" transform="translate(497.109375 0)"/>
     <use xlink:href="#DINAlternate-Bold-72" transform="translate(547.109375 0)"/>
     <use xlink:href="#DINAlternate-Bold-20" transform="translate(586.025391 0)"/>
     <use xlink:href="#DINAlternate-Bold-72" transform="translate(610 0)"/>
     <use xlink:href="#DINAlternate-Bold-65" transform="translate(647.166016 0)"/>
     <use xlink:href="#DINAlternate-Bold-71" transform="translate(697.166016 0)"/>
     <use xlink:href="#DINAlternate-Bold-75" transform="translate(749.070312 0)"/>
     <use xlink:href="#DINAlternate-Bold-69" transform="translate(802.78125 0)"/>
     <use xlink:href="#DINAlternate-Bold-72" transform="translate(826.755859 0)"/>
     <use xlink:href="#DINAlternate-Bold-65" transform="translate(863.921875 0)"/>
     <use xlink:href="#DINAlternate-Bold-64" transform="translate(913.921875 0)"/>
     <use xlink:href="#DINAlternate-Bold-20" transform="translate(965.826172 0)"/>
     <use xlink:href="#DINAlternate-Bold-6d" transform="translate(989.800781 0)"/>
     <use xlink:href="#DINAlternate-Bold-65" transform="translate(1075.005859 0)"/>
     <use xlink:href="#DINAlternate-Bold-64" transform="translate(1125.005859 0)"/>
     <use xlink:href="#DINAlternate-Bold-69" transform="translate(1176.910156 0)"/>
     <use xlink:href="#DINAlternate-Bold-63" transform="translate(1200.884766 0)"/>
     <use xlink:href="#DINAlternate-Bold-61" transform="translate(1245.269531 0)"/>
     <use xlink:href="#DINAlternate-Bold-6c" transform="translate(1295.269531 0)"/>
     <use xlink:href="#DINAlternate-Bold-20" transform="translate(1321.050781 0)"/>
     <use xlink:href="#DINAlternate-Bold-61" transform="translate(1345.025391 0)"/>
     <use xlink:href="#DINAlternate-Bold-74" transform="translate(1395.025391 0)"/>
     <use xlink:href="#DINAlternate-Bold-74" transform="translate(1422.808594 0)"/>
     <use xlink:href="#DINAlternate-Bold-65" transform="translate(1450.591797 0)"/>
     <use xlink:href="#DINAlternate-Bold-6e" transform="translate(1500.591797 0)"/>
     <use xlink:href="#DINAlternate-Bold-74" transform="translate(1554.302734 0)"/>
     <use xlink:href="#DINAlternate-Bold-69" transform="translate(1582.085938 0)"/>
     <use xlink:href="#DINAlternate-Bold-6f" transform="translate(1606.060547 0)"/>
     <use xlink:href="#DINAlternate-Bold-6e" transform="translate(1656.060547 0)"/>
     <use xlink:href="#DINAlternate-Bold-20" transform="translate(1709.771484 0)"/>
     <use xlink:href="#DINAlternate-Bold-62" transform="translate(1733.746094 0)"/>
     <use xlink:href="#DINAlternate-Bold-65" transform="translate(1785.650391 0)"/>
     <use xlink:href="#DINAlternate-Bold-63" transform="translate(1835.650391 0)"/>
     <use xlink:href="#DINAlternate-Bold-61" transform="translate(1880.035156 0)"/>
     <use xlink:href="#DINAlternate-Bold-75" transform="translate(1930.035156 0)"/>
     <use xlink:href="#DINAlternate-Bold-73" transform="translate(1983.746094 0)"/>
     <use xlink:href="#DINAlternate-Bold-65" transform="translate(2031.744141 0)"/>
     <use xlink:href="#DINAlternate-Bold-20" transform="translate(2081.744141 0)"/>
     <use xlink:href="#DINAlternate-Bold-6f" transform="translate(2105.71875 0)"/>
     <use xlink:href="#DINAlternate-Bold-66" transform="translate(2155.71875 0)"/>
     <use xlink:href="#DINAlternate-Bold-20" transform="translate(2183.501953 0)"/>
     <use xlink:href="#DINAlternate-Bold-64" transform="translate(2207.476562 0)"/>
     <use xlink:href="#DINAlternate-Bold-72" transform="translate(2259.380859 0)"/>
     <use xlink:href="#DINAlternate-Bold-75" transform="translate(2297.046875 0)"/>
     <use xlink:href="#DINAlternate-Bold-67" transform="translate(2350.757812 0)"/>
     <use xlink:href="#DINAlternate-Bold-73" transform="translate(2402.662109 0)"/>
     <use xlink:href="#DINAlternate-Bold-20" transform="translate(2450.660156 0)"/>
     <use xlink:href="#DINAlternate-Bold-79" transform="translate(2474.634766 0)"/>
     <use xlink:href="#DINAlternate-Bold-6f" transform="translate(2518.394531 0)"/>
     <use xlink:href="#DINAlternate-Bold-75" transform="translate(2568.394531 0)"/>
     <use xlink:href="#DINAlternate-Bold-20" transform="translate(2622.105469 0)"/>
     <use xlink:href="#DINAlternate-Bold-68" transform="translate(2646.080078 0)"/>
     <use xlink:href="#DINAlternate-Bold-61" transform="translate(2699.791016 0)"/>
     <use xlink:href="#DINAlternate-Bold-76" transform="translate(2749.791016 0)"/>
     <use xlink:href="#DINAlternate-Bold-65" transform="translate(2793.550781 0)"/>
     <use xlink:href="#DINAlternate-Bold-20" transform="translate(2843.550781 0)"/>
     <use xlink:href="#DINAlternate-Bold-74" transform="translate(2867.525391 0)"/>
     <use xlink:href="#DINAlternate-Bold-61" transform="translate(2895.308594 0)"/>
     <use xlink:href="#DINAlternate-Bold-6b" transform="translate(2945.308594 0)"/>
     <use xlink:href="#DINAlternate-Bold-65" transform="translate(2995.962891 0)"/>
     <use xlink:href="#DINAlternate-Bold-6e" transform="translate(3045.962891 0)"/>
     <use xlink:href="#DINAlternate-Bold-3f" transform="translate(3099.673828 0)"/>
    </g>
   </g>
  </g>
 </g>
</svg>
