<?xml version="1.0" encoding="utf-8" standalone="no"?>
<!DOCTYPE svg PUBLIC "-//W3C//DTD SVG 1.1//EN"
  "http://www.w3.org/Graphics/SVG/1.1/DTD/svg11.dtd">
<svg xmlns:xlink="http://www.w3.org/1999/xlink" width="579.243595pt" height="566.611562pt" viewBox="0 0 579.243595 566.611562" xmlns="http://www.w3.org/2000/svg" version="1.1">
 <metadata>
  <rdf:RDF xmlns:dc="http://purl.org/dc/elements/1.1/" xmlns:cc="http://creativecommons.org/ns#" xmlns:rdf="http://www.w3.org/1999/02/22-rdf-syntax-ns#">
   <cc:Work>
    <dc:type rdf:resource="http://purl.org/dc/dcmitype/StillImage"/>
    <dc:date>2025-09-19T18:04:11.348006</dc:date>
    <dc:format>image/svg+xml</dc:format>
    <dc:creator>
     <cc:Agent>
      <dc:title>Matplotlib v3.10.3, https://matplotlib.org/</dc:title>
     </cc:Agent>
    </dc:creator>
   </cc:Work>
  </rdf:RDF>
 </metadata>
 <defs>
  <style type="text/css">*{stroke-linejoin: round; stroke-linecap: butt}</style>
 </defs>
 <g id="figure_1">
  <g id="patch_1">
   <path d="M 0 566.611562 
L 579.243595 566.611562 
L 579.243595 0 
L 0 0 
z
" style="fill: #ffffff"/>
  </g>
  <g id="axes_1">
   <g id="matplotlib.axis_1"/>
   <g id="matplotlib.axis_2"/>
   <g id="patch_2">
    <path d="M 297.914566 119.254392 
C 271.818545 119.254392 246.036445 124.970146 222.385417 135.998801 
C 198.73439 147.027456 177.783454 163.103674 161.009255 183.094386 
C 144.235056 203.085099 132.041163 226.509349 125.287016 251.71617 
C 118.532869 276.922991 117.380964 303.305933 121.912491 329.005497 
C 126.444018 354.705061 136.549951 379.102942 151.518014 400.479552 
C 166.486077 421.856161 185.956153 439.697199 208.555971 452.745209 
C 231.155788 465.79322 256.341618 473.734282 282.338336 476.0087 
C 308.335054 478.283118 334.517206 474.836172 359.039445 465.910808 
L 310.139542 331.559427 
C 305.235094 333.3445 299.998664 334.033889 294.79932 333.579006 
C 289.599976 333.124122 284.56281 331.53591 280.042847 328.926308 
C 275.522883 326.316706 271.628868 322.748498 268.635255 318.473176 
C 265.641643 314.197854 263.620456 309.318278 262.714151 304.178365 
C 261.807846 299.038452 262.038226 293.761864 263.389056 288.7205 
C 264.739885 283.679136 267.178664 278.994286 270.533504 274.996143 
C 273.888344 270.998001 278.078531 267.782757 282.808736 265.577026 
C 287.538942 263.371295 292.695362 262.228144 297.914566 262.228144 
z
" style="fill: #1b365d; stroke: #ffffff; stroke-width: 2; stroke-linejoin: miter"/>
   </g>
   <g id="patch_3">
    <path d="M 359.039431 465.910807 
C 402.999635 449.910599 438.966472 417.272469 459.147364 375.067755 
C 479.328256 332.863041 482.152264 284.377024 467.007528 240.114812 
L 331.733158 286.400228 
C 334.762106 295.252671 334.197304 304.949874 330.161126 313.390817 
C 326.124947 321.83176 318.93158 328.359386 310.139539 331.559427 
z
" style="fill: #800020; stroke: #ffffff; stroke-width: 2; stroke-linejoin: miter"/>
   </g>
   <g id="patch_4">
    <path d="M 467.007528 240.114812 
C 457.232408 211.545905 440.374652 185.914928 418.013965 165.623678 
C 395.653278 145.332427 368.510622 131.035172 339.129573 124.071736 
L 306.157567 263.191613 
C 312.033777 264.5843 317.462308 267.443751 321.934446 271.502001 
C 326.406583 275.560251 329.778134 280.686447 331.733158 286.400228 
z
" style="fill: #2f4f4f; stroke: #ffffff; stroke-width: 2; stroke-linejoin: miter"/>
   </g>
   <g id="patch_5">
    <path d="M 339.129573 124.071736 
C 334.632526 123.005913 330.095874 122.114938 325.529758 121.400813 
C 320.963642 120.686689 316.371503 120.149947 311.763778 119.791804 
L 300.684408 262.335627 
C 301.605953 262.407255 302.524381 262.514604 303.437604 262.657428 
C 304.350828 262.800253 305.258158 262.978448 306.157567 263.191613 
z
" style="stroke: #ffffff; stroke-width: 2; stroke-linejoin: miter"/>
   </g>
   <g id="patch_6">
    <path d="M 311.763778 119.791804 
C 309.46014 119.612748 307.153245 119.47839 304.844396 119.388793 
C 302.535547 119.299196 300.225177 119.254392 297.914591 119.254392 
L 297.914571 262.228144 
C 298.376688 262.228144 298.838762 262.237105 299.300532 262.255024 
C 299.762302 262.272944 300.223681 262.299815 300.684408 262.335627 
z
" style="fill: #4f4f4f; stroke: #ffffff; stroke-width: 2; stroke-linejoin: miter"/>
   </g>
   <g id="text_1">
    <!-- I have not had sex on drugs -->
    <g style="fill: #262626" transform="translate(7.2 331.510235) scale(0.1 -0.1)">
     <defs>
      <path id="DINAlternate-Bold-49" d="M 481 0 
L 1172 0 
L 1172 4556 
L 481 4556 
L 481 0 
z
" transform="scale(0.015625)"/>
      <path id="DINAlternate-Bold-20" transform="scale(0.015625)"/>
      <path id="DINAlternate-Bold-68" d="M 422 0 
L 1075 0 
L 1075 1931 
Q 1075 2272 1259 2450 
Q 1441 2631 1722 2631 
Q 2003 2631 2181 2450 
Q 2363 2272 2363 1931 
L 2363 0 
L 3016 0 
L 3016 2156 
Q 3000 2713 2669 3000 
Q 2334 3284 1931 3284 
Q 1409 3284 1088 2900 
L 1075 2900 
L 1075 4556 
L 422 4556 
L 422 0 
z
" transform="scale(0.015625)"/>
      <path id="DINAlternate-Bold-61" d="M 2125 0 
L 2778 0 
L 2778 2216 
Q 2772 2809 2406 3053 
Q 2041 3291 1428 3284 
Q 703 3297 331 2809 
L 844 2419 
L 844 2419 
Q 928 2559 1075 2619 
Q 1216 2669 1459 2669 
Q 2131 2681 2125 2253 
L 2125 1913 
L 1222 1913 
Q 703 1906 434 1631 
Q 166 1363 166 953 
Q 166 525 475 250 
Q 769 -31 1313 -38 
Q 1644 -38 1831 44 
Q 2022 122 2113 288 
L 2125 288 
L 2125 0 
z
M 2125 1141 
Q 2125 775 1972 672 
Q 1803 569 1394 575 
Q 1069 575 928 703 
Q 781 819 781 984 
Q 775 1363 1344 1375 
L 2125 1375 
L 2125 1141 
z
" transform="scale(0.015625)"/>
      <path id="DINAlternate-Bold-76" d="M 1153 0 
L 1691 0 
L 2881 3244 
L 2188 3244 
L 1428 972 
L 1416 972 
L 653 3244 
L -38 3244 
L 1153 0 
z
" transform="scale(0.015625)"/>
      <path id="DINAlternate-Bold-65" d="M 2938 1375 
L 2938 1913 
Q 2931 2553 2541 2919 
Q 2156 3278 1600 3284 
Q 1369 3284 1131 3200 
Q 891 3116 697 2925 
Q 506 2738 384 2413 
Q 263 2094 263 1613 
Q 263 1113 403 800 
Q 531 475 738 294 
Q 844 206 966 147 
Q 1081 78 1203 38 
Q 1447 -38 1703 -38 
Q 2375 -44 2872 488 
L 2400 891 
L 2400 891 
Q 2088 575 1691 575 
Q 1350 575 1141 781 
Q 916 984 916 1375 
L 2938 1375 
z
M 916 1913 
Q 934 2291 1119 2484 
Q 1306 2669 1600 2669 
Q 1894 2669 2081 2484 
Q 2272 2291 2284 1913 
L 916 1913 
z
" transform="scale(0.015625)"/>
      <path id="DINAlternate-Bold-6e" d="M 422 0 
L 1075 0 
L 1075 1931 
Q 1075 2272 1259 2450 
Q 1441 2631 1722 2631 
Q 2003 2631 2181 2450 
Q 2363 2272 2363 1931 
L 2363 0 
L 3016 0 
L 3016 2156 
Q 3000 2713 2669 3000 
Q 2334 3284 1931 3284 
Q 1409 3284 1088 2900 
L 1075 2900 
L 1075 3244 
L 422 3244 
L 422 0 
z
" transform="scale(0.015625)"/>
      <path id="DINAlternate-Bold-6f" d="M 263 1625 
Q 263 1113 347 844 
Q 434 575 616 378 
Q 750 225 991 103 
Q 1228 -31 1600 -38 
Q 1984 -31 2222 103 
Q 2350 159 2431 238 
Q 2522 306 2584 378 
Q 2778 575 2859 844 
Q 2938 1113 2938 1625 
Q 2938 2138 2859 2413 
Q 2778 2681 2584 2866 
Q 2456 3028 2222 3156 
Q 1984 3278 1600 3284 
Q 1228 3278 991 3156 
Q 750 3028 616 2866 
Q 434 2681 347 2413 
Q 263 2138 263 1625 
L 263 1625 
z
M 2284 1619 
Q 2284 1288 2253 1131 
Q 2222 972 2125 850 
Q 2053 756 1913 684 
Q 1778 616 1600 616 
Q 1434 616 1294 684 
Q 1159 756 1075 850 
Q 991 972 953 1131 
Q 916 1288 916 1625 
Q 916 1966 953 2125 
Q 991 2278 1075 2394 
Q 1159 2503 1294 2566 
Q 1434 2631 1600 2631 
Q 1778 2631 1913 2566 
Q 2053 2503 2125 2394 
Q 2222 2278 2253 2125 
Q 2284 1966 2284 1619 
L 2284 1619 
z
" transform="scale(0.015625)"/>
      <path id="DINAlternate-Bold-74" d="M 459 3244 
L 134 3244 
L 134 2747 
L 459 2747 
L 459 800 
Q 459 416 684 213 
Q 903 0 1247 0 
L 1588 0 
L 1588 616 
L 1344 616 
Q 1106 609 1113 856 
L 1113 2747 
L 1588 2747 
L 1588 3244 
L 1113 3244 
L 1113 4231 
L 459 4231 
L 459 3244 
z
" transform="scale(0.015625)"/>
      <path id="DINAlternate-Bold-64" d="M 2363 341 
L 2363 0 
L 3016 0 
L 3016 4556 
L 2363 4556 
L 2363 2900 
L 2363 2900 
Q 2181 3072 1984 3181 
Q 1772 3284 1522 3284 
Q 928 3269 653 2859 
Q 519 2706 475 2456 
Q 422 2209 422 1625 
Q 422 1050 475 800 
Q 519 538 653 384 
Q 800 197 1019 84 
Q 1228 -31 1522 -38 
Q 2041 -25 2363 341 
L 2363 341 
z
M 1722 2631 
Q 1953 2631 2088 2541 
Q 2222 2450 2272 2303 
Q 2334 2156 2356 1984 
Q 2363 1813 2363 1625 
Q 2363 1453 2356 1275 
Q 2334 1094 2272 947 
Q 2222 800 2088 709 
Q 1953 616 1722 616 
Q 1491 616 1369 703 
Q 1234 794 1172 934 
Q 1113 1081 1094 1266 
Q 1075 1441 1075 1625 
Q 1075 1819 1094 2003 
Q 1113 2175 1172 2322 
Q 1234 2469 1369 2553 
Q 1491 2631 1722 2631 
L 1722 2631 
z
" transform="scale(0.015625)"/>
      <path id="DINAlternate-Bold-73" d="M 519 991 
L 63 544 
Q 697 -38 1491 -38 
Q 2075 -31 2450 231 
Q 2828 488 2834 959 
Q 2834 1363 2625 1625 
Q 2400 1894 1894 1931 
L 1356 1972 
Q 1119 1997 1025 2088 
Q 922 2169 928 2278 
Q 928 2450 1056 2559 
Q 1178 2669 1484 2669 
Q 1753 2669 1959 2591 
Q 2169 2503 2356 2369 
L 2356 2369 
L 2759 2841 
Q 2522 3047 2222 3169 
Q 2066 3225 1888 3256 
Q 1709 3284 1484 3284 
Q 966 3284 628 3034 
Q 281 2784 275 2284 
Q 281 1869 544 1638 
Q 800 1400 1209 1363 
L 1784 1313 
Q 1966 1306 2075 1234 
Q 2181 1166 2181 991 
Q 2181 794 2003 684 
Q 1825 575 1544 575 
Q 916 575 519 991 
L 519 991 
z
" transform="scale(0.015625)"/>
      <path id="DINAlternate-Bold-78" d="M 1172 1656 
L 63 0 
L 844 0 
L 1534 1081 
L 1534 1081 
L 2228 0 
L 3006 0 
L 1900 1656 
L 2963 3244 
L 2181 3244 
L 1534 2194 
L 1534 2194 
L 891 3244 
L 109 3244 
L 1172 1656 
z
" transform="scale(0.015625)"/>
      <path id="DINAlternate-Bold-72" d="M 422 0 
L 1075 0 
L 1075 1953 
Q 1081 2309 1281 2469 
Q 1459 2631 1709 2631 
Q 1931 2631 2138 2469 
L 2138 2469 
L 2613 3034 
Q 2322 3278 1931 3284 
Q 1409 3284 1088 2900 
L 1075 2900 
L 1075 3244 
L 422 3244 
L 422 0 
z
" transform="scale(0.015625)"/>
      <path id="DINAlternate-Bold-75" d="M 422 1088 
Q 428 538 781 256 
Q 1106 -31 1509 -38 
Q 2028 -38 2350 347 
L 2363 347 
L 2363 0 
L 3016 0 
L 3016 3244 
L 2363 3244 
L 2363 1313 
Q 2363 984 2181 800 
Q 2003 616 1722 616 
Q 1441 616 1259 800 
Q 1075 984 1075 1313 
L 1075 3244 
L 422 3244 
L 422 1088 
z
" transform="scale(0.015625)"/>
      <path id="DINAlternate-Bold-67" d="M 2247 341 
L 2247 6 
Q 2241 -325 2041 -513 
Q 1838 -697 1503 -697 
Q 1325 -691 1159 -600 
Q 997 -519 872 -403 
L 872 -403 
L 366 -806 
Q 831 -1338 1491 -1350 
Q 2066 -1350 2478 -997 
Q 2888 -653 2900 78 
L 2900 3244 
L 2247 3244 
L 2247 2900 
L 2247 2900 
Q 1894 3284 1409 3284 
Q 1094 3278 884 3163 
Q 666 3041 550 2888 
Q 422 2731 366 2503 
Q 306 2272 306 1619 
Q 306 978 366 750 
Q 422 519 550 359 
Q 666 219 884 97 
Q 1094 -31 1409 -38 
Q 1925 -25 2247 341 
L 2247 341 
z
M 959 1619 
Q 959 1997 984 2144 
Q 1006 2291 1088 2381 
Q 1153 2469 1288 2553 
Q 1416 2625 1606 2631 
Q 1797 2625 1925 2553 
Q 2053 2469 2119 2381 
Q 2200 2291 2228 2144 
Q 2247 1997 2247 1619 
Q 2247 1247 2228 1106 
Q 2200 959 2119 863 
Q 2053 775 1925 703 
Q 1797 616 1606 616 
Q 1416 616 1288 703 
Q 1153 775 1088 863 
Q 1006 959 984 1106 
Q 959 1247 959 1619 
L 959 1619 
z
" transform="scale(0.015625)"/>
     </defs>
     <use xlink:href="#DINAlternate-Bold-49"/>
     <use xlink:href="#DINAlternate-Bold-20" transform="translate(25.78125 0)"/>
     <use xlink:href="#DINAlternate-Bold-68" transform="translate(49.755859 0)"/>
     <use xlink:href="#DINAlternate-Bold-61" transform="translate(103.466797 0)"/>
     <use xlink:href="#DINAlternate-Bold-76" transform="translate(153.466797 0)"/>
     <use xlink:href="#DINAlternate-Bold-65" transform="translate(197.226562 0)"/>
     <use xlink:href="#DINAlternate-Bold-20" transform="translate(247.226562 0)"/>
     <use xlink:href="#DINAlternate-Bold-6e" transform="translate(271.201172 0)"/>
     <use xlink:href="#DINAlternate-Bold-6f" transform="translate(324.912109 0)"/>
     <use xlink:href="#DINAlternate-Bold-74" transform="translate(374.912109 0)"/>
     <use xlink:href="#DINAlternate-Bold-20" transform="translate(402.695312 0)"/>
     <use xlink:href="#DINAlternate-Bold-68" transform="translate(426.669922 0)"/>
     <use xlink:href="#DINAlternate-Bold-61" transform="translate(480.380859 0)"/>
     <use xlink:href="#DINAlternate-Bold-64" transform="translate(530.380859 0)"/>
     <use xlink:href="#DINAlternate-Bold-20" transform="translate(582.285156 0)"/>
     <use xlink:href="#DINAlternate-Bold-73" transform="translate(606.259766 0)"/>
     <use xlink:href="#DINAlternate-Bold-65" transform="translate(654.257812 0)"/>
     <use xlink:href="#DINAlternate-Bold-78" transform="translate(704.257812 0)"/>
     <use xlink:href="#DINAlternate-Bold-20" transform="translate(752.255859 0)"/>
     <use xlink:href="#DINAlternate-Bold-6f" transform="translate(776.230469 0)"/>
     <use xlink:href="#DINAlternate-Bold-6e" transform="translate(826.230469 0)"/>
     <use xlink:href="#DINAlternate-Bold-20" transform="translate(879.941406 0)"/>
     <use xlink:href="#DINAlternate-Bold-64" transform="translate(903.916016 0)"/>
     <use xlink:href="#DINAlternate-Bold-72" transform="translate(955.820312 0)"/>
     <use xlink:href="#DINAlternate-Bold-75" transform="translate(993.486328 0)"/>
     <use xlink:href="#DINAlternate-Bold-67" transform="translate(1047.197266 0)"/>
     <use xlink:href="#DINAlternate-Bold-73" transform="translate(1099.101562 0)"/>
    </g>
   </g>
   <g id="text_2">
    <!-- 55.6% -->
    <g style="fill: #ffffff" transform="translate(137.31906 326.884047) scale(0.1 -0.1)">
     <defs>
      <path id="DINAlternate-Bold-35" d="M 319 2094 
L 934 2094 
Q 1050 2303 1197 2388 
Q 1344 2469 1522 2469 
Q 1722 2469 1856 2413 
Q 1991 2344 2059 2228 
Q 2188 1984 2181 1594 
Q 2181 1434 2175 1266 
Q 2163 1094 2106 947 
Q 2053 800 1919 709 
Q 1778 616 1544 616 
Q 997 622 891 1147 
L 238 1147 
Q 331 519 722 238 
Q 1106 -38 1569 -38 
Q 1913 -31 2163 122 
Q 2419 269 2553 447 
Q 2706 628 2772 863 
Q 2834 1100 2834 1544 
Q 2834 1831 2816 2028 
Q 2797 2222 2753 2356 
Q 2669 2603 2478 2791 
Q 2350 2931 2144 3028 
Q 1925 3116 1663 3122 
Q 1253 3122 934 2872 
L 934 2872 
L 934 3903 
L 2747 3903 
L 2747 4556 
L 319 4556 
L 319 2094 
z
" transform="scale(0.015625)"/>
      <path id="DINAlternate-Bold-2e" d="M 441 0 
L 1094 0 
L 1094 653 
L 441 653 
L 441 0 
z
" transform="scale(0.015625)"/>
      <path id="DINAlternate-Bold-36" d="M 2375 4603 
Q 2378 4603 2345 4536 
Q 2313 4469 2256 4353 
Q 2200 4238 2125 4088 
Q 2050 3938 1967 3772 
Q 1884 3606 1798 3437 
Q 1713 3269 1633 3116 
Q 1553 2963 1487 2838 
Q 1422 2713 1378 2638 
Q 1469 2691 1583 2702 
Q 1697 2713 1847 2706 
Q 2063 2700 2223 2631 
Q 2384 2563 2500 2459 
Q 2616 2356 2692 2229 
Q 2769 2103 2812 1983 
Q 2856 1863 2873 1758 
Q 2891 1653 2891 1594 
Q 2891 1575 2891 1525 
Q 2891 1475 2891 1414 
Q 2891 1353 2889 1290 
Q 2888 1228 2884 1184 
Q 2881 1163 2864 1070 
Q 2847 978 2801 851 
Q 2756 725 2672 579 
Q 2588 434 2450 304 
Q 2313 175 2116 81 
Q 1919 -13 1647 -34 
Q 1363 -59 1144 3 
Q 925 66 765 181 
Q 606 297 500 448 
Q 394 600 333 759 
Q 272 919 251 1066 
Q 231 1213 244 1316 
Q 263 1469 284 1589 
Q 306 1709 336 1818 
Q 366 1928 403 2034 
Q 441 2141 491 2266 
Q 503 2297 559 2414 
Q 616 2531 698 2703 
Q 781 2875 884 3081 
Q 988 3288 1091 3500 
Q 1334 3994 1638 4603 
L 2375 4603 
z
M 2244 1269 
Q 2244 1388 2234 1531 
Q 2225 1675 2164 1804 
Q 2103 1934 1965 2028 
Q 1828 2122 1575 2141 
Q 1456 2150 1359 2115 
Q 1263 2081 1188 2022 
Q 1113 1963 1058 1886 
Q 1003 1809 967 1734 
Q 931 1659 915 1595 
Q 900 1531 900 1497 
Q 900 1419 903 1323 
Q 906 1228 923 1133 
Q 941 1038 981 948 
Q 1022 859 1097 790 
Q 1172 722 1289 678 
Q 1406 634 1581 634 
Q 1722 631 1826 670 
Q 1931 709 2004 770 
Q 2078 831 2125 906 
Q 2172 981 2198 1053 
Q 2225 1125 2234 1183 
Q 2244 1241 2244 1269 
z
" transform="scale(0.015625)"/>
      <path id="DINAlternate-Bold-25" d="M 2156 984 
Q 2156 1300 2394 1300 
Q 2631 1300 2631 984 
L 2631 641 
Q 2631 325 2394 325 
Q 2156 325 2156 641 
L 2156 984 
z
M 1791 594 
Q 1797 263 1984 116 
Q 2156 -38 2394 -38 
Q 2638 -38 2816 116 
Q 2906 191 2950 313 
Q 2994 428 2994 594 
L 2994 1031 
Q 2988 1363 2816 1516 
Q 2638 1663 2394 1663 
Q 2156 1663 1984 1516 
Q 1797 1363 1791 1031 
L 1791 594 
z
M 325 3525 
Q 331 3194 519 3047 
Q 691 2894 928 2894 
Q 1172 2894 1350 3047 
Q 1441 3122 1484 3244 
Q 1528 3359 1528 3525 
L 1528 3963 
Q 1522 4294 1350 4447 
Q 1172 4594 928 4594 
Q 691 4594 519 4447 
Q 331 4294 325 3963 
L 325 3525 
z
M 691 3916 
Q 691 4231 928 4231 
Q 1166 4231 1166 3916 
L 1166 3572 
Q 1166 3256 928 3256 
Q 691 3256 691 3572 
L 691 3916 
z
M 372 0 
L 794 0 
L 2950 4556 
L 2528 4556 
L 372 0 
z
" transform="scale(0.015625)"/>
     </defs>
     <use xlink:href="#DINAlternate-Bold-35"/>
     <use xlink:href="#DINAlternate-Bold-35" transform="translate(47.998047 0)"/>
     <use xlink:href="#DINAlternate-Bold-2e" transform="translate(95.996094 0)"/>
     <use xlink:href="#DINAlternate-Bold-36" transform="translate(119.970703 0)"/>
     <use xlink:href="#DINAlternate-Bold-25" transform="translate(167.96875 0)"/>
    </g>
   </g>
   <g id="text_3">
    <!-- I've had drunk sex -->
    <g style="fill: #262626" transform="translate(459.147398 377.601273) scale(0.1 -0.1)">
     <defs>
      <path id="DINAlternate-Bold-27" d="M 519 3431 
L 1019 3431 
L 1019 4556 
L 519 4556 
L 519 3431 
z
" transform="scale(0.015625)"/>
      <path id="DINAlternate-Bold-6b" d="M 422 0 
L 1075 0 
L 1075 934 
L 1588 1516 
L 1588 1516 
L 2450 0 
L 3269 0 
L 1997 1978 
L 3116 3244 
L 2334 3244 
L 1088 1722 
L 1075 1722 
L 1075 4556 
L 422 4556 
L 422 0 
z
" transform="scale(0.015625)"/>
     </defs>
     <use xlink:href="#DINAlternate-Bold-49"/>
     <use xlink:href="#DINAlternate-Bold-27" transform="translate(25.78125 0)"/>
     <use xlink:href="#DINAlternate-Bold-76" transform="translate(49.755859 0)"/>
     <use xlink:href="#DINAlternate-Bold-65" transform="translate(93.515625 0)"/>
     <use xlink:href="#DINAlternate-Bold-20" transform="translate(143.515625 0)"/>
     <use xlink:href="#DINAlternate-Bold-68" transform="translate(167.490234 0)"/>
     <use xlink:href="#DINAlternate-Bold-61" transform="translate(221.201172 0)"/>
     <use xlink:href="#DINAlternate-Bold-64" transform="translate(271.201172 0)"/>
     <use xlink:href="#DINAlternate-Bold-20" transform="translate(323.105469 0)"/>
     <use xlink:href="#DINAlternate-Bold-64" transform="translate(347.080078 0)"/>
     <use xlink:href="#DINAlternate-Bold-72" transform="translate(398.984375 0)"/>
     <use xlink:href="#DINAlternate-Bold-75" transform="translate(436.650391 0)"/>
     <use xlink:href="#DINAlternate-Bold-6e" transform="translate(490.361328 0)"/>
     <use xlink:href="#DINAlternate-Bold-6b" transform="translate(544.072266 0)"/>
     <use xlink:href="#DINAlternate-Bold-20" transform="translate(595.976562 0)"/>
     <use xlink:href="#DINAlternate-Bold-73" transform="translate(619.951172 0)"/>
     <use xlink:href="#DINAlternate-Bold-65" transform="translate(667.949219 0)"/>
     <use xlink:href="#DINAlternate-Bold-78" transform="translate(717.949219 0)"/>
    </g>
   </g>
   <g id="text_4">
    <!-- 24.7% -->
    <g style="fill: #ffffff" transform="translate(423.968723 366.036859) scale(0.1 -0.1)">
     <defs>
      <path id="DINAlternate-Bold-32" d="M 206 0 
L 2803 0 
L 2803 653 
L 1063 653 
L 2528 2491 
Q 2803 2841 2803 3291 
Q 2797 3853 2425 4219 
Q 2059 4588 1472 4594 
Q 947 4588 588 4225 
Q 231 3853 206 3284 
L 856 3284 
Q 891 3597 1075 3769 
Q 1253 3941 1522 3941 
Q 1825 3934 1991 3744 
Q 2150 3553 2150 3297 
Q 2150 3200 2125 3091 
Q 2088 2975 1984 2841 
L 206 616 
L 206 0 
z
" transform="scale(0.015625)"/>
      <path id="DINAlternate-Bold-34" d="M 78 678 
L 1978 678 
L 1978 0 
L 2631 0 
L 2631 678 
L 2994 678 
L 2994 1294 
L 2631 1294 
L 2631 2603 
L 1978 2603 
L 1978 1294 
L 788 1294 
L 2328 4556 
L 1600 4556 
L 78 1294 
L 78 678 
z
" transform="scale(0.015625)"/>
      <path id="DINAlternate-Bold-37" d="M 325 3244 
L 978 3244 
L 978 3903 
L 2188 3903 
L 647 0 
L 1375 0 
L 2919 3903 
L 2919 4556 
L 325 4556 
L 325 3244 
z
" transform="scale(0.015625)"/>
     </defs>
     <use xlink:href="#DINAlternate-Bold-32"/>
     <use xlink:href="#DINAlternate-Bold-34" transform="translate(47.998047 0)"/>
     <use xlink:href="#DINAlternate-Bold-2e" transform="translate(95.996094 0)"/>
     <use xlink:href="#DINAlternate-Bold-37" transform="translate(119.970703 0)"/>
     <use xlink:href="#DINAlternate-Bold-25" transform="translate(167.96875 0)"/>
    </g>
   </g>
   <g id="text_5">
    <!-- I've had drunk sex,I've had chem sex -->
    <g style="fill: #262626" transform="translate(418.013908 168.157217) scale(0.1 -0.1)">
     <defs>
      <path id="DINAlternate-Bold-2c" d="M 441 -475 
L 441 -475 
L 1094 0 
L 1094 653 
L 441 653 
L 441 -475 
z
" transform="scale(0.015625)"/>
      <path id="DINAlternate-Bold-63" d="M 2328 953 
L 2328 953 
Q 2081 622 1669 616 
Q 838 600 825 1619 
Q 838 2644 1669 2631 
Q 2081 2619 2328 2291 
L 2328 2291 
L 2809 2719 
Q 2597 2975 2309 3128 
Q 2022 3278 1644 3284 
Q 1069 3291 634 2900 
Q 184 2503 172 1619 
Q 184 744 634 353 
Q 1069 -38 1644 -38 
Q 2022 -31 2309 128 
Q 2597 281 2809 525 
L 2328 953 
z
" transform="scale(0.015625)"/>
      <path id="DINAlternate-Bold-6d" d="M 459 0 
L 1113 0 
L 1113 1931 
Q 1113 2272 1300 2450 
Q 1478 2631 1759 2631 
Q 2041 2631 2222 2450 
Q 2400 2272 2400 1931 
L 2400 0 
L 3053 0 
L 3053 1931 
Q 3053 2272 3238 2450 
Q 3419 2631 3700 2631 
Q 3981 2631 4159 2450 
Q 4338 2272 4338 1931 
L 4338 0 
L 4991 0 
L 4991 2156 
Q 4978 2713 4647 3000 
Q 4313 3284 3909 3284 
Q 3269 3291 2888 2859 
L 2888 2859 
Q 2719 3047 2516 3169 
Q 2309 3278 1972 3284 
Q 1447 3284 1125 2900 
L 1113 2900 
L 1113 3244 
L 459 3244 
L 459 0 
z
" transform="scale(0.015625)"/>
     </defs>
     <use xlink:href="#DINAlternate-Bold-49"/>
     <use xlink:href="#DINAlternate-Bold-27" transform="translate(25.78125 0)"/>
     <use xlink:href="#DINAlternate-Bold-76" transform="translate(49.755859 0)"/>
     <use xlink:href="#DINAlternate-Bold-65" transform="translate(93.515625 0)"/>
     <use xlink:href="#DINAlternate-Bold-20" transform="translate(143.515625 0)"/>
     <use xlink:href="#DINAlternate-Bold-68" transform="translate(167.490234 0)"/>
     <use xlink:href="#DINAlternate-Bold-61" transform="translate(221.201172 0)"/>
     <use xlink:href="#DINAlternate-Bold-64" transform="translate(271.201172 0)"/>
     <use xlink:href="#DINAlternate-Bold-20" transform="translate(323.105469 0)"/>
     <use xlink:href="#DINAlternate-Bold-64" transform="translate(347.080078 0)"/>
     <use xlink:href="#DINAlternate-Bold-72" transform="translate(398.984375 0)"/>
     <use xlink:href="#DINAlternate-Bold-75" transform="translate(436.650391 0)"/>
     <use xlink:href="#DINAlternate-Bold-6e" transform="translate(490.361328 0)"/>
     <use xlink:href="#DINAlternate-Bold-6b" transform="translate(544.072266 0)"/>
     <use xlink:href="#DINAlternate-Bold-20" transform="translate(595.976562 0)"/>
     <use xlink:href="#DINAlternate-Bold-73" transform="translate(619.951172 0)"/>
     <use xlink:href="#DINAlternate-Bold-65" transform="translate(667.949219 0)"/>
     <use xlink:href="#DINAlternate-Bold-78" transform="translate(717.949219 0)"/>
     <use xlink:href="#DINAlternate-Bold-2c" transform="translate(765.947266 0)"/>
     <use xlink:href="#DINAlternate-Bold-49" transform="translate(789.921875 0)"/>
     <use xlink:href="#DINAlternate-Bold-27" transform="translate(815.703125 0)"/>
     <use xlink:href="#DINAlternate-Bold-76" transform="translate(839.677734 0)"/>
     <use xlink:href="#DINAlternate-Bold-65" transform="translate(883.4375 0)"/>
     <use xlink:href="#DINAlternate-Bold-20" transform="translate(933.4375 0)"/>
     <use xlink:href="#DINAlternate-Bold-68" transform="translate(957.412109 0)"/>
     <use xlink:href="#DINAlternate-Bold-61" transform="translate(1011.123047 0)"/>
     <use xlink:href="#DINAlternate-Bold-64" transform="translate(1061.123047 0)"/>
     <use xlink:href="#DINAlternate-Bold-20" transform="translate(1113.027344 0)"/>
     <use xlink:href="#DINAlternate-Bold-63" transform="translate(1137.001953 0)"/>
     <use xlink:href="#DINAlternate-Bold-68" transform="translate(1181.386719 0)"/>
     <use xlink:href="#DINAlternate-Bold-65" transform="translate(1235.097656 0)"/>
     <use xlink:href="#DINAlternate-Bold-6d" transform="translate(1285.097656 0)"/>
     <use xlink:href="#DINAlternate-Bold-20" transform="translate(1370.302734 0)"/>
     <use xlink:href="#DINAlternate-Bold-73" transform="translate(1394.277344 0)"/>
     <use xlink:href="#DINAlternate-Bold-65" transform="translate(1442.275391 0)"/>
     <use xlink:href="#DINAlternate-Bold-78" transform="translate(1492.275391 0)"/>
    </g>
   </g>
   <g id="text_6">
    <!-- 16.0% -->
    <g style="fill: #ffffff" transform="translate(389.005256 188.009411) scale(0.1 -0.1)">
     <defs>
      <path id="DINAlternate-Bold-31" d="M 1241 3866 
L 1241 0 
L 1894 0 
L 1894 4556 
L 1241 4556 
L 594 4084 
L 594 3391 
L 594 3391 
L 1241 3866 
L 1241 3866 
z
" transform="scale(0.015625)"/>
      <path id="DINAlternate-Bold-30" d="M 2175 1313 
Q 2156 622 1534 616 
Q 909 622 897 1313 
L 897 3244 
Q 909 3928 1534 3941 
Q 2156 3928 2175 3244 
L 2175 1313 
z
M 244 1275 
Q 250 647 647 306 
Q 1019 -31 1534 -38 
Q 2066 -31 2438 306 
Q 2816 647 2828 1275 
L 2828 3284 
Q 2816 3916 2438 4256 
Q 2066 4594 1534 4594 
Q 1019 4594 647 4256 
Q 250 3916 244 3284 
L 244 1275 
z
" transform="scale(0.015625)"/>
     </defs>
     <use xlink:href="#DINAlternate-Bold-31"/>
     <use xlink:href="#DINAlternate-Bold-36" transform="translate(47.998047 0)"/>
     <use xlink:href="#DINAlternate-Bold-2e" transform="translate(95.996094 0)"/>
     <use xlink:href="#DINAlternate-Bold-30" transform="translate(119.970703 0)"/>
     <use xlink:href="#DINAlternate-Bold-25" transform="translate(167.96875 0)"/>
    </g>
   </g>
   <g id="text_7">
    <!-- I've had drunk sex,I have not had sex on drugs -->
    <g style="fill: #262626" transform="translate(325.529675 123.905491) scale(0.1 -0.1)">
     <use xlink:href="#DINAlternate-Bold-49"/>
     <use xlink:href="#DINAlternate-Bold-27" transform="translate(25.78125 0)"/>
     <use xlink:href="#DINAlternate-Bold-76" transform="translate(49.755859 0)"/>
     <use xlink:href="#DINAlternate-Bold-65" transform="translate(93.515625 0)"/>
     <use xlink:href="#DINAlternate-Bold-20" transform="translate(143.515625 0)"/>
     <use xlink:href="#DINAlternate-Bold-68" transform="translate(167.490234 0)"/>
     <use xlink:href="#DINAlternate-Bold-61" transform="translate(221.201172 0)"/>
     <use xlink:href="#DINAlternate-Bold-64" transform="translate(271.201172 0)"/>
     <use xlink:href="#DINAlternate-Bold-20" transform="translate(323.105469 0)"/>
     <use xlink:href="#DINAlternate-Bold-64" transform="translate(347.080078 0)"/>
     <use xlink:href="#DINAlternate-Bold-72" transform="translate(398.984375 0)"/>
     <use xlink:href="#DINAlternate-Bold-75" transform="translate(436.650391 0)"/>
     <use xlink:href="#DINAlternate-Bold-6e" transform="translate(490.361328 0)"/>
     <use xlink:href="#DINAlternate-Bold-6b" transform="translate(544.072266 0)"/>
     <use xlink:href="#DINAlternate-Bold-20" transform="translate(595.976562 0)"/>
     <use xlink:href="#DINAlternate-Bold-73" transform="translate(619.951172 0)"/>
     <use xlink:href="#DINAlternate-Bold-65" transform="translate(667.949219 0)"/>
     <use xlink:href="#DINAlternate-Bold-78" transform="translate(717.949219 0)"/>
     <use xlink:href="#DINAlternate-Bold-2c" transform="translate(765.947266 0)"/>
     <use xlink:href="#DINAlternate-Bold-49" transform="translate(789.921875 0)"/>
     <use xlink:href="#DINAlternate-Bold-20" transform="translate(815.703125 0)"/>
     <use xlink:href="#DINAlternate-Bold-68" transform="translate(839.677734 0)"/>
     <use xlink:href="#DINAlternate-Bold-61" transform="translate(893.388672 0)"/>
     <use xlink:href="#DINAlternate-Bold-76" transform="translate(943.388672 0)"/>
     <use xlink:href="#DINAlternate-Bold-65" transform="translate(987.148438 0)"/>
     <use xlink:href="#DINAlternate-Bold-20" transform="translate(1037.148438 0)"/>
     <use xlink:href="#DINAlternate-Bold-6e" transform="translate(1061.123047 0)"/>
     <use xlink:href="#DINAlternate-Bold-6f" transform="translate(1114.833984 0)"/>
     <use xlink:href="#DINAlternate-Bold-74" transform="translate(1164.833984 0)"/>
     <use xlink:href="#DINAlternate-Bold-20" transform="translate(1192.617188 0)"/>
     <use xlink:href="#DINAlternate-Bold-68" transform="translate(1216.591797 0)"/>
     <use xlink:href="#DINAlternate-Bold-61" transform="translate(1270.302734 0)"/>
     <use xlink:href="#DINAlternate-Bold-64" transform="translate(1320.302734 0)"/>
     <use xlink:href="#DINAlternate-Bold-20" transform="translate(1372.207031 0)"/>
     <use xlink:href="#DINAlternate-Bold-73" transform="translate(1396.181641 0)"/>
     <use xlink:href="#DINAlternate-Bold-65" transform="translate(1444.179688 0)"/>
     <use xlink:href="#DINAlternate-Bold-78" transform="translate(1494.179688 0)"/>
     <use xlink:href="#DINAlternate-Bold-20" transform="translate(1542.177734 0)"/>
     <use xlink:href="#DINAlternate-Bold-6f" transform="translate(1566.152344 0)"/>
     <use xlink:href="#DINAlternate-Bold-6e" transform="translate(1616.152344 0)"/>
     <use xlink:href="#DINAlternate-Bold-20" transform="translate(1669.863281 0)"/>
     <use xlink:href="#DINAlternate-Bold-64" transform="translate(1693.837891 0)"/>
     <use xlink:href="#DINAlternate-Bold-72" transform="translate(1745.742188 0)"/>
     <use xlink:href="#DINAlternate-Bold-75" transform="translate(1783.408203 0)"/>
     <use xlink:href="#DINAlternate-Bold-67" transform="translate(1837.119141 0)"/>
     <use xlink:href="#DINAlternate-Bold-73" transform="translate(1889.023438 0)"/>
    </g>
   </g>
   <g id="text_8">
    <!-- 2.5% -->
    <g style="fill: #ffffff" transform="translate(312.793658 150.420014) scale(0.1 -0.1)">
     <use xlink:href="#DINAlternate-Bold-32"/>
     <use xlink:href="#DINAlternate-Bold-2e" transform="translate(47.998047 0)"/>
     <use xlink:href="#DINAlternate-Bold-35" transform="translate(71.972656 0)"/>
     <use xlink:href="#DINAlternate-Bold-25" transform="translate(119.970703 0)"/>
    </g>
   </g>
   <g id="text_9">
    <!-- I've had chem sex -->
    <g style="fill: #262626" transform="translate(304.844396 121.922389) scale(0.1 -0.1)">
     <use xlink:href="#DINAlternate-Bold-49"/>
     <use xlink:href="#DINAlternate-Bold-27" transform="translate(25.78125 0)"/>
     <use xlink:href="#DINAlternate-Bold-76" transform="translate(49.755859 0)"/>
     <use xlink:href="#DINAlternate-Bold-65" transform="translate(93.515625 0)"/>
     <use xlink:href="#DINAlternate-Bold-20" transform="translate(143.515625 0)"/>
     <use xlink:href="#DINAlternate-Bold-68" transform="translate(167.490234 0)"/>
     <use xlink:href="#DINAlternate-Bold-61" transform="translate(221.201172 0)"/>
     <use xlink:href="#DINAlternate-Bold-64" transform="translate(271.201172 0)"/>
     <use xlink:href="#DINAlternate-Bold-20" transform="translate(323.105469 0)"/>
     <use xlink:href="#DINAlternate-Bold-63" transform="translate(347.080078 0)"/>
     <use xlink:href="#DINAlternate-Bold-68" transform="translate(391.464844 0)"/>
     <use xlink:href="#DINAlternate-Bold-65" transform="translate(445.175781 0)"/>
     <use xlink:href="#DINAlternate-Bold-6d" transform="translate(495.175781 0)"/>
     <use xlink:href="#DINAlternate-Bold-20" transform="translate(580.380859 0)"/>
     <use xlink:href="#DINAlternate-Bold-73" transform="translate(604.355469 0)"/>
     <use xlink:href="#DINAlternate-Bold-65" transform="translate(652.353516 0)"/>
     <use xlink:href="#DINAlternate-Bold-78" transform="translate(702.353516 0)"/>
    </g>
   </g>
   <g id="text_10">
    <!-- 1.2% -->
    <g style="fill: #ffffff" transform="translate(295.211171 148.709807) scale(0.1 -0.1)">
     <use xlink:href="#DINAlternate-Bold-31"/>
     <use xlink:href="#DINAlternate-Bold-2e" transform="translate(47.998047 0)"/>
     <use xlink:href="#DINAlternate-Bold-32" transform="translate(71.972656 0)"/>
     <use xlink:href="#DINAlternate-Bold-25" transform="translate(119.970703 0)"/>
    </g>
   </g>
   <g id="text_11">
    <g id="patch_7">
     <path d="M 424.262457 551.653963 
L 486.63527 551.653963 
Q 489.33527 551.653963 489.33527 548.953962 
L 489.33527 540.700681 
Q 489.33527 538.000681 486.63527 538.000681 
L 424.262457 538.000681 
Q 421.562457 538.000681 421.562457 540.700681 
L 421.562457 548.953962 
Q 421.562457 551.653963 424.262457 551.653963 
z
" style="fill: #d3d3d3; opacity: 0.8; stroke: #808080; stroke-linejoin: miter"/>
    </g>
    <!-- Non-null: 81/388 -->
    <g style="fill: #808080" transform="translate(424.262457 547.107556) scale(0.09 -0.09)">
     <defs>
      <path id="DINAlternate-Bold-4e" d="M 481 0 
L 1172 0 
L 1172 3238 
L 1184 3238 
L 3244 0 
L 3897 0 
L 3897 4556 
L 3206 4556 
L 3206 1319 
L 3194 1319 
L 1131 4556 
L 481 4556 
L 481 0 
z
" transform="scale(0.015625)"/>
      <path id="DINAlternate-Bold-2d" d="M 341 1447 
L 2266 1447 
L 2266 2100 
L 341 2100 
L 341 1447 
z
" transform="scale(0.015625)"/>
      <path id="DINAlternate-Bold-6c" d="M 422 788 
Q 422 359 666 178 
Q 897 0 1253 0 
L 1544 0 
L 1544 616 
L 1319 616 
Q 1075 616 1075 838 
L 1075 4556 
L 422 4556 
L 422 788 
z
" transform="scale(0.015625)"/>
      <path id="DINAlternate-Bold-3a" d="M 441 1453 
L 1094 1453 
L 1094 2106 
L 441 2106 
L 441 1453 
z
M 441 0 
L 1094 0 
L 1094 653 
L 441 653 
L 441 0 
z
" transform="scale(0.015625)"/>
      <path id="DINAlternate-Bold-38" d="M 884 3291 
Q 891 3616 1088 3781 
Q 1281 3941 1534 3941 
Q 1797 3941 1991 3781 
Q 2181 3616 2188 3291 
Q 2181 2975 1991 2809 
Q 1797 2638 1534 2638 
Q 1281 2638 1088 2809 
Q 891 2975 884 3291 
L 884 3291 
z
M 147 1331 
Q 153 716 563 347 
Q 953 -31 1534 -38 
Q 2119 -31 2522 347 
Q 2919 716 2925 1331 
Q 2919 1991 2388 2356 
Q 2591 2534 2719 2766 
Q 2841 2981 2841 3278 
Q 2834 3847 2469 4219 
Q 2106 4588 1534 4594 
Q 972 4588 616 4219 
Q 238 3847 231 3278 
Q 231 2981 366 2766 
Q 481 2534 684 2356 
Q 153 1991 147 1331 
L 147 1331 
z
M 800 1338 
Q 806 1656 1025 1856 
Q 1234 2053 1534 2059 
Q 1844 2053 2053 1856 
Q 2266 1656 2272 1338 
Q 2266 1025 2053 825 
Q 1844 616 1534 616 
Q 1234 616 1025 825 
Q 806 1025 800 1338 
L 800 1338 
z
" transform="scale(0.015625)"/>
      <path id="DINAlternate-Bold-2f" d="M 50 -38 
L 550 -38 
L 2081 4594 
L 1581 4594 
L 50 -38 
z
" transform="scale(0.015625)"/>
      <path id="DINAlternate-Bold-33" d="M 1125 2059 
L 1400 2059 
Q 1703 2059 1900 1875 
Q 2100 1684 2106 1338 
Q 2100 997 1900 813 
Q 1703 616 1416 616 
Q 1147 616 984 763 
Q 825 903 738 1131 
L 84 1131 
Q 191 563 550 263 
Q 909 -38 1375 -38 
Q 1978 -31 2363 347 
Q 2753 716 2759 1356 
Q 2759 1644 2638 1906 
Q 2509 2169 2222 2356 
Q 2503 2547 2613 2791 
Q 2706 3034 2706 3297 
Q 2700 3816 2350 4197 
Q 1984 4588 1363 4594 
Q 872 4588 519 4244 
Q 159 3897 109 3391 
L 763 3391 
Q 825 3672 1006 3806 
Q 1178 3941 1388 3941 
Q 1678 3934 1863 3756 
Q 2047 3572 2053 3284 
Q 2053 3000 1869 2822 
Q 1684 2638 1350 2638 
L 1125 2638 
L 1125 2059 
z
" transform="scale(0.015625)"/>
     </defs>
     <use xlink:href="#DINAlternate-Bold-4e"/>
     <use xlink:href="#DINAlternate-Bold-6f" transform="translate(68.408203 0)"/>
     <use xlink:href="#DINAlternate-Bold-6e" transform="translate(118.408203 0)"/>
     <use xlink:href="#DINAlternate-Bold-2d" transform="translate(172.119141 0)"/>
     <use xlink:href="#DINAlternate-Bold-6e" transform="translate(212.792969 0)"/>
     <use xlink:href="#DINAlternate-Bold-75" transform="translate(266.503906 0)"/>
     <use xlink:href="#DINAlternate-Bold-6c" transform="translate(320.214844 0)"/>
     <use xlink:href="#DINAlternate-Bold-6c" transform="translate(345.996094 0)"/>
     <use xlink:href="#DINAlternate-Bold-3a" transform="translate(371.777344 0)"/>
     <use xlink:href="#DINAlternate-Bold-20" transform="translate(395.751953 0)"/>
     <use xlink:href="#DINAlternate-Bold-38" transform="translate(419.726562 0)"/>
     <use xlink:href="#DINAlternate-Bold-31" transform="translate(467.724609 0)"/>
     <use xlink:href="#DINAlternate-Bold-2f" transform="translate(515.722656 0)"/>
     <use xlink:href="#DINAlternate-Bold-33" transform="translate(549.023438 0)"/>
     <use xlink:href="#DINAlternate-Bold-38" transform="translate(597.021484 0)"/>
     <use xlink:href="#DINAlternate-Bold-38" transform="translate(645.019531 0)"/>
    </g>
   </g>
   <g id="text_12">
    <!-- Sex on drugs -->
    <g style="fill: #262626" transform="translate(262.147139 16.531562) scale(0.13 -0.13)">
     <defs>
      <path id="DINAlternate-Bold-53" d="M 538 1106 
L 84 588 
Q 813 -38 1825 -38 
Q 3391 -19 3425 1288 
Q 3425 1772 3122 2138 
Q 2816 2509 2175 2597 
Q 1850 2638 1663 2669 
Q 1325 2731 1172 2894 
Q 1019 3053 1019 3250 
Q 1025 3578 1247 3744 
Q 1459 3903 1778 3903 
Q 2394 3891 2906 3553 
L 2906 3553 
L 3291 4122 
Q 2663 4575 1813 4594 
Q 1106 4588 722 4225 
Q 325 3859 325 3263 
Q 325 2766 641 2419 
Q 947 2081 1534 1984 
Q 1863 1938 2138 1900 
Q 2738 1797 2731 1288 
Q 2719 666 1831 653 
Q 1081 659 538 1106 
L 538 1106 
z
" transform="scale(0.015625)"/>
     </defs>
     <use xlink:href="#DINAlternate-Bold-53"/>
     <use xlink:href="#DINAlternate-Bold-65" transform="translate(57.373047 0)"/>
     <use xlink:href="#DINAlternate-Bold-78" transform="translate(107.373047 0)"/>
     <use xlink:href="#DINAlternate-Bold-20" transform="translate(155.371094 0)"/>
     <use xlink:href="#DINAlternate-Bold-6f" transform="translate(179.345703 0)"/>
     <use xlink:href="#DINAlternate-Bold-6e" transform="translate(229.345703 0)"/>
     <use xlink:href="#DINAlternate-Bold-20" transform="translate(283.056641 0)"/>
     <use xlink:href="#DINAlternate-Bold-64" transform="translate(307.03125 0)"/>
     <use xlink:href="#DINAlternate-Bold-72" transform="translate(358.935547 0)"/>
     <use xlink:href="#DINAlternate-Bold-75" transform="translate(396.601562 0)"/>
     <use xlink:href="#DINAlternate-Bold-67" transform="translate(450.3125 0)"/>
     <use xlink:href="#DINAlternate-Bold-73" transform="translate(502.216797 0)"/>
    </g>
   </g>
  </g>
 </g>
</svg>
