<?xml version="1.0" encoding="utf-8" standalone="no"?>
<!DOCTYPE svg PUBLIC "-//W3C//DTD SVG 1.1//EN"
  "http://www.w3.org/Graphics/SVG/1.1/DTD/svg11.dtd">
<svg xmlns:xlink="http://www.w3.org/1999/xlink" width="710.505937pt" height="422.789219pt" viewBox="0 0 710.505937 422.789219" xmlns="http://www.w3.org/2000/svg" version="1.1">
 <metadata>
  <rdf:RDF xmlns:dc="http://purl.org/dc/elements/1.1/" xmlns:cc="http://creativecommons.org/ns#" xmlns:rdf="http://www.w3.org/1999/02/22-rdf-syntax-ns#">
   <cc:Work>
    <dc:type rdf:resource="http://purl.org/dc/dcmitype/StillImage"/>
    <dc:date>2025-09-19T17:43:01.224729</dc:date>
    <dc:format>image/svg+xml</dc:format>
    <dc:creator>
     <cc:Agent>
      <dc:title>Matplotlib v3.10.3, https://matplotlib.org/</dc:title>
     </cc:Agent>
    </dc:creator>
   </cc:Work>
  </rdf:RDF>
 </metadata>
 <defs>
  <style type="text/css">*{stroke-linejoin: round; stroke-linecap: butt}</style>
 </defs>
 <g id="figure_1">
  <g id="patch_1">
   <path d="M 0 422.789219 
L 710.505937 422.789219 
L 710.505937 0 
L 0 0 
z
" style="fill: #ffffff"/>
  </g>
  <g id="axes_1">
   <g id="patch_2">
    <path d="M 175.700938 385.331562 
L 703.305938 385.331562 
L 703.305938 36.531562 
L 175.700938 36.531562 
z
" style="fill: #ffffff"/>
   </g>
   <g id="matplotlib.axis_1">
    <g id="xtick_1">
     <g id="text_1">
      <!-- 0 -->
      <g style="fill: #262626" transform="translate(173.300938 399.450312) scale(0.1 -0.1)">
       <defs>
        <path id="DINAlternate-Bold-30" d="M 2175 1313 
Q 2156 622 1534 616 
Q 909 622 897 1313 
L 897 3244 
Q 909 3928 1534 3941 
Q 2156 3928 2175 3244 
L 2175 1313 
z
M 244 1275 
Q 250 647 647 306 
Q 1019 -31 1534 -38 
Q 2066 -31 2438 306 
Q 2816 647 2828 1275 
L 2828 3284 
Q 2816 3916 2438 4256 
Q 2066 4594 1534 4594 
Q 1019 4594 647 4256 
Q 250 3916 244 3284 
L 244 1275 
z
" transform="scale(0.015625)"/>
       </defs>
       <use xlink:href="#DINAlternate-Bold-30"/>
      </g>
     </g>
    </g>
    <g id="xtick_2">
     <g id="text_2">
      <!-- 5 -->
      <g style="fill: #262626" transform="translate(273.797128 399.450312) scale(0.1 -0.1)">
       <defs>
        <path id="DINAlternate-Bold-35" d="M 319 2094 
L 934 2094 
Q 1050 2303 1197 2388 
Q 1344 2469 1522 2469 
Q 1722 2469 1856 2413 
Q 1991 2344 2059 2228 
Q 2188 1984 2181 1594 
Q 2181 1434 2175 1266 
Q 2163 1094 2106 947 
Q 2053 800 1919 709 
Q 1778 616 1544 616 
Q 997 622 891 1147 
L 238 1147 
Q 331 519 722 238 
Q 1106 -38 1569 -38 
Q 1913 -31 2163 122 
Q 2419 269 2553 447 
Q 2706 628 2772 863 
Q 2834 1100 2834 1544 
Q 2834 1831 2816 2028 
Q 2797 2222 2753 2356 
Q 2669 2603 2478 2791 
Q 2350 2931 2144 3028 
Q 1925 3116 1663 3122 
Q 1253 3122 934 2872 
L 934 2872 
L 934 3903 
L 2747 3903 
L 2747 4556 
L 319 4556 
L 319 2094 
z
" transform="scale(0.015625)"/>
       </defs>
       <use xlink:href="#DINAlternate-Bold-35"/>
      </g>
     </g>
    </g>
    <g id="xtick_3">
     <g id="text_3">
      <!-- 10 -->
      <g style="fill: #262626" transform="translate(371.893318 399.450312) scale(0.1 -0.1)">
       <defs>
        <path id="DINAlternate-Bold-31" d="M 1241 3866 
L 1241 0 
L 1894 0 
L 1894 4556 
L 1241 4556 
L 594 4084 
L 594 3391 
L 594 3391 
L 1241 3866 
L 1241 3866 
z
" transform="scale(0.015625)"/>
       </defs>
       <use xlink:href="#DINAlternate-Bold-31"/>
       <use xlink:href="#DINAlternate-Bold-30" transform="translate(47.998047 0)"/>
      </g>
     </g>
    </g>
    <g id="xtick_4">
     <g id="text_4">
      <!-- 15 -->
      <g style="fill: #262626" transform="translate(472.389509 399.450312) scale(0.1 -0.1)">
       <use xlink:href="#DINAlternate-Bold-31"/>
       <use xlink:href="#DINAlternate-Bold-35" transform="translate(47.998047 0)"/>
      </g>
     </g>
    </g>
    <g id="xtick_5">
     <g id="text_5">
      <!-- 20 -->
      <g style="fill: #262626" transform="translate(572.885699 399.450312) scale(0.1 -0.1)">
       <defs>
        <path id="DINAlternate-Bold-32" d="M 206 0 
L 2803 0 
L 2803 653 
L 1063 653 
L 2528 2491 
Q 2803 2841 2803 3291 
Q 2797 3853 2425 4219 
Q 2059 4588 1472 4594 
Q 947 4588 588 4225 
Q 231 3853 206 3284 
L 856 3284 
Q 891 3597 1075 3769 
Q 1253 3941 1522 3941 
Q 1825 3934 1991 3744 
Q 2150 3553 2150 3297 
Q 2150 3200 2125 3091 
Q 2088 2975 1984 2841 
L 206 616 
L 206 0 
z
" transform="scale(0.015625)"/>
       </defs>
       <use xlink:href="#DINAlternate-Bold-32"/>
       <use xlink:href="#DINAlternate-Bold-30" transform="translate(47.998047 0)"/>
      </g>
     </g>
    </g>
    <g id="xtick_6">
     <g id="text_6">
      <!-- 25 -->
      <g style="fill: #262626" transform="translate(673.38189 399.450312) scale(0.1 -0.1)">
       <use xlink:href="#DINAlternate-Bold-32"/>
       <use xlink:href="#DINAlternate-Bold-35" transform="translate(47.998047 0)"/>
      </g>
     </g>
    </g>
    <g id="text_7">
     <!-- Frequency -->
     <g style="fill: #262626" transform="translate(415.453828 413.3325) scale(0.11 -0.11)">
      <defs>
       <path id="DINAlternate-Bold-46" d="M 481 0 
L 1172 0 
L 1172 1947 
L 3066 1947 
L 3066 2559 
L 1172 2559 
L 1172 3903 
L 3391 3903 
L 3391 4556 
L 481 4556 
L 481 0 
z
" transform="scale(0.015625)"/>
       <path id="DINAlternate-Bold-72" d="M 422 0 
L 1075 0 
L 1075 1953 
Q 1081 2309 1281 2469 
Q 1459 2631 1709 2631 
Q 1931 2631 2138 2469 
L 2138 2469 
L 2613 3034 
Q 2322 3278 1931 3284 
Q 1409 3284 1088 2900 
L 1075 2900 
L 1075 3244 
L 422 3244 
L 422 0 
z
" transform="scale(0.015625)"/>
       <path id="DINAlternate-Bold-65" d="M 2938 1375 
L 2938 1913 
Q 2931 2553 2541 2919 
Q 2156 3278 1600 3284 
Q 1369 3284 1131 3200 
Q 891 3116 697 2925 
Q 506 2738 384 2413 
Q 263 2094 263 1613 
Q 263 1113 403 800 
Q 531 475 738 294 
Q 844 206 966 147 
Q 1081 78 1203 38 
Q 1447 -38 1703 -38 
Q 2375 -44 2872 488 
L 2400 891 
L 2400 891 
Q 2088 575 1691 575 
Q 1350 575 1141 781 
Q 916 984 916 1375 
L 2938 1375 
z
M 916 1913 
Q 934 2291 1119 2484 
Q 1306 2669 1600 2669 
Q 1894 2669 2081 2484 
Q 2272 2291 2284 1913 
L 916 1913 
z
" transform="scale(0.015625)"/>
       <path id="DINAlternate-Bold-71" d="M 2247 347 
L 2247 -1313 
L 2900 -1313 
L 2900 3244 
L 2247 3244 
L 2247 2906 
L 2247 2906 
Q 1925 3269 1409 3284 
Q 813 3269 538 2859 
Q 403 2706 359 2456 
Q 306 2209 306 1619 
Q 306 1044 359 794 
Q 403 544 538 384 
Q 684 197 903 84 
Q 1113 -31 1409 -38 
Q 1656 -38 1869 72 
Q 2066 172 2247 347 
L 2247 347 
z
M 1606 616 
Q 1375 616 1253 703 
Q 1119 794 1056 934 
Q 997 1081 978 1259 
Q 959 1434 959 1619 
Q 959 1813 978 1997 
Q 997 2181 1056 2322 
Q 1119 2469 1253 2553 
Q 1375 2631 1606 2631 
Q 1838 2631 1972 2541 
Q 2106 2450 2156 2303 
Q 2222 2156 2241 1984 
Q 2247 1803 2247 1619 
Q 2247 1447 2241 1275 
Q 2222 1094 2156 947 
Q 2106 800 1972 709 
Q 1838 616 1606 616 
L 1606 616 
z
" transform="scale(0.015625)"/>
       <path id="DINAlternate-Bold-75" d="M 422 1088 
Q 428 538 781 256 
Q 1106 -31 1509 -38 
Q 2028 -38 2350 347 
L 2363 347 
L 2363 0 
L 3016 0 
L 3016 3244 
L 2363 3244 
L 2363 1313 
Q 2363 984 2181 800 
Q 2003 616 1722 616 
Q 1441 616 1259 800 
Q 1075 984 1075 1313 
L 1075 3244 
L 422 3244 
L 422 1088 
z
" transform="scale(0.015625)"/>
       <path id="DINAlternate-Bold-6e" d="M 422 0 
L 1075 0 
L 1075 1931 
Q 1075 2272 1259 2450 
Q 1441 2631 1722 2631 
Q 2003 2631 2181 2450 
Q 2363 2272 2363 1931 
L 2363 0 
L 3016 0 
L 3016 2156 
Q 3000 2713 2669 3000 
Q 2334 3284 1931 3284 
Q 1409 3284 1088 2900 
L 1075 2900 
L 1075 3244 
L 422 3244 
L 422 0 
z
" transform="scale(0.015625)"/>
       <path id="DINAlternate-Bold-63" d="M 2328 953 
L 2328 953 
Q 2081 622 1669 616 
Q 838 600 825 1619 
Q 838 2644 1669 2631 
Q 2081 2619 2328 2291 
L 2328 2291 
L 2809 2719 
Q 2597 2975 2309 3128 
Q 2022 3278 1644 3284 
Q 1069 3291 634 2900 
Q 184 2503 172 1619 
Q 184 744 634 353 
Q 1069 -38 1644 -38 
Q 2022 -31 2309 128 
Q 2597 281 2809 525 
L 2328 953 
z
" transform="scale(0.015625)"/>
       <path id="DINAlternate-Bold-79" d="M 1119 128 
L 941 -416 
Q 897 -556 788 -628 
Q 678 -697 550 -697 
L 359 -697 
L 359 -1313 
L 575 -1313 
Q 878 -1313 1119 -1178 
Q 1356 -1038 1491 -672 
L 2888 3244 
L 2194 3244 
L 1428 972 
L 1416 972 
L 647 3244 
L -44 3244 
L 1119 128 
z
" transform="scale(0.015625)"/>
      </defs>
      <use xlink:href="#DINAlternate-Bold-46"/>
      <use xlink:href="#DINAlternate-Bold-72" transform="translate(51.960938 0)"/>
      <use xlink:href="#DINAlternate-Bold-65" transform="translate(89.126953 0)"/>
      <use xlink:href="#DINAlternate-Bold-71" transform="translate(139.126953 0)"/>
      <use xlink:href="#DINAlternate-Bold-75" transform="translate(191.03125 0)"/>
      <use xlink:href="#DINAlternate-Bold-65" transform="translate(244.742188 0)"/>
      <use xlink:href="#DINAlternate-Bold-6e" transform="translate(294.742188 0)"/>
      <use xlink:href="#DINAlternate-Bold-63" transform="translate(348.453125 0)"/>
      <use xlink:href="#DINAlternate-Bold-79" transform="translate(392.837891 0)"/>
     </g>
    </g>
   </g>
   <g id="matplotlib.axis_2">
    <g id="ytick_1">
     <g id="text_8">
      <!-- Marijuana -->
      <g style="fill: #262626" transform="translate(126.511875 48.810937) scale(0.1 -0.1)">
       <defs>
        <path id="DINAlternate-Bold-4d" d="M 481 0 
L 1172 0 
L 1172 2841 
L 1184 2841 
L 2138 653 
L 2713 653 
L 3666 2841 
L 3681 2841 
L 3681 0 
L 4372 0 
L 4372 4556 
L 3719 4556 
L 2438 1588 
L 2438 1588 
L 1131 4556 
L 481 4556 
L 481 0 
z
" transform="scale(0.015625)"/>
        <path id="DINAlternate-Bold-61" d="M 2125 0 
L 2778 0 
L 2778 2216 
Q 2772 2809 2406 3053 
Q 2041 3291 1428 3284 
Q 703 3297 331 2809 
L 844 2419 
L 844 2419 
Q 928 2559 1075 2619 
Q 1216 2669 1459 2669 
Q 2131 2681 2125 2253 
L 2125 1913 
L 1222 1913 
Q 703 1906 434 1631 
Q 166 1363 166 953 
Q 166 525 475 250 
Q 769 -31 1313 -38 
Q 1644 -38 1831 44 
Q 2022 122 2113 288 
L 2125 288 
L 2125 0 
z
M 2125 1141 
Q 2125 775 1972 672 
Q 1803 569 1394 575 
Q 1069 575 928 703 
Q 781 819 781 984 
Q 775 1363 1344 1375 
L 2125 1375 
L 2125 1141 
z
" transform="scale(0.015625)"/>
        <path id="DINAlternate-Bold-69" d="M 441 0 
L 1094 0 
L 1094 3244 
L 441 3244 
L 441 0 
z
M 441 3903 
L 1094 3903 
L 1094 4556 
L 441 4556 
L 441 3903 
z
" transform="scale(0.015625)"/>
        <path id="DINAlternate-Bold-6a" d="M 506 -353 
Q 500 -697 141 -697 
L -44 -697 
L -44 -1313 
L 213 -1313 
Q 634 -1306 897 -1056 
Q 1153 -813 1159 -403 
L 1159 3244 
L 506 3244 
L 506 -353 
z
M 506 3903 
L 1159 3903 
L 1159 4556 
L 506 4556 
L 506 3903 
z
" transform="scale(0.015625)"/>
       </defs>
       <use xlink:href="#DINAlternate-Bold-4d"/>
       <use xlink:href="#DINAlternate-Bold-61" transform="translate(75.78125 0)"/>
       <use xlink:href="#DINAlternate-Bold-72" transform="translate(125.78125 0)"/>
       <use xlink:href="#DINAlternate-Bold-69" transform="translate(164.697266 0)"/>
       <use xlink:href="#DINAlternate-Bold-6a" transform="translate(188.671875 0)"/>
       <use xlink:href="#DINAlternate-Bold-75" transform="translate(214.453125 0)"/>
       <use xlink:href="#DINAlternate-Bold-61" transform="translate(268.164062 0)"/>
       <use xlink:href="#DINAlternate-Bold-6e" transform="translate(318.164062 0)"/>
       <use xlink:href="#DINAlternate-Bold-61" transform="translate(371.875 0)"/>
      </g>
     </g>
    </g>
    <g id="ytick_2">
     <g id="text_9">
      <!-- Ketamine -->
      <g style="fill: #262626" transform="translate(128.335313 66.250937) scale(0.1 -0.1)">
       <defs>
        <path id="DINAlternate-Bold-4b" d="M 481 0 
L 1172 0 
L 1172 1388 
L 1972 2228 
L 1972 2228 
L 3213 0 
L 4031 0 
L 2419 2759 
L 3878 4556 
L 3059 4556 
L 1184 2209 
L 1172 2209 
L 1172 4556 
L 481 4556 
L 481 0 
z
" transform="scale(0.015625)"/>
        <path id="DINAlternate-Bold-74" d="M 459 3244 
L 134 3244 
L 134 2747 
L 459 2747 
L 459 800 
Q 459 416 684 213 
Q 903 0 1247 0 
L 1588 0 
L 1588 616 
L 1344 616 
Q 1106 609 1113 856 
L 1113 2747 
L 1588 2747 
L 1588 3244 
L 1113 3244 
L 1113 4231 
L 459 4231 
L 459 3244 
z
" transform="scale(0.015625)"/>
        <path id="DINAlternate-Bold-6d" d="M 459 0 
L 1113 0 
L 1113 1931 
Q 1113 2272 1300 2450 
Q 1478 2631 1759 2631 
Q 2041 2631 2222 2450 
Q 2400 2272 2400 1931 
L 2400 0 
L 3053 0 
L 3053 1931 
Q 3053 2272 3238 2450 
Q 3419 2631 3700 2631 
Q 3981 2631 4159 2450 
Q 4338 2272 4338 1931 
L 4338 0 
L 4991 0 
L 4991 2156 
Q 4978 2713 4647 3000 
Q 4313 3284 3909 3284 
Q 3269 3291 2888 2859 
L 2888 2859 
Q 2719 3047 2516 3169 
Q 2309 3278 1972 3284 
Q 1447 3284 1125 2900 
L 1113 2900 
L 1113 3244 
L 459 3244 
L 459 0 
z
" transform="scale(0.015625)"/>
       </defs>
       <use xlink:href="#DINAlternate-Bold-4b"/>
       <use xlink:href="#DINAlternate-Bold-65" transform="translate(62.988281 0)"/>
       <use xlink:href="#DINAlternate-Bold-74" transform="translate(112.988281 0)"/>
       <use xlink:href="#DINAlternate-Bold-61" transform="translate(140.771484 0)"/>
       <use xlink:href="#DINAlternate-Bold-6d" transform="translate(190.771484 0)"/>
       <use xlink:href="#DINAlternate-Bold-69" transform="translate(275.976562 0)"/>
       <use xlink:href="#DINAlternate-Bold-6e" transform="translate(299.951172 0)"/>
       <use xlink:href="#DINAlternate-Bold-65" transform="translate(353.662109 0)"/>
      </g>
     </g>
    </g>
    <g id="ytick_3">
     <g id="text_10">
      <!-- Cocaine (powder) -->
      <g style="fill: #262626" transform="translate(96.48375 83.720625) scale(0.1 -0.1)">
       <defs>
        <path id="DINAlternate-Bold-43" d="M 2822 1275 
Q 2534 653 1953 653 
Q 1709 653 1534 756 
Q 1356 844 1247 984 
Q 1113 1131 1069 1369 
Q 1019 1606 1019 2278 
Q 1019 2950 1069 3194 
Q 1113 3425 1247 3572 
Q 1356 3713 1534 3806 
Q 1709 3897 1953 3903 
Q 2284 3897 2516 3713 
Q 2738 3519 2822 3244 
L 3553 3244 
Q 3444 3816 3028 4203 
Q 2613 4588 1953 4594 
Q 1416 4588 1056 4338 
Q 691 4091 525 3775 
Q 422 3609 372 3341 
Q 325 3072 325 2278 
Q 325 1497 372 1222 
Q 397 1075 434 978 
Q 475 884 525 781 
Q 691 466 1056 225 
Q 1416 -25 1953 -38 
Q 2547 -38 2981 300 
Q 3403 641 3553 1275 
L 2822 1275 
z
" transform="scale(0.015625)"/>
        <path id="DINAlternate-Bold-6f" d="M 263 1625 
Q 263 1113 347 844 
Q 434 575 616 378 
Q 750 225 991 103 
Q 1228 -31 1600 -38 
Q 1984 -31 2222 103 
Q 2350 159 2431 238 
Q 2522 306 2584 378 
Q 2778 575 2859 844 
Q 2938 1113 2938 1625 
Q 2938 2138 2859 2413 
Q 2778 2681 2584 2866 
Q 2456 3028 2222 3156 
Q 1984 3278 1600 3284 
Q 1228 3278 991 3156 
Q 750 3028 616 2866 
Q 434 2681 347 2413 
Q 263 2138 263 1625 
L 263 1625 
z
M 2284 1619 
Q 2284 1288 2253 1131 
Q 2222 972 2125 850 
Q 2053 756 1913 684 
Q 1778 616 1600 616 
Q 1434 616 1294 684 
Q 1159 756 1075 850 
Q 991 972 953 1131 
Q 916 1288 916 1625 
Q 916 1966 953 2125 
Q 991 2278 1075 2394 
Q 1159 2503 1294 2566 
Q 1434 2631 1600 2631 
Q 1778 2631 1913 2566 
Q 2053 2503 2125 2394 
Q 2222 2278 2253 2125 
Q 2284 1966 2284 1619 
L 2284 1619 
z
" transform="scale(0.015625)"/>
        <path id="DINAlternate-Bold-20" transform="scale(0.015625)"/>
        <path id="DINAlternate-Bold-28" d="M 1650 -653 
Q 1044 556 1038 1953 
Q 1044 3347 1650 4556 
L 1394 4556 
Q 384 3353 384 1953 
Q 384 556 1394 -653 
L 1650 -653 
z
" transform="scale(0.015625)"/>
        <path id="DINAlternate-Bold-70" d="M 422 -1313 
L 1075 -1313 
L 1075 347 
L 1075 347 
Q 1253 172 1466 72 
Q 1663 -38 1913 -38 
Q 2216 -31 2431 84 
Q 2650 197 2784 384 
Q 2919 544 2969 794 
Q 3016 1044 3016 1619 
Q 3016 2209 2969 2456 
Q 2919 2706 2784 2859 
Q 2509 3269 1913 3284 
Q 1400 3269 1075 2906 
L 1075 2906 
L 1075 3244 
L 422 3244 
L 422 -1313 
z
M 1716 616 
Q 1497 616 1369 709 
Q 1234 800 1172 947 
Q 1113 1094 1094 1275 
Q 1075 1447 1075 1619 
Q 1075 1803 1094 1984 
Q 1113 2156 1172 2303 
Q 1234 2450 1369 2541 
Q 1497 2631 1716 2631 
Q 1947 2631 2081 2553 
Q 2216 2469 2272 2322 
Q 2334 2181 2356 1997 
Q 2363 1813 2363 1619 
Q 2363 1434 2356 1259 
Q 2334 1081 2272 934 
Q 2216 794 2081 703 
Q 1947 616 1716 616 
L 1716 616 
z
" transform="scale(0.015625)"/>
        <path id="DINAlternate-Bold-77" d="M 2994 0 
L 3572 0 
L 4606 3244 
L 3916 3244 
L 3297 972 
L 3284 972 
L 2547 3244 
L 2075 3244 
L 1338 972 
L 1325 972 
L 703 3244 
L 13 3244 
L 1050 0 
L 1625 0 
L 2303 2272 
L 2316 2272 
L 2994 0 
z
" transform="scale(0.015625)"/>
        <path id="DINAlternate-Bold-64" d="M 2363 341 
L 2363 0 
L 3016 0 
L 3016 4556 
L 2363 4556 
L 2363 2900 
L 2363 2900 
Q 2181 3072 1984 3181 
Q 1772 3284 1522 3284 
Q 928 3269 653 2859 
Q 519 2706 475 2456 
Q 422 2209 422 1625 
Q 422 1050 475 800 
Q 519 538 653 384 
Q 800 197 1019 84 
Q 1228 -31 1522 -38 
Q 2041 -25 2363 341 
L 2363 341 
z
M 1722 2631 
Q 1953 2631 2088 2541 
Q 2222 2450 2272 2303 
Q 2334 2156 2356 1984 
Q 2363 1813 2363 1625 
Q 2363 1453 2356 1275 
Q 2334 1094 2272 947 
Q 2222 800 2088 709 
Q 1953 616 1722 616 
Q 1491 616 1369 703 
Q 1234 794 1172 934 
Q 1113 1081 1094 1266 
Q 1075 1441 1075 1625 
Q 1075 1819 1094 2003 
Q 1113 2175 1172 2322 
Q 1234 2469 1369 2553 
Q 1491 2631 1722 2631 
L 1722 2631 
z
" transform="scale(0.015625)"/>
        <path id="DINAlternate-Bold-29" d="M 128 4556 
Q 728 3347 744 1953 
Q 728 556 128 -653 
L 384 -653 
Q 1394 556 1394 1953 
Q 1394 3353 384 4556 
L 128 4556 
z
" transform="scale(0.015625)"/>
       </defs>
       <use xlink:href="#DINAlternate-Bold-43"/>
       <use xlink:href="#DINAlternate-Bold-6f" transform="translate(55.615234 0)"/>
       <use xlink:href="#DINAlternate-Bold-63" transform="translate(105.615234 0)"/>
       <use xlink:href="#DINAlternate-Bold-61" transform="translate(150 0)"/>
       <use xlink:href="#DINAlternate-Bold-69" transform="translate(200 0)"/>
       <use xlink:href="#DINAlternate-Bold-6e" transform="translate(223.974609 0)"/>
       <use xlink:href="#DINAlternate-Bold-65" transform="translate(277.685547 0)"/>
       <use xlink:href="#DINAlternate-Bold-20" transform="translate(327.685547 0)"/>
       <use xlink:href="#DINAlternate-Bold-28" transform="translate(351.660156 0)"/>
       <use xlink:href="#DINAlternate-Bold-70" transform="translate(379.443359 0)"/>
       <use xlink:href="#DINAlternate-Bold-6f" transform="translate(431.347656 0)"/>
       <use xlink:href="#DINAlternate-Bold-77" transform="translate(481.347656 0)"/>
       <use xlink:href="#DINAlternate-Bold-64" transform="translate(553.564453 0)"/>
       <use xlink:href="#DINAlternate-Bold-65" transform="translate(605.46875 0)"/>
       <use xlink:href="#DINAlternate-Bold-72" transform="translate(655.46875 0)"/>
       <use xlink:href="#DINAlternate-Bold-29" transform="translate(694.384766 0)"/>
      </g>
     </g>
    </g>
    <g id="ytick_4">
     <g id="text_11">
      <!-- Smart Drugs (Adderall/Ritalin/ etc.) -->
      <g style="fill: #262626" transform="translate(21.350938 101.160625) scale(0.1 -0.1)">
       <defs>
        <path id="DINAlternate-Bold-53" d="M 538 1106 
L 84 588 
Q 813 -38 1825 -38 
Q 3391 -19 3425 1288 
Q 3425 1772 3122 2138 
Q 2816 2509 2175 2597 
Q 1850 2638 1663 2669 
Q 1325 2731 1172 2894 
Q 1019 3053 1019 3250 
Q 1025 3578 1247 3744 
Q 1459 3903 1778 3903 
Q 2394 3891 2906 3553 
L 2906 3553 
L 3291 4122 
Q 2663 4575 1813 4594 
Q 1106 4588 722 4225 
Q 325 3859 325 3263 
Q 325 2766 641 2419 
Q 947 2081 1534 1984 
Q 1863 1938 2138 1900 
Q 2738 1797 2731 1288 
Q 2719 666 1831 653 
Q 1081 659 538 1106 
L 538 1106 
z
" transform="scale(0.015625)"/>
        <path id="DINAlternate-Bold-44" d="M 481 0 
L 2028 0 
Q 2541 0 2894 225 
Q 3250 434 3450 756 
Q 3525 878 3578 991 
Q 3628 1106 3653 1253 
Q 3706 1544 3706 2278 
Q 3706 2969 3672 3250 
Q 3628 3531 3463 3788 
Q 3000 4550 2075 4556 
L 481 4556 
L 481 0 
z
M 1172 3903 
L 1997 3903 
Q 2522 3916 2809 3519 
Q 2950 3359 2988 3103 
Q 3016 2847 3016 2253 
Q 3016 1644 2988 1422 
Q 2956 1197 2841 1050 
Q 2578 653 1997 653 
L 1172 653 
L 1172 3903 
z
" transform="scale(0.015625)"/>
        <path id="DINAlternate-Bold-67" d="M 2247 341 
L 2247 6 
Q 2241 -325 2041 -513 
Q 1838 -697 1503 -697 
Q 1325 -691 1159 -600 
Q 997 -519 872 -403 
L 872 -403 
L 366 -806 
Q 831 -1338 1491 -1350 
Q 2066 -1350 2478 -997 
Q 2888 -653 2900 78 
L 2900 3244 
L 2247 3244 
L 2247 2900 
L 2247 2900 
Q 1894 3284 1409 3284 
Q 1094 3278 884 3163 
Q 666 3041 550 2888 
Q 422 2731 366 2503 
Q 306 2272 306 1619 
Q 306 978 366 750 
Q 422 519 550 359 
Q 666 219 884 97 
Q 1094 -31 1409 -38 
Q 1925 -25 2247 341 
L 2247 341 
z
M 959 1619 
Q 959 1997 984 2144 
Q 1006 2291 1088 2381 
Q 1153 2469 1288 2553 
Q 1416 2625 1606 2631 
Q 1797 2625 1925 2553 
Q 2053 2469 2119 2381 
Q 2200 2291 2228 2144 
Q 2247 1997 2247 1619 
Q 2247 1247 2228 1106 
Q 2200 959 2119 863 
Q 2053 775 1925 703 
Q 1797 616 1606 616 
Q 1416 616 1288 703 
Q 1153 775 1088 863 
Q 1006 959 984 1106 
Q 959 1247 959 1619 
L 959 1619 
z
" transform="scale(0.015625)"/>
        <path id="DINAlternate-Bold-73" d="M 519 991 
L 63 544 
Q 697 -38 1491 -38 
Q 2075 -31 2450 231 
Q 2828 488 2834 959 
Q 2834 1363 2625 1625 
Q 2400 1894 1894 1931 
L 1356 1972 
Q 1119 1997 1025 2088 
Q 922 2169 928 2278 
Q 928 2450 1056 2559 
Q 1178 2669 1484 2669 
Q 1753 2669 1959 2591 
Q 2169 2503 2356 2369 
L 2356 2369 
L 2759 2841 
Q 2522 3047 2222 3169 
Q 2066 3225 1888 3256 
Q 1709 3284 1484 3284 
Q 966 3284 628 3034 
Q 281 2784 275 2284 
Q 281 1869 544 1638 
Q 800 1400 1209 1363 
L 1784 1313 
Q 1966 1306 2075 1234 
Q 2181 1166 2181 991 
Q 2181 794 2003 684 
Q 1825 575 1544 575 
Q 916 575 519 991 
L 519 991 
z
" transform="scale(0.015625)"/>
        <path id="DINAlternate-Bold-41" d="M 1288 1631 
L 1947 3622 
L 1959 3622 
L 2619 1631 
L 1288 1631 
z
M 3169 0 
L 3897 0 
L 2241 4556 
L 1663 4556 
L 6 0 
L 738 0 
L 1088 1019 
L 2816 1019 
L 3169 0 
z
" transform="scale(0.015625)"/>
        <path id="DINAlternate-Bold-6c" d="M 422 788 
Q 422 359 666 178 
Q 897 0 1253 0 
L 1544 0 
L 1544 616 
L 1319 616 
Q 1075 616 1075 838 
L 1075 4556 
L 422 4556 
L 422 788 
z
" transform="scale(0.015625)"/>
        <path id="DINAlternate-Bold-2f" d="M 50 -38 
L 550 -38 
L 2081 4594 
L 1581 4594 
L 50 -38 
z
" transform="scale(0.015625)"/>
        <path id="DINAlternate-Bold-52" d="M 1172 3941 
L 2253 3941 
Q 2584 3941 2759 3800 
Q 2981 3641 2988 3284 
Q 2988 2988 2797 2784 
Q 2603 2566 2216 2559 
L 1172 2559 
L 1172 3941 
z
M 481 0 
L 1172 0 
L 1172 1947 
L 2053 1947 
L 2994 0 
L 3816 0 
L 2759 2022 
Q 3628 2356 3641 3284 
Q 3622 3916 3188 4256 
Q 2828 4556 2259 4556 
L 481 4556 
L 481 0 
z
" transform="scale(0.015625)"/>
        <path id="DINAlternate-Bold-2e" d="M 441 0 
L 1094 0 
L 1094 653 
L 441 653 
L 441 0 
z
" transform="scale(0.015625)"/>
       </defs>
       <use xlink:href="#DINAlternate-Bold-53"/>
       <use xlink:href="#DINAlternate-Bold-6d" transform="translate(57.373047 0)"/>
       <use xlink:href="#DINAlternate-Bold-61" transform="translate(142.578125 0)"/>
       <use xlink:href="#DINAlternate-Bold-72" transform="translate(192.578125 0)"/>
       <use xlink:href="#DINAlternate-Bold-74" transform="translate(231.494141 0)"/>
       <use xlink:href="#DINAlternate-Bold-20" transform="translate(259.277344 0)"/>
       <use xlink:href="#DINAlternate-Bold-44" transform="translate(283.251953 0)"/>
       <use xlink:href="#DINAlternate-Bold-72" transform="translate(346.240234 0)"/>
       <use xlink:href="#DINAlternate-Bold-75" transform="translate(383.90625 0)"/>
       <use xlink:href="#DINAlternate-Bold-67" transform="translate(437.617188 0)"/>
       <use xlink:href="#DINAlternate-Bold-73" transform="translate(489.521484 0)"/>
       <use xlink:href="#DINAlternate-Bold-20" transform="translate(537.519531 0)"/>
       <use xlink:href="#DINAlternate-Bold-28" transform="translate(561.494141 0)"/>
       <use xlink:href="#DINAlternate-Bold-41" transform="translate(589.277344 0)"/>
       <use xlink:href="#DINAlternate-Bold-64" transform="translate(650.263672 0)"/>
       <use xlink:href="#DINAlternate-Bold-64" transform="translate(702.167969 0)"/>
       <use xlink:href="#DINAlternate-Bold-65" transform="translate(754.072266 0)"/>
       <use xlink:href="#DINAlternate-Bold-72" transform="translate(804.072266 0)"/>
       <use xlink:href="#DINAlternate-Bold-61" transform="translate(841.238281 0)"/>
       <use xlink:href="#DINAlternate-Bold-6c" transform="translate(891.238281 0)"/>
       <use xlink:href="#DINAlternate-Bold-6c" transform="translate(917.019531 0)"/>
       <use xlink:href="#DINAlternate-Bold-2f" transform="translate(942.800781 0)"/>
       <use xlink:href="#DINAlternate-Bold-52" transform="translate(976.101562 0)"/>
       <use xlink:href="#DINAlternate-Bold-69" transform="translate(1037.087891 0)"/>
       <use xlink:href="#DINAlternate-Bold-74" transform="translate(1061.0625 0)"/>
       <use xlink:href="#DINAlternate-Bold-61" transform="translate(1088.845703 0)"/>
       <use xlink:href="#DINAlternate-Bold-6c" transform="translate(1138.845703 0)"/>
       <use xlink:href="#DINAlternate-Bold-69" transform="translate(1164.626953 0)"/>
       <use xlink:href="#DINAlternate-Bold-6e" transform="translate(1188.601562 0)"/>
       <use xlink:href="#DINAlternate-Bold-2f" transform="translate(1242.3125 0)"/>
       <use xlink:href="#DINAlternate-Bold-20" transform="translate(1275.613281 0)"/>
       <use xlink:href="#DINAlternate-Bold-65" transform="translate(1299.587891 0)"/>
       <use xlink:href="#DINAlternate-Bold-74" transform="translate(1349.587891 0)"/>
       <use xlink:href="#DINAlternate-Bold-63" transform="translate(1377.371094 0)"/>
       <use xlink:href="#DINAlternate-Bold-2e" transform="translate(1421.755859 0)"/>
       <use xlink:href="#DINAlternate-Bold-29" transform="translate(1445.730469 0)"/>
      </g>
     </g>
    </g>
    <g id="ytick_5">
     <g id="text_12">
      <!-- OTHER -->
      <g style="fill: #262626" transform="translate(139.638438 118.570937) scale(0.1 -0.1)">
       <defs>
        <path id="DINAlternate-Bold-4f" d="M 325 2278 
Q 325 1497 372 1222 
Q 397 1075 434 978 
Q 475 884 525 781 
Q 691 466 1056 225 
Q 1416 -25 1953 -38 
Q 2497 -25 2859 225 
Q 3219 466 3378 781 
Q 3494 947 3538 1222 
Q 3578 1497 3578 2278 
Q 3578 3072 3538 3341 
Q 3494 3609 3378 3775 
Q 3219 4091 2859 4338 
Q 2497 4588 1953 4594 
Q 1416 4588 1056 4338 
Q 691 4091 525 3775 
Q 422 3609 372 3341 
Q 325 3072 325 2278 
L 325 2278 
z
M 1019 2278 
Q 1019 2950 1069 3194 
Q 1113 3425 1247 3572 
Q 1356 3713 1534 3806 
Q 1709 3897 1953 3903 
Q 2200 3897 2381 3806 
Q 2553 3713 2656 3572 
Q 2791 3425 2841 3194 
Q 2888 2950 2888 2278 
Q 2888 1606 2841 1369 
Q 2791 1131 2656 984 
Q 2553 844 2381 756 
Q 2200 653 1953 653 
Q 1709 653 1534 756 
Q 1356 844 1247 984 
Q 1113 1131 1069 1369 
Q 1019 1606 1019 2278 
L 1019 2278 
z
" transform="scale(0.015625)"/>
        <path id="DINAlternate-Bold-54" d="M 1253 0 
L 1947 0 
L 1947 3941 
L 3194 3941 
L 3194 4556 
L 6 4556 
L 6 3941 
L 1253 3941 
L 1253 0 
z
" transform="scale(0.015625)"/>
        <path id="DINAlternate-Bold-48" d="M 2975 0 
L 3666 0 
L 3666 4556 
L 2975 4556 
L 2975 2603 
L 1172 2603 
L 1172 4556 
L 481 4556 
L 481 0 
L 1172 0 
L 1172 1991 
L 2975 1991 
L 2975 0 
z
" transform="scale(0.015625)"/>
        <path id="DINAlternate-Bold-45" d="M 481 0 
L 3391 0 
L 3391 653 
L 1172 653 
L 1172 1991 
L 3066 1991 
L 3066 2603 
L 1172 2603 
L 1172 3903 
L 3391 3903 
L 3391 4556 
L 481 4556 
L 481 0 
z
" transform="scale(0.015625)"/>
       </defs>
       <use xlink:href="#DINAlternate-Bold-4f"/>
       <use xlink:href="#DINAlternate-Bold-54" transform="translate(59.236328 0)"/>
       <use xlink:href="#DINAlternate-Bold-48" transform="translate(109.236328 0)"/>
       <use xlink:href="#DINAlternate-Bold-45" transform="translate(174.03125 0)"/>
       <use xlink:href="#DINAlternate-Bold-52" transform="translate(229.646484 0)"/>
      </g>
     </g>
    </g>
    <g id="ytick_6">
     <g id="text_13">
      <!-- Acid/ LSD -->
      <g style="fill: #262626" transform="translate(127.2525 136.010937) scale(0.1 -0.1)">
       <defs>
        <path id="DINAlternate-Bold-4c" d="M 481 0 
L 3391 0 
L 3391 653 
L 1172 653 
L 1172 4556 
L 481 4556 
L 481 0 
z
" transform="scale(0.015625)"/>
       </defs>
       <use xlink:href="#DINAlternate-Bold-41"/>
       <use xlink:href="#DINAlternate-Bold-63" transform="translate(60.986328 0)"/>
       <use xlink:href="#DINAlternate-Bold-69" transform="translate(105.371094 0)"/>
       <use xlink:href="#DINAlternate-Bold-64" transform="translate(129.345703 0)"/>
       <use xlink:href="#DINAlternate-Bold-2f" transform="translate(181.25 0)"/>
       <use xlink:href="#DINAlternate-Bold-20" transform="translate(214.550781 0)"/>
       <use xlink:href="#DINAlternate-Bold-4c" transform="translate(238.525391 0)"/>
       <use xlink:href="#DINAlternate-Bold-53" transform="translate(294.140625 0)"/>
       <use xlink:href="#DINAlternate-Bold-44" transform="translate(351.513672 0)"/>
      </g>
     </g>
    </g>
    <g id="ytick_7">
     <g id="text_14">
      <!-- ice -->
      <g style="fill: #262626" transform="translate(156.865 153.450937) scale(0.1 -0.1)">
       <use xlink:href="#DINAlternate-Bold-69"/>
       <use xlink:href="#DINAlternate-Bold-63" transform="translate(23.974609 0)"/>
       <use xlink:href="#DINAlternate-Bold-65" transform="translate(68.359375 0)"/>
      </g>
     </g>
    </g>
    <g id="ytick_8">
     <g id="text_15">
      <!-- etc) -->
      <g style="fill: #262626" transform="translate(153.705625 170.890937) scale(0.1 -0.1)">
       <use xlink:href="#DINAlternate-Bold-65"/>
       <use xlink:href="#DINAlternate-Bold-74" transform="translate(50 0)"/>
       <use xlink:href="#DINAlternate-Bold-63" transform="translate(77.783203 0)"/>
       <use xlink:href="#DINAlternate-Bold-29" transform="translate(122.167969 0)"/>
      </g>
     </g>
    </g>
    <g id="ytick_9">
     <g id="text_16">
      <!-- uppers -->
      <g style="fill: #262626" transform="translate(139.255625 188.330937) scale(0.1 -0.1)">
       <use xlink:href="#DINAlternate-Bold-75"/>
       <use xlink:href="#DINAlternate-Bold-70" transform="translate(53.710938 0)"/>
       <use xlink:href="#DINAlternate-Bold-70" transform="translate(105.615234 0)"/>
       <use xlink:href="#DINAlternate-Bold-65" transform="translate(157.519531 0)"/>
       <use xlink:href="#DINAlternate-Bold-72" transform="translate(207.519531 0)"/>
       <use xlink:href="#DINAlternate-Bold-73" transform="translate(246.435547 0)"/>
      </g>
     </g>
    </g>
    <g id="ytick_10">
     <g id="text_17">
      <!-- Amphetamines (speed -->
      <g style="fill: #262626" transform="translate(74.29625 205.770937) scale(0.1 -0.1)">
       <defs>
        <path id="DINAlternate-Bold-68" d="M 422 0 
L 1075 0 
L 1075 1931 
Q 1075 2272 1259 2450 
Q 1441 2631 1722 2631 
Q 2003 2631 2181 2450 
Q 2363 2272 2363 1931 
L 2363 0 
L 3016 0 
L 3016 2156 
Q 3000 2713 2669 3000 
Q 2334 3284 1931 3284 
Q 1409 3284 1088 2900 
L 1075 2900 
L 1075 4556 
L 422 4556 
L 422 0 
z
" transform="scale(0.015625)"/>
       </defs>
       <use xlink:href="#DINAlternate-Bold-41"/>
       <use xlink:href="#DINAlternate-Bold-6d" transform="translate(60.986328 0)"/>
       <use xlink:href="#DINAlternate-Bold-70" transform="translate(146.191406 0)"/>
       <use xlink:href="#DINAlternate-Bold-68" transform="translate(198.095703 0)"/>
       <use xlink:href="#DINAlternate-Bold-65" transform="translate(251.806641 0)"/>
       <use xlink:href="#DINAlternate-Bold-74" transform="translate(301.806641 0)"/>
       <use xlink:href="#DINAlternate-Bold-61" transform="translate(329.589844 0)"/>
       <use xlink:href="#DINAlternate-Bold-6d" transform="translate(379.589844 0)"/>
       <use xlink:href="#DINAlternate-Bold-69" transform="translate(464.794922 0)"/>
       <use xlink:href="#DINAlternate-Bold-6e" transform="translate(488.769531 0)"/>
       <use xlink:href="#DINAlternate-Bold-65" transform="translate(542.480469 0)"/>
       <use xlink:href="#DINAlternate-Bold-73" transform="translate(592.480469 0)"/>
       <use xlink:href="#DINAlternate-Bold-20" transform="translate(640.478516 0)"/>
       <use xlink:href="#DINAlternate-Bold-28" transform="translate(664.453125 0)"/>
       <use xlink:href="#DINAlternate-Bold-73" transform="translate(692.236328 0)"/>
       <use xlink:href="#DINAlternate-Bold-70" transform="translate(740.234375 0)"/>
       <use xlink:href="#DINAlternate-Bold-65" transform="translate(792.138672 0)"/>
       <use xlink:href="#DINAlternate-Bold-65" transform="translate(842.138672 0)"/>
       <use xlink:href="#DINAlternate-Bold-64" transform="translate(892.138672 0)"/>
      </g>
     </g>
    </g>
    <g id="ytick_11">
     <g id="text_18">
      <!-- Benzodiazepines -->
      <g style="fill: #262626" transform="translate(98.005625 223.210937) scale(0.1 -0.1)">
       <defs>
        <path id="DINAlternate-Bold-42" d="M 481 0 
L 2400 0 
Q 2938 0 3297 359 
Q 3659 703 3666 1294 
Q 3666 1650 3488 1953 
Q 3297 2247 2925 2344 
L 2925 2356 
Q 3122 2450 3256 2566 
Q 3391 2675 3463 2797 
Q 3603 3053 3597 3334 
Q 3597 3884 3256 4219 
Q 2919 4550 2247 4556 
L 481 4556 
L 481 0 
z
M 2234 2022 
Q 2619 2016 2797 1819 
Q 2975 1619 2975 1338 
Q 2975 1063 2797 863 
Q 2619 659 2234 653 
L 1172 653 
L 1172 2022 
L 2234 2022 
z
M 2169 3941 
Q 2547 3934 2725 3756 
Q 2906 3566 2906 3291 
Q 2906 3016 2725 2834 
Q 2547 2638 2169 2638 
L 1172 2638 
L 1172 3941 
L 2169 3941 
z
" transform="scale(0.015625)"/>
        <path id="DINAlternate-Bold-7a" d="M 213 0 
L 2631 0 
L 2631 616 
L 1006 616 
L 2631 2725 
L 2631 3244 
L 300 3244 
L 300 2669 
L 1838 2669 
L 213 519 
L 213 0 
z
" transform="scale(0.015625)"/>
       </defs>
       <use xlink:href="#DINAlternate-Bold-42"/>
       <use xlink:href="#DINAlternate-Bold-65" transform="translate(60.986328 0)"/>
       <use xlink:href="#DINAlternate-Bold-6e" transform="translate(110.986328 0)"/>
       <use xlink:href="#DINAlternate-Bold-7a" transform="translate(164.697266 0)"/>
       <use xlink:href="#DINAlternate-Bold-6f" transform="translate(209.082031 0)"/>
       <use xlink:href="#DINAlternate-Bold-64" transform="translate(259.082031 0)"/>
       <use xlink:href="#DINAlternate-Bold-69" transform="translate(310.986328 0)"/>
       <use xlink:href="#DINAlternate-Bold-61" transform="translate(334.960938 0)"/>
       <use xlink:href="#DINAlternate-Bold-7a" transform="translate(384.960938 0)"/>
       <use xlink:href="#DINAlternate-Bold-65" transform="translate(429.345703 0)"/>
       <use xlink:href="#DINAlternate-Bold-70" transform="translate(479.345703 0)"/>
       <use xlink:href="#DINAlternate-Bold-69" transform="translate(531.25 0)"/>
       <use xlink:href="#DINAlternate-Bold-6e" transform="translate(555.224609 0)"/>
       <use xlink:href="#DINAlternate-Bold-65" transform="translate(608.935547 0)"/>
       <use xlink:href="#DINAlternate-Bold-73" transform="translate(658.935547 0)"/>
      </g>
     </g>
    </g>
    <g id="ytick_12">
     <g id="text_19">
      <!-- Nitrous Oxide -->
      <g style="fill: #262626" transform="translate(111.913438 240.650937) scale(0.1 -0.1)">
       <defs>
        <path id="DINAlternate-Bold-4e" d="M 481 0 
L 1172 0 
L 1172 3238 
L 1184 3238 
L 3244 0 
L 3897 0 
L 3897 4556 
L 3206 4556 
L 3206 1319 
L 3194 1319 
L 1131 4556 
L 481 4556 
L 481 0 
z
" transform="scale(0.015625)"/>
        <path id="DINAlternate-Bold-78" d="M 1172 1656 
L 63 0 
L 844 0 
L 1534 1081 
L 1534 1081 
L 2228 0 
L 3006 0 
L 1900 1656 
L 2963 3244 
L 2181 3244 
L 1534 2194 
L 1534 2194 
L 891 3244 
L 109 3244 
L 1172 1656 
z
" transform="scale(0.015625)"/>
       </defs>
       <use xlink:href="#DINAlternate-Bold-4e"/>
       <use xlink:href="#DINAlternate-Bold-69" transform="translate(68.408203 0)"/>
       <use xlink:href="#DINAlternate-Bold-74" transform="translate(92.382812 0)"/>
       <use xlink:href="#DINAlternate-Bold-72" transform="translate(120.166016 0)"/>
       <use xlink:href="#DINAlternate-Bold-6f" transform="translate(157.332031 0)"/>
       <use xlink:href="#DINAlternate-Bold-75" transform="translate(207.332031 0)"/>
       <use xlink:href="#DINAlternate-Bold-73" transform="translate(261.042969 0)"/>
       <use xlink:href="#DINAlternate-Bold-20" transform="translate(309.041016 0)"/>
       <use xlink:href="#DINAlternate-Bold-4f" transform="translate(333.015625 0)"/>
       <use xlink:href="#DINAlternate-Bold-78" transform="translate(394.001953 0)"/>
       <use xlink:href="#DINAlternate-Bold-69" transform="translate(442 0)"/>
       <use xlink:href="#DINAlternate-Bold-64" transform="translate(465.974609 0)"/>
       <use xlink:href="#DINAlternate-Bold-65" transform="translate(517.878906 0)"/>
      </g>
     </g>
    </g>
    <g id="ytick_13">
     <g id="text_20">
      <!-- Crack Cocaine -->
      <g style="fill: #262626" transform="translate(109.6275 258.090937) scale(0.1 -0.1)">
       <defs>
        <path id="DINAlternate-Bold-6b" d="M 422 0 
L 1075 0 
L 1075 934 
L 1588 1516 
L 1588 1516 
L 2450 0 
L 3269 0 
L 1997 1978 
L 3116 3244 
L 2334 3244 
L 1088 1722 
L 1075 1722 
L 1075 4556 
L 422 4556 
L 422 0 
z
" transform="scale(0.015625)"/>
       </defs>
       <use xlink:href="#DINAlternate-Bold-43"/>
       <use xlink:href="#DINAlternate-Bold-72" transform="translate(55.615234 0)"/>
       <use xlink:href="#DINAlternate-Bold-61" transform="translate(92.78125 0)"/>
       <use xlink:href="#DINAlternate-Bold-63" transform="translate(142.78125 0)"/>
       <use xlink:href="#DINAlternate-Bold-6b" transform="translate(187.166016 0)"/>
       <use xlink:href="#DINAlternate-Bold-20" transform="translate(239.070312 0)"/>
       <use xlink:href="#DINAlternate-Bold-43" transform="translate(263.044922 0)"/>
       <use xlink:href="#DINAlternate-Bold-6f" transform="translate(318.660156 0)"/>
       <use xlink:href="#DINAlternate-Bold-63" transform="translate(368.660156 0)"/>
       <use xlink:href="#DINAlternate-Bold-61" transform="translate(413.044922 0)"/>
       <use xlink:href="#DINAlternate-Bold-69" transform="translate(463.044922 0)"/>
       <use xlink:href="#DINAlternate-Bold-6e" transform="translate(487.019531 0)"/>
       <use xlink:href="#DINAlternate-Bold-65" transform="translate(540.730469 0)"/>
      </g>
     </g>
    </g>
    <g id="ytick_14">
     <g id="text_21">
      <!-- MDMA/ Ecstasy -->
      <g style="fill: #262626" transform="translate(103.604063 275.560625) scale(0.1 -0.1)">
       <use xlink:href="#DINAlternate-Bold-4d"/>
       <use xlink:href="#DINAlternate-Bold-44" transform="translate(75.78125 0)"/>
       <use xlink:href="#DINAlternate-Bold-4d" transform="translate(138.769531 0)"/>
       <use xlink:href="#DINAlternate-Bold-41" transform="translate(214.550781 0)"/>
       <use xlink:href="#DINAlternate-Bold-2f" transform="translate(275.537109 0)"/>
       <use xlink:href="#DINAlternate-Bold-20" transform="translate(308.837891 0)"/>
       <use xlink:href="#DINAlternate-Bold-45" transform="translate(332.8125 0)"/>
       <use xlink:href="#DINAlternate-Bold-63" transform="translate(388.427734 0)"/>
       <use xlink:href="#DINAlternate-Bold-73" transform="translate(432.8125 0)"/>
       <use xlink:href="#DINAlternate-Bold-74" transform="translate(480.810547 0)"/>
       <use xlink:href="#DINAlternate-Bold-61" transform="translate(508.59375 0)"/>
       <use xlink:href="#DINAlternate-Bold-73" transform="translate(558.59375 0)"/>
       <use xlink:href="#DINAlternate-Bold-79" transform="translate(606.591797 0)"/>
      </g>
     </g>
    </g>
    <g id="ytick_15">
     <g id="text_22">
      <!-- Psilocybin -->
      <g style="fill: #262626" transform="translate(126.160313 292.970937) scale(0.1 -0.1)">
       <defs>
        <path id="DINAlternate-Bold-50" d="M 1172 3903 
L 2169 3903 
Q 2450 3909 2663 3775 
Q 2803 3694 2881 3553 
Q 2956 3397 2956 3169 
Q 2956 2894 2772 2669 
Q 2578 2438 2194 2431 
L 1172 2431 
L 1172 3903 
z
M 481 0 
L 1172 0 
L 1172 1778 
L 2222 1778 
Q 2925 1791 3291 2228 
Q 3647 2644 3647 3150 
Q 3647 3525 3506 3800 
Q 3372 4084 3156 4238 
Q 2900 4441 2650 4506 
Q 2400 4556 2131 4556 
L 481 4556 
L 481 0 
z
" transform="scale(0.015625)"/>
        <path id="DINAlternate-Bold-62" d="M 422 0 
L 1075 0 
L 1075 341 
L 1075 341 
Q 1400 -25 1913 -38 
Q 2216 -31 2431 84 
Q 2650 197 2784 384 
Q 2919 538 2969 800 
Q 3016 1050 3016 1625 
Q 3016 2209 2969 2456 
Q 2919 2706 2784 2859 
Q 2509 3269 1913 3284 
Q 1663 3284 1466 3181 
Q 1253 3072 1075 2900 
L 1075 2900 
L 1075 4556 
L 422 4556 
L 422 0 
z
M 1716 2631 
Q 1947 2631 2081 2553 
Q 2216 2469 2272 2322 
Q 2334 2175 2356 2003 
Q 2363 1819 2363 1625 
Q 2363 1441 2356 1266 
Q 2334 1081 2272 934 
Q 2216 794 2081 703 
Q 1947 616 1716 616 
Q 1497 616 1369 709 
Q 1234 800 1172 947 
Q 1113 1094 1094 1275 
Q 1075 1453 1075 1625 
Q 1075 1813 1094 1984 
Q 1113 2156 1172 2303 
Q 1234 2450 1369 2541 
Q 1497 2631 1716 2631 
L 1716 2631 
z
" transform="scale(0.015625)"/>
       </defs>
       <use xlink:href="#DINAlternate-Bold-50"/>
       <use xlink:href="#DINAlternate-Bold-73" transform="translate(59.277344 0)"/>
       <use xlink:href="#DINAlternate-Bold-69" transform="translate(107.275391 0)"/>
       <use xlink:href="#DINAlternate-Bold-6c" transform="translate(131.25 0)"/>
       <use xlink:href="#DINAlternate-Bold-6f" transform="translate(157.03125 0)"/>
       <use xlink:href="#DINAlternate-Bold-63" transform="translate(207.03125 0)"/>
       <use xlink:href="#DINAlternate-Bold-79" transform="translate(251.416016 0)"/>
       <use xlink:href="#DINAlternate-Bold-62" transform="translate(295.800781 0)"/>
       <use xlink:href="#DINAlternate-Bold-69" transform="translate(347.705078 0)"/>
       <use xlink:href="#DINAlternate-Bold-6e" transform="translate(371.679688 0)"/>
      </g>
     </g>
    </g>
    <g id="ytick_16">
     <g id="text_23">
      <!-- Methamphetamine -->
      <g style="fill: #262626" transform="translate(89.822812 310.410937) scale(0.1 -0.1)">
       <use xlink:href="#DINAlternate-Bold-4d"/>
       <use xlink:href="#DINAlternate-Bold-65" transform="translate(75.78125 0)"/>
       <use xlink:href="#DINAlternate-Bold-74" transform="translate(125.78125 0)"/>
       <use xlink:href="#DINAlternate-Bold-68" transform="translate(153.564453 0)"/>
       <use xlink:href="#DINAlternate-Bold-61" transform="translate(207.275391 0)"/>
       <use xlink:href="#DINAlternate-Bold-6d" transform="translate(257.275391 0)"/>
       <use xlink:href="#DINAlternate-Bold-70" transform="translate(342.480469 0)"/>
       <use xlink:href="#DINAlternate-Bold-68" transform="translate(394.384766 0)"/>
       <use xlink:href="#DINAlternate-Bold-65" transform="translate(448.095703 0)"/>
       <use xlink:href="#DINAlternate-Bold-74" transform="translate(498.095703 0)"/>
       <use xlink:href="#DINAlternate-Bold-61" transform="translate(525.878906 0)"/>
       <use xlink:href="#DINAlternate-Bold-6d" transform="translate(575.878906 0)"/>
       <use xlink:href="#DINAlternate-Bold-69" transform="translate(661.083984 0)"/>
       <use xlink:href="#DINAlternate-Bold-6e" transform="translate(685.058594 0)"/>
       <use xlink:href="#DINAlternate-Bold-65" transform="translate(738.769531 0)"/>
      </g>
     </g>
    </g>
    <g id="ytick_17">
     <g id="text_24">
      <!-- Heroin -->
      <g style="fill: #262626" transform="translate(140.735313 327.850937) scale(0.1 -0.1)">
       <use xlink:href="#DINAlternate-Bold-48"/>
       <use xlink:href="#DINAlternate-Bold-65" transform="translate(64.794922 0)"/>
       <use xlink:href="#DINAlternate-Bold-72" transform="translate(114.794922 0)"/>
       <use xlink:href="#DINAlternate-Bold-6f" transform="translate(151.960938 0)"/>
       <use xlink:href="#DINAlternate-Bold-69" transform="translate(201.960938 0)"/>
       <use xlink:href="#DINAlternate-Bold-6e" transform="translate(225.935547 0)"/>
      </g>
     </g>
    </g>
    <g id="ytick_18">
     <g id="text_25">
      <!-- Anabolic Steroids -->
      <g style="fill: #262626" transform="translate(95.60875 345.290937) scale(0.1 -0.1)">
       <use xlink:href="#DINAlternate-Bold-41"/>
       <use xlink:href="#DINAlternate-Bold-6e" transform="translate(60.986328 0)"/>
       <use xlink:href="#DINAlternate-Bold-61" transform="translate(114.697266 0)"/>
       <use xlink:href="#DINAlternate-Bold-62" transform="translate(164.697266 0)"/>
       <use xlink:href="#DINAlternate-Bold-6f" transform="translate(216.601562 0)"/>
       <use xlink:href="#DINAlternate-Bold-6c" transform="translate(266.601562 0)"/>
       <use xlink:href="#DINAlternate-Bold-69" transform="translate(292.382812 0)"/>
       <use xlink:href="#DINAlternate-Bold-63" transform="translate(316.357422 0)"/>
       <use xlink:href="#DINAlternate-Bold-20" transform="translate(360.742188 0)"/>
       <use xlink:href="#DINAlternate-Bold-53" transform="translate(384.716797 0)"/>
       <use xlink:href="#DINAlternate-Bold-74" transform="translate(442.089844 0)"/>
       <use xlink:href="#DINAlternate-Bold-65" transform="translate(469.873047 0)"/>
       <use xlink:href="#DINAlternate-Bold-72" transform="translate(519.873047 0)"/>
       <use xlink:href="#DINAlternate-Bold-6f" transform="translate(557.039062 0)"/>
       <use xlink:href="#DINAlternate-Bold-69" transform="translate(607.039062 0)"/>
       <use xlink:href="#DINAlternate-Bold-64" transform="translate(631.013672 0)"/>
       <use xlink:href="#DINAlternate-Bold-73" transform="translate(682.917969 0)"/>
      </g>
     </g>
    </g>
    <g id="ytick_19">
     <g id="text_26">
      <!-- Mephedrone -->
      <g style="fill: #262626" transform="translate(116.280625 362.730937) scale(0.1 -0.1)">
       <use xlink:href="#DINAlternate-Bold-4d"/>
       <use xlink:href="#DINAlternate-Bold-65" transform="translate(75.78125 0)"/>
       <use xlink:href="#DINAlternate-Bold-70" transform="translate(125.78125 0)"/>
       <use xlink:href="#DINAlternate-Bold-68" transform="translate(177.685547 0)"/>
       <use xlink:href="#DINAlternate-Bold-65" transform="translate(231.396484 0)"/>
       <use xlink:href="#DINAlternate-Bold-64" transform="translate(281.396484 0)"/>
       <use xlink:href="#DINAlternate-Bold-72" transform="translate(333.300781 0)"/>
       <use xlink:href="#DINAlternate-Bold-6f" transform="translate(370.466797 0)"/>
       <use xlink:href="#DINAlternate-Bold-6e" transform="translate(420.466797 0)"/>
       <use xlink:href="#DINAlternate-Bold-65" transform="translate(474.177734 0)"/>
      </g>
     </g>
    </g>
    <g id="ytick_20">
     <g id="text_27">
      <!-- Khat -->
      <g style="fill: #262626" transform="translate(149.2525 380.170937) scale(0.1 -0.1)">
       <use xlink:href="#DINAlternate-Bold-4b"/>
       <use xlink:href="#DINAlternate-Bold-68" transform="translate(62.988281 0)"/>
       <use xlink:href="#DINAlternate-Bold-61" transform="translate(116.699219 0)"/>
       <use xlink:href="#DINAlternate-Bold-74" transform="translate(166.699219 0)"/>
      </g>
     </g>
    </g>
    <g id="text_28">
     <!-- Drugs -->
     <g style="fill: #262626" transform="translate(15.030625 224.917031) rotate(-90) scale(0.11 -0.11)">
      <use xlink:href="#DINAlternate-Bold-44"/>
      <use xlink:href="#DINAlternate-Bold-72" transform="translate(62.988281 0)"/>
      <use xlink:href="#DINAlternate-Bold-75" transform="translate(100.654297 0)"/>
      <use xlink:href="#DINAlternate-Bold-67" transform="translate(154.365234 0)"/>
      <use xlink:href="#DINAlternate-Bold-73" transform="translate(206.269531 0)"/>
     </g>
    </g>
   </g>
   <g id="patch_3">
    <path d="M 175.700938 38.275562 
L 678.18189 38.275562 
L 678.18189 52.227562 
L 175.700938 52.227562 
z
" clip-path="url(#p7c48e177f9)" style="fill: #233755; opacity: 0.8; stroke: #ffffff; stroke-width: 1.5; stroke-linejoin: miter"/>
   </g>
   <g id="patch_4">
    <path d="M 175.700938 55.715562 
L 457.090271 55.715562 
L 457.090271 69.667562 
L 175.700938 69.667562 
z
" clip-path="url(#p7c48e177f9)" style="fill: #701028; opacity: 0.8; stroke: #ffffff; stroke-width: 1.5; stroke-linejoin: miter"/>
   </g>
   <g id="patch_5">
    <path d="M 175.700938 73.155562 
L 396.792557 73.155562 
L 396.792557 87.107562 
L 175.700938 87.107562 
z
" clip-path="url(#p7c48e177f9)" style="fill: #334b4b; opacity: 0.8; stroke: #ffffff; stroke-width: 1.5; stroke-linejoin: miter"/>
   </g>
   <g id="patch_6">
    <path d="M 175.700938 90.595562 
L 376.693318 90.595562 
L 376.693318 104.547562 
L 175.700938 104.547562 
z
" clip-path="url(#p7c48e177f9)" style="opacity: 0.8; stroke: #ffffff; stroke-width: 1.5; stroke-linejoin: miter"/>
   </g>
   <g id="patch_7">
    <path d="M 175.700938 108.035562 
L 336.494842 108.035562 
L 336.494842 121.987562 
L 175.700938 121.987562 
z
" clip-path="url(#p7c48e177f9)" style="fill: #4f4f4f; opacity: 0.8; stroke: #ffffff; stroke-width: 1.5; stroke-linejoin: miter"/>
   </g>
   <g id="patch_8">
    <path d="M 175.700938 125.475562 
L 276.197128 125.475562 
L 276.197128 139.427562 
L 175.700938 139.427562 
z
" clip-path="url(#p7c48e177f9)" style="fill: #7a1111; opacity: 0.8; stroke: #ffffff; stroke-width: 1.5; stroke-linejoin: miter"/>
   </g>
   <g id="patch_9">
    <path d="M 175.700938 142.915562 
L 276.197128 142.915562 
L 276.197128 156.867562 
L 175.700938 156.867562 
z
" clip-path="url(#p7c48e177f9)" style="fill: #242465; opacity: 0.8; stroke: #ffffff; stroke-width: 1.5; stroke-linejoin: miter"/>
   </g>
   <g id="patch_10">
    <path d="M 175.700938 160.355562 
L 276.197128 160.355562 
L 276.197128 174.307562 
L 175.700938 174.307562 
z
" clip-path="url(#p7c48e177f9)" style="fill: #233755; opacity: 0.8; stroke: #ffffff; stroke-width: 1.5; stroke-linejoin: miter"/>
   </g>
   <g id="patch_11">
    <path d="M 175.700938 177.795562 
L 276.197128 177.795562 
L 276.197128 191.747562 
L 175.700938 191.747562 
z
" clip-path="url(#p7c48e177f9)" style="fill: #701028; opacity: 0.8; stroke: #ffffff; stroke-width: 1.5; stroke-linejoin: miter"/>
   </g>
   <g id="patch_12">
    <path d="M 175.700938 195.235562 
L 276.197128 195.235562 
L 276.197128 209.187562 
L 175.700938 209.187562 
z
" clip-path="url(#p7c48e177f9)" style="fill: #334b4b; opacity: 0.8; stroke: #ffffff; stroke-width: 1.5; stroke-linejoin: miter"/>
   </g>
   <g id="patch_13">
    <path d="M 175.700938 212.675562 
L 276.197128 212.675562 
L 276.197128 226.627562 
L 175.700938 226.627562 
z
" clip-path="url(#p7c48e177f9)" style="opacity: 0.8; stroke: #ffffff; stroke-width: 1.5; stroke-linejoin: miter"/>
   </g>
   <g id="patch_14">
    <path d="M 175.700938 230.115562 
L 256.09789 230.115562 
L 256.09789 244.067562 
L 175.700938 244.067562 
z
" clip-path="url(#p7c48e177f9)" style="fill: #4f4f4f; opacity: 0.8; stroke: #ffffff; stroke-width: 1.5; stroke-linejoin: miter"/>
   </g>
   <g id="patch_15">
    <path d="M 175.700938 247.555562 
L 256.09789 247.555562 
L 256.09789 261.507562 
L 175.700938 261.507562 
z
" clip-path="url(#p7c48e177f9)" style="fill: #7a1111; opacity: 0.8; stroke: #ffffff; stroke-width: 1.5; stroke-linejoin: miter"/>
   </g>
   <g id="patch_16">
    <path d="M 175.700938 264.995562 
L 256.09789 264.995562 
L 256.09789 278.947562 
L 175.700938 278.947562 
z
" clip-path="url(#p7c48e177f9)" style="fill: #242465; opacity: 0.8; stroke: #ffffff; stroke-width: 1.5; stroke-linejoin: miter"/>
   </g>
   <g id="patch_17">
    <path d="M 175.700938 282.435562 
L 235.998652 282.435562 
L 235.998652 296.387562 
L 175.700938 296.387562 
z
" clip-path="url(#p7c48e177f9)" style="fill: #233755; opacity: 0.8; stroke: #ffffff; stroke-width: 1.5; stroke-linejoin: miter"/>
   </g>
   <g id="patch_18">
    <path d="M 175.700938 299.875562 
L 235.998652 299.875562 
L 235.998652 313.827562 
L 175.700938 313.827562 
z
" clip-path="url(#p7c48e177f9)" style="fill: #701028; opacity: 0.8; stroke: #ffffff; stroke-width: 1.5; stroke-linejoin: miter"/>
   </g>
   <g id="patch_19">
    <path d="M 175.700938 317.315562 
L 235.998652 317.315562 
L 235.998652 331.267562 
L 175.700938 331.267562 
z
" clip-path="url(#p7c48e177f9)" style="fill: #334b4b; opacity: 0.8; stroke: #ffffff; stroke-width: 1.5; stroke-linejoin: miter"/>
   </g>
   <g id="patch_20">
    <path d="M 175.700938 334.755562 
L 235.998652 334.755562 
L 235.998652 348.707562 
L 175.700938 348.707562 
z
" clip-path="url(#p7c48e177f9)" style="opacity: 0.8; stroke: #ffffff; stroke-width: 1.5; stroke-linejoin: miter"/>
   </g>
   <g id="patch_21">
    <path d="M 175.700938 352.195562 
L 235.998652 352.195562 
L 235.998652 366.147562 
L 175.700938 366.147562 
z
" clip-path="url(#p7c48e177f9)" style="fill: #4f4f4f; opacity: 0.8; stroke: #ffffff; stroke-width: 1.5; stroke-linejoin: miter"/>
   </g>
   <g id="patch_22">
    <path d="M 175.700938 369.635562 
L 235.998652 369.635562 
L 235.998652 383.587562 
L 175.700938 383.587562 
z
" clip-path="url(#p7c48e177f9)" style="fill: #7a1111; opacity: 0.8; stroke: #ffffff; stroke-width: 1.5; stroke-linejoin: miter"/>
   </g>
   <g id="line2d_1">
    <path clip-path="url(#p7c48e177f9)" style="fill: none; stroke: #424242; stroke-width: 2.25; stroke-linecap: round"/>
   </g>
   <g id="line2d_2">
    <path clip-path="url(#p7c48e177f9)" style="fill: none; stroke: #424242; stroke-width: 2.25; stroke-linecap: round"/>
   </g>
   <g id="line2d_3">
    <path clip-path="url(#p7c48e177f9)" style="fill: none; stroke: #424242; stroke-width: 2.25; stroke-linecap: round"/>
   </g>
   <g id="line2d_4">
    <path clip-path="url(#p7c48e177f9)" style="fill: none; stroke: #424242; stroke-width: 2.25; stroke-linecap: round"/>
   </g>
   <g id="line2d_5">
    <path clip-path="url(#p7c48e177f9)" style="fill: none; stroke: #424242; stroke-width: 2.25; stroke-linecap: round"/>
   </g>
   <g id="line2d_6">
    <path clip-path="url(#p7c48e177f9)" style="fill: none; stroke: #424242; stroke-width: 2.25; stroke-linecap: round"/>
   </g>
   <g id="line2d_7">
    <path clip-path="url(#p7c48e177f9)" style="fill: none; stroke: #424242; stroke-width: 2.25; stroke-linecap: round"/>
   </g>
   <g id="line2d_8">
    <path clip-path="url(#p7c48e177f9)" style="fill: none; stroke: #424242; stroke-width: 2.25; stroke-linecap: round"/>
   </g>
   <g id="line2d_9">
    <path clip-path="url(#p7c48e177f9)" style="fill: none; stroke: #424242; stroke-width: 2.25; stroke-linecap: round"/>
   </g>
   <g id="line2d_10">
    <path clip-path="url(#p7c48e177f9)" style="fill: none; stroke: #424242; stroke-width: 2.25; stroke-linecap: round"/>
   </g>
   <g id="line2d_11">
    <path clip-path="url(#p7c48e177f9)" style="fill: none; stroke: #424242; stroke-width: 2.25; stroke-linecap: round"/>
   </g>
   <g id="line2d_12">
    <path clip-path="url(#p7c48e177f9)" style="fill: none; stroke: #424242; stroke-width: 2.25; stroke-linecap: round"/>
   </g>
   <g id="line2d_13">
    <path clip-path="url(#p7c48e177f9)" style="fill: none; stroke: #424242; stroke-width: 2.25; stroke-linecap: round"/>
   </g>
   <g id="line2d_14">
    <path clip-path="url(#p7c48e177f9)" style="fill: none; stroke: #424242; stroke-width: 2.25; stroke-linecap: round"/>
   </g>
   <g id="line2d_15">
    <path clip-path="url(#p7c48e177f9)" style="fill: none; stroke: #424242; stroke-width: 2.25; stroke-linecap: round"/>
   </g>
   <g id="line2d_16">
    <path clip-path="url(#p7c48e177f9)" style="fill: none; stroke: #424242; stroke-width: 2.25; stroke-linecap: round"/>
   </g>
   <g id="line2d_17">
    <path clip-path="url(#p7c48e177f9)" style="fill: none; stroke: #424242; stroke-width: 2.25; stroke-linecap: round"/>
   </g>
   <g id="line2d_18">
    <path clip-path="url(#p7c48e177f9)" style="fill: none; stroke: #424242; stroke-width: 2.25; stroke-linecap: round"/>
   </g>
   <g id="line2d_19">
    <path clip-path="url(#p7c48e177f9)" style="fill: none; stroke: #424242; stroke-width: 2.25; stroke-linecap: round"/>
   </g>
   <g id="line2d_20">
    <path clip-path="url(#p7c48e177f9)" style="fill: none; stroke: #424242; stroke-width: 2.25; stroke-linecap: round"/>
   </g>
   <g id="patch_23">
    <path d="M 175.700938 385.331562 
L 175.700938 36.531562 
" style="fill: none; stroke: #ffffff; stroke-width: 2; stroke-linejoin: miter; stroke-linecap: square"/>
   </g>
   <g id="patch_24">
    <path d="M 175.700938 385.331562 
L 703.305938 385.331562 
" style="fill: none; stroke: #ffffff; stroke-width: 2; stroke-linejoin: miter; stroke-linecap: square"/>
   </g>
   <g id="text_29">
    <!-- 25 -->
    <g style="fill: #262626" transform="translate(683.206699 48.038516) scale(0.11 -0.11)">
     <use xlink:href="#DINAlternate-Bold-32"/>
     <use xlink:href="#DINAlternate-Bold-35" transform="translate(47.998047 0)"/>
    </g>
   </g>
   <g id="text_30">
    <!-- 14 -->
    <g style="fill: #262626" transform="translate(462.11508 65.478516) scale(0.11 -0.11)">
     <defs>
      <path id="DINAlternate-Bold-34" d="M 78 678 
L 1978 678 
L 1978 0 
L 2631 0 
L 2631 678 
L 2994 678 
L 2994 1294 
L 2631 1294 
L 2631 2603 
L 1978 2603 
L 1978 1294 
L 788 1294 
L 2328 4556 
L 1600 4556 
L 78 1294 
L 78 678 
z
" transform="scale(0.015625)"/>
     </defs>
     <use xlink:href="#DINAlternate-Bold-31"/>
     <use xlink:href="#DINAlternate-Bold-34" transform="translate(47.998047 0)"/>
    </g>
   </g>
   <g id="text_31">
    <!-- 11 -->
    <g style="fill: #262626" transform="translate(401.817366 82.918516) scale(0.11 -0.11)">
     <use xlink:href="#DINAlternate-Bold-31"/>
     <use xlink:href="#DINAlternate-Bold-31" transform="translate(47.998047 0)"/>
    </g>
   </g>
   <g id="text_32">
    <!-- 10 -->
    <g style="fill: #262626" transform="translate(381.718128 100.358516) scale(0.11 -0.11)">
     <use xlink:href="#DINAlternate-Bold-31"/>
     <use xlink:href="#DINAlternate-Bold-30" transform="translate(47.998047 0)"/>
    </g>
   </g>
   <g id="text_33">
    <!-- 8 -->
    <g style="fill: #262626" transform="translate(341.519652 117.798516) scale(0.11 -0.11)">
     <defs>
      <path id="DINAlternate-Bold-38" d="M 884 3291 
Q 891 3616 1088 3781 
Q 1281 3941 1534 3941 
Q 1797 3941 1991 3781 
Q 2181 3616 2188 3291 
Q 2181 2975 1991 2809 
Q 1797 2638 1534 2638 
Q 1281 2638 1088 2809 
Q 891 2975 884 3291 
L 884 3291 
z
M 147 1331 
Q 153 716 563 347 
Q 953 -31 1534 -38 
Q 2119 -31 2522 347 
Q 2919 716 2925 1331 
Q 2919 1991 2388 2356 
Q 2591 2534 2719 2766 
Q 2841 2981 2841 3278 
Q 2834 3847 2469 4219 
Q 2106 4588 1534 4594 
Q 972 4588 616 4219 
Q 238 3847 231 3278 
Q 231 2981 366 2766 
Q 481 2534 684 2356 
Q 153 1991 147 1331 
L 147 1331 
z
M 800 1338 
Q 806 1656 1025 1856 
Q 1234 2053 1534 2059 
Q 1844 2053 2053 1856 
Q 2266 1656 2272 1338 
Q 2266 1025 2053 825 
Q 1844 616 1534 616 
Q 1234 616 1025 825 
Q 806 1025 800 1338 
L 800 1338 
z
" transform="scale(0.015625)"/>
     </defs>
     <use xlink:href="#DINAlternate-Bold-38"/>
    </g>
   </g>
   <g id="text_34">
    <!-- 5 -->
    <g style="fill: #262626" transform="translate(281.221938 135.238516) scale(0.11 -0.11)">
     <use xlink:href="#DINAlternate-Bold-35"/>
    </g>
   </g>
   <g id="text_35">
    <!-- 5 -->
    <g style="fill: #262626" transform="translate(281.221938 152.678516) scale(0.11 -0.11)">
     <use xlink:href="#DINAlternate-Bold-35"/>
    </g>
   </g>
   <g id="text_36">
    <!-- 5 -->
    <g style="fill: #262626" transform="translate(281.221938 170.118516) scale(0.11 -0.11)">
     <use xlink:href="#DINAlternate-Bold-35"/>
    </g>
   </g>
   <g id="text_37">
    <!-- 5 -->
    <g style="fill: #262626" transform="translate(281.221938 187.558516) scale(0.11 -0.11)">
     <use xlink:href="#DINAlternate-Bold-35"/>
    </g>
   </g>
   <g id="text_38">
    <!-- 5 -->
    <g style="fill: #262626" transform="translate(281.221938 204.998516) scale(0.11 -0.11)">
     <use xlink:href="#DINAlternate-Bold-35"/>
    </g>
   </g>
   <g id="text_39">
    <!-- 5 -->
    <g style="fill: #262626" transform="translate(281.221938 222.438516) scale(0.11 -0.11)">
     <use xlink:href="#DINAlternate-Bold-35"/>
    </g>
   </g>
   <g id="text_40">
    <!-- 4 -->
    <g style="fill: #262626" transform="translate(261.122699 239.878516) scale(0.11 -0.11)">
     <use xlink:href="#DINAlternate-Bold-34"/>
    </g>
   </g>
   <g id="text_41">
    <!-- 4 -->
    <g style="fill: #262626" transform="translate(261.122699 257.318516) scale(0.11 -0.11)">
     <use xlink:href="#DINAlternate-Bold-34"/>
    </g>
   </g>
   <g id="text_42">
    <!-- 4 -->
    <g style="fill: #262626" transform="translate(261.122699 274.758516) scale(0.11 -0.11)">
     <use xlink:href="#DINAlternate-Bold-34"/>
    </g>
   </g>
   <g id="text_43">
    <!-- 3 -->
    <g style="fill: #262626" transform="translate(241.023461 292.198516) scale(0.11 -0.11)">
     <defs>
      <path id="DINAlternate-Bold-33" d="M 1125 2059 
L 1400 2059 
Q 1703 2059 1900 1875 
Q 2100 1684 2106 1338 
Q 2100 997 1900 813 
Q 1703 616 1416 616 
Q 1147 616 984 763 
Q 825 903 738 1131 
L 84 1131 
Q 191 563 550 263 
Q 909 -38 1375 -38 
Q 1978 -31 2363 347 
Q 2753 716 2759 1356 
Q 2759 1644 2638 1906 
Q 2509 2169 2222 2356 
Q 2503 2547 2613 2791 
Q 2706 3034 2706 3297 
Q 2700 3816 2350 4197 
Q 1984 4588 1363 4594 
Q 872 4588 519 4244 
Q 159 3897 109 3391 
L 763 3391 
Q 825 3672 1006 3806 
Q 1178 3941 1388 3941 
Q 1678 3934 1863 3756 
Q 2047 3572 2053 3284 
Q 2053 3000 1869 2822 
Q 1684 2638 1350 2638 
L 1125 2638 
L 1125 2059 
z
" transform="scale(0.015625)"/>
     </defs>
     <use xlink:href="#DINAlternate-Bold-33"/>
    </g>
   </g>
   <g id="text_44">
    <!-- 3 -->
    <g style="fill: #262626" transform="translate(241.023461 309.638516) scale(0.11 -0.11)">
     <use xlink:href="#DINAlternate-Bold-33"/>
    </g>
   </g>
   <g id="text_45">
    <!-- 3 -->
    <g style="fill: #262626" transform="translate(241.023461 327.078516) scale(0.11 -0.11)">
     <use xlink:href="#DINAlternate-Bold-33"/>
    </g>
   </g>
   <g id="text_46">
    <!-- 3 -->
    <g style="fill: #262626" transform="translate(241.023461 344.518516) scale(0.11 -0.11)">
     <use xlink:href="#DINAlternate-Bold-33"/>
    </g>
   </g>
   <g id="text_47">
    <!-- 3 -->
    <g style="fill: #262626" transform="translate(241.023461 361.958516) scale(0.11 -0.11)">
     <use xlink:href="#DINAlternate-Bold-33"/>
    </g>
   </g>
   <g id="text_48">
    <!-- 3 -->
    <g style="fill: #262626" transform="translate(241.023461 379.398516) scale(0.11 -0.11)">
     <use xlink:href="#DINAlternate-Bold-33"/>
    </g>
   </g>
   <g id="text_49">
    <g id="patch_25">
     <path d="M 626.061025 381.055562 
L 692.753837 381.055562 
Q 695.453837 381.055562 695.453837 378.355562 
L 695.453837 370.102281 
Q 695.453837 367.402281 692.753837 367.402281 
L 626.061025 367.402281 
Q 623.361025 367.402281 623.361025 370.102281 
L 623.361025 378.355562 
Q 623.361025 381.055562 626.061025 381.055562 
z
" style="fill: #d3d3d3; opacity: 0.8; stroke: #808080; stroke-linejoin: miter"/>
    </g>
    <!-- Non-null: 128/388 -->
    <g style="fill: #808080" transform="translate(626.061025 376.509156) scale(0.09 -0.09)">
     <defs>
      <path id="DINAlternate-Bold-2d" d="M 341 1447 
L 2266 1447 
L 2266 2100 
L 341 2100 
L 341 1447 
z
" transform="scale(0.015625)"/>
      <path id="DINAlternate-Bold-3a" d="M 441 1453 
L 1094 1453 
L 1094 2106 
L 441 2106 
L 441 1453 
z
M 441 0 
L 1094 0 
L 1094 653 
L 441 653 
L 441 0 
z
" transform="scale(0.015625)"/>
     </defs>
     <use xlink:href="#DINAlternate-Bold-4e"/>
     <use xlink:href="#DINAlternate-Bold-6f" transform="translate(68.408203 0)"/>
     <use xlink:href="#DINAlternate-Bold-6e" transform="translate(118.408203 0)"/>
     <use xlink:href="#DINAlternate-Bold-2d" transform="translate(172.119141 0)"/>
     <use xlink:href="#DINAlternate-Bold-6e" transform="translate(212.792969 0)"/>
     <use xlink:href="#DINAlternate-Bold-75" transform="translate(266.503906 0)"/>
     <use xlink:href="#DINAlternate-Bold-6c" transform="translate(320.214844 0)"/>
     <use xlink:href="#DINAlternate-Bold-6c" transform="translate(345.996094 0)"/>
     <use xlink:href="#DINAlternate-Bold-3a" transform="translate(371.777344 0)"/>
     <use xlink:href="#DINAlternate-Bold-20" transform="translate(395.751953 0)"/>
     <use xlink:href="#DINAlternate-Bold-31" transform="translate(419.726562 0)"/>
     <use xlink:href="#DINAlternate-Bold-32" transform="translate(467.724609 0)"/>
     <use xlink:href="#DINAlternate-Bold-38" transform="translate(515.722656 0)"/>
     <use xlink:href="#DINAlternate-Bold-2f" transform="translate(563.720703 0)"/>
     <use xlink:href="#DINAlternate-Bold-33" transform="translate(597.021484 0)"/>
     <use xlink:href="#DINAlternate-Bold-38" transform="translate(645.019531 0)"/>
     <use xlink:href="#DINAlternate-Bold-38" transform="translate(693.017578 0)"/>
    </g>
   </g>
   <g id="text_50">
    <!-- Which drugs have you taken on campus? - Selected Choice -->
    <g style="fill: #262626" transform="translate(280.115313 16.531562) scale(0.13 -0.13)">
     <defs>
      <path id="DINAlternate-Bold-57" d="M 1209 0 
L 1784 0 
L 2656 3284 
L 2669 3284 
L 3538 0 
L 4116 0 
L 5253 4556 
L 4525 4556 
L 3806 1319 
L 3794 1319 
L 2913 4556 
L 2413 4556 
L 1528 1319 
L 1516 1319 
L 800 4556 
L 72 4556 
L 1209 0 
z
" transform="scale(0.015625)"/>
      <path id="DINAlternate-Bold-76" d="M 1153 0 
L 1691 0 
L 2881 3244 
L 2188 3244 
L 1428 972 
L 1416 972 
L 653 3244 
L -38 3244 
L 1153 0 
z
" transform="scale(0.015625)"/>
      <path id="DINAlternate-Bold-3f" d="M 1081 1125 
L 1734 1125 
L 1734 1491 
Q 1728 1728 1844 1894 
L 2425 2694 
Q 2625 2963 2631 3366 
Q 2625 3934 2253 4269 
Q 1894 4588 1394 4594 
Q 903 4588 550 4244 
Q 191 3903 184 3372 
L 184 3244 
L 838 3244 
Q 838 3628 1019 3788 
Q 1178 3941 1428 3941 
Q 1631 3941 1803 3794 
Q 1972 3641 1978 3372 
Q 1978 3175 1819 2950 
L 1247 2156 
Q 1147 2016 1113 1875 
Q 1081 1728 1081 1544 
L 1081 1125 
z
M 1081 0 
L 1734 0 
L 1734 653 
L 1081 653 
L 1081 0 
z
" transform="scale(0.015625)"/>
     </defs>
     <use xlink:href="#DINAlternate-Bold-57"/>
     <use xlink:href="#DINAlternate-Bold-68" transform="translate(81.453125 0)"/>
     <use xlink:href="#DINAlternate-Bold-69" transform="translate(135.164062 0)"/>
     <use xlink:href="#DINAlternate-Bold-63" transform="translate(159.138672 0)"/>
     <use xlink:href="#DINAlternate-Bold-68" transform="translate(203.523438 0)"/>
     <use xlink:href="#DINAlternate-Bold-20" transform="translate(257.234375 0)"/>
     <use xlink:href="#DINAlternate-Bold-64" transform="translate(281.208984 0)"/>
     <use xlink:href="#DINAlternate-Bold-72" transform="translate(333.113281 0)"/>
     <use xlink:href="#DINAlternate-Bold-75" transform="translate(370.779297 0)"/>
     <use xlink:href="#DINAlternate-Bold-67" transform="translate(424.490234 0)"/>
     <use xlink:href="#DINAlternate-Bold-73" transform="translate(476.394531 0)"/>
     <use xlink:href="#DINAlternate-Bold-20" transform="translate(524.392578 0)"/>
     <use xlink:href="#DINAlternate-Bold-68" transform="translate(548.367188 0)"/>
     <use xlink:href="#DINAlternate-Bold-61" transform="translate(602.078125 0)"/>
     <use xlink:href="#DINAlternate-Bold-76" transform="translate(652.078125 0)"/>
     <use xlink:href="#DINAlternate-Bold-65" transform="translate(695.837891 0)"/>
     <use xlink:href="#DINAlternate-Bold-20" transform="translate(745.837891 0)"/>
     <use xlink:href="#DINAlternate-Bold-79" transform="translate(769.8125 0)"/>
     <use xlink:href="#DINAlternate-Bold-6f" transform="translate(813.572266 0)"/>
     <use xlink:href="#DINAlternate-Bold-75" transform="translate(863.572266 0)"/>
     <use xlink:href="#DINAlternate-Bold-20" transform="translate(917.283203 0)"/>
     <use xlink:href="#DINAlternate-Bold-74" transform="translate(941.257812 0)"/>
     <use xlink:href="#DINAlternate-Bold-61" transform="translate(969.041016 0)"/>
     <use xlink:href="#DINAlternate-Bold-6b" transform="translate(1019.041016 0)"/>
     <use xlink:href="#DINAlternate-Bold-65" transform="translate(1069.695312 0)"/>
     <use xlink:href="#DINAlternate-Bold-6e" transform="translate(1119.695312 0)"/>
     <use xlink:href="#DINAlternate-Bold-20" transform="translate(1173.40625 0)"/>
     <use xlink:href="#DINAlternate-Bold-6f" transform="translate(1197.380859 0)"/>
     <use xlink:href="#DINAlternate-Bold-6e" transform="translate(1247.380859 0)"/>
     <use xlink:href="#DINAlternate-Bold-20" transform="translate(1301.091797 0)"/>
     <use xlink:href="#DINAlternate-Bold-63" transform="translate(1325.066406 0)"/>
     <use xlink:href="#DINAlternate-Bold-61" transform="translate(1369.451172 0)"/>
     <use xlink:href="#DINAlternate-Bold-6d" transform="translate(1419.451172 0)"/>
     <use xlink:href="#DINAlternate-Bold-70" transform="translate(1504.65625 0)"/>
     <use xlink:href="#DINAlternate-Bold-75" transform="translate(1556.560547 0)"/>
     <use xlink:href="#DINAlternate-Bold-73" transform="translate(1610.271484 0)"/>
     <use xlink:href="#DINAlternate-Bold-3f" transform="translate(1658.269531 0)"/>
     <use xlink:href="#DINAlternate-Bold-20" transform="translate(1704.558594 0)"/>
     <use xlink:href="#DINAlternate-Bold-2d" transform="translate(1728.533203 0)"/>
     <use xlink:href="#DINAlternate-Bold-20" transform="translate(1769.207031 0)"/>
     <use xlink:href="#DINAlternate-Bold-53" transform="translate(1793.181641 0)"/>
     <use xlink:href="#DINAlternate-Bold-65" transform="translate(1850.554688 0)"/>
     <use xlink:href="#DINAlternate-Bold-6c" transform="translate(1900.554688 0)"/>
     <use xlink:href="#DINAlternate-Bold-65" transform="translate(1926.335938 0)"/>
     <use xlink:href="#DINAlternate-Bold-63" transform="translate(1976.335938 0)"/>
     <use xlink:href="#DINAlternate-Bold-74" transform="translate(2020.720703 0)"/>
     <use xlink:href="#DINAlternate-Bold-65" transform="translate(2048.503906 0)"/>
     <use xlink:href="#DINAlternate-Bold-64" transform="translate(2098.503906 0)"/>
     <use xlink:href="#DINAlternate-Bold-20" transform="translate(2150.408203 0)"/>
     <use xlink:href="#DINAlternate-Bold-43" transform="translate(2174.382812 0)"/>
     <use xlink:href="#DINAlternate-Bold-68" transform="translate(2229.998047 0)"/>
     <use xlink:href="#DINAlternate-Bold-6f" transform="translate(2283.708984 0)"/>
     <use xlink:href="#DINAlternate-Bold-69" transform="translate(2333.708984 0)"/>
     <use xlink:href="#DINAlternate-Bold-63" transform="translate(2357.683594 0)"/>
     <use xlink:href="#DINAlternate-Bold-65" transform="translate(2402.068359 0)"/>
    </g>
   </g>
  </g>
 </g>
 <defs>
  <clipPath id="p7c48e177f9">
   <rect x="175.700938" y="36.531562" width="527.605" height="348.8"/>
  </clipPath>
 </defs>
</svg>
