<?xml version="1.0" encoding="utf-8" standalone="no"?>
<!DOCTYPE svg PUBLIC "-//W3C//DTD SVG 1.1//EN"
  "http://www.w3.org/Graphics/SVG/1.1/DTD/svg11.dtd">
<svg xmlns:xlink="http://www.w3.org/1999/xlink" width="566.64pt" height="566.611562pt" viewBox="0 0 566.64 566.611562" xmlns="http://www.w3.org/2000/svg" version="1.1">
 <metadata>
  <rdf:RDF xmlns:dc="http://purl.org/dc/elements/1.1/" xmlns:cc="http://creativecommons.org/ns#" xmlns:rdf="http://www.w3.org/1999/02/22-rdf-syntax-ns#">
   <cc:Work>
    <dc:type rdf:resource="http://purl.org/dc/dcmitype/StillImage"/>
    <dc:date>2025-09-18T22:40:58.819992</dc:date>
    <dc:format>image/svg+xml</dc:format>
    <dc:creator>
     <cc:Agent>
      <dc:title>Matplotlib v3.10.3, https://matplotlib.org/</dc:title>
     </cc:Agent>
    </dc:creator>
   </cc:Work>
  </rdf:RDF>
 </metadata>
 <defs>
  <style type="text/css">*{stroke-linejoin: round; stroke-linecap: butt}</style>
 </defs>
 <g id="figure_1">
  <g id="patch_1">
   <path d="M 0 566.611562 
L 566.64 566.611562 
L 566.64 0 
L 0 0 
z
" style="fill: #ffffff"/>
  </g>
  <g id="axes_1">
   <g id="matplotlib.axis_1"/>
   <g id="matplotlib.axis_2"/>
   <g id="patch_2">
    <path d="M 283.320011 58.755501 
C 257.167507 58.755501 231.191125 63.044219 206.426531 71.450665 
C 181.661936 79.857111 158.44268 92.26806 137.694503 108.188695 
C 116.946325 124.109329 98.94868 143.325216 84.419125 165.070227 
C 69.889571 186.815238 59.023802 210.796493 52.255032 236.057871 
C 45.486263 261.319249 42.90566 287.520509 44.616111 313.617019 
C 46.326563 339.713528 52.30503 365.353799 62.313155 389.515564 
C 72.32128 413.677329 86.224265 436.035158 103.467805 455.697656 
C 120.711344 475.360154 141.063188 492.062488 163.711917 505.138746 
C 186.360647 518.215005 211.00121 527.489064 236.651199 532.591172 
C 262.301189 537.69328 288.615129 538.554718 314.543896 535.141139 
C 340.472663 531.727561 365.667026 524.084944 389.122498 512.517996 
C 412.57797 500.951048 433.978634 485.615562 452.471254 467.122956 
C 470.963874 448.630351 486.299378 427.2297 497.866344 403.774237 
C 509.433311 380.318774 517.075948 355.124417 520.489547 329.195653 
C 523.903146 303.266888 523.04173 276.952948 517.939642 251.302954 
C 512.837554 225.65296 503.563515 201.01239 490.487275 178.36365 
L 324.753464 274.049993 
C 327.368712 278.579741 329.22352 283.507855 330.243937 288.637854 
C 331.264355 293.767852 331.436638 299.03064 330.753918 304.216393 
C 330.071199 309.402146 328.542671 314.441017 326.229278 319.13211 
C 323.915884 323.823203 320.848784 328.103333 317.15026 331.801854 
C 313.451736 335.500375 309.171603 338.567472 304.480509 340.880862 
C 299.789414 343.194252 294.750542 344.722775 289.564788 345.405491 
C 284.379035 346.088206 279.116247 345.915919 273.986249 344.895497 
C 268.856251 343.875075 263.928138 342.020264 259.398392 339.405012 
C 254.868647 336.78976 250.798278 333.449293 247.34957 329.516794 
C 243.900862 325.584294 241.120265 321.112729 239.11864 316.280375 
C 237.117015 311.448022 235.921321 306.319968 235.579231 301.100666 
C 235.237141 295.881365 235.753262 290.641113 237.107015 285.588837 
C 238.460769 280.536561 240.633923 275.74031 243.539834 271.391308 
C 246.445745 267.042306 250.045274 263.199129 254.19491 260.015002 
C 258.344545 256.830875 262.988396 254.348685 267.941315 252.667396 
C 272.894234 250.986106 278.08951 250.128363 283.320011 250.128363 
z
" style="fill: #1b365d; stroke: #ffffff; stroke-width: 2; stroke-linejoin: miter"/>
   </g>
   <g id="patch_3">
    <path d="M 490.487264 178.363625 
C 469.493255 142.000883 439.290864 111.798492 402.92815 90.804439 
C 366.565436 69.810387 325.308216 58.75553 283.320159 58.755501 
L 283.320041 250.128363 
C 291.717652 250.128369 299.969096 252.33934 307.241639 256.538151 
C 314.514182 260.736961 320.55466 266.777439 324.753462 274.049988 
z
" style="fill: #800020; stroke: #ffffff; stroke-width: 2; stroke-linejoin: miter"/>
   </g>
   <g id="text_1">
    <!-- Yes -->
    <g style="fill: #262626" transform="translate(149.711898 507.672329) scale(0.1 -0.1)">
     <defs>
      <path id="DINAlternate-Bold-59" d="M 1275 0 
L 1925 0 
L 1925 1875 
L 3297 4556 
L 2566 4556 
L 1600 2534 
L 1600 2534 
L 634 4556 
L -97 4556 
L 1275 1875 
L 1275 0 
z
" transform="scale(0.015625)"/>
      <path id="DINAlternate-Bold-65" d="M 2938 1375 
L 2938 1913 
Q 2931 2553 2541 2919 
Q 2156 3278 1600 3284 
Q 1369 3284 1131 3200 
Q 891 3116 697 2925 
Q 506 2738 384 2413 
Q 263 2094 263 1613 
Q 263 1113 403 800 
Q 531 475 738 294 
Q 844 206 966 147 
Q 1081 78 1203 38 
Q 1447 -38 1703 -38 
Q 2375 -44 2872 488 
L 2400 891 
L 2400 891 
Q 2088 575 1691 575 
Q 1350 575 1141 781 
Q 916 984 916 1375 
L 2938 1375 
z
M 916 1913 
Q 934 2291 1119 2484 
Q 1306 2669 1600 2669 
Q 1894 2669 2081 2484 
Q 2272 2291 2284 1913 
L 916 1913 
z
" transform="scale(0.015625)"/>
      <path id="DINAlternate-Bold-73" d="M 519 991 
L 63 544 
Q 697 -38 1491 -38 
Q 2075 -31 2450 231 
Q 2828 488 2834 959 
Q 2834 1363 2625 1625 
Q 2400 1894 1894 1931 
L 1356 1972 
Q 1119 1997 1025 2088 
Q 922 2169 928 2278 
Q 928 2450 1056 2559 
Q 1178 2669 1484 2669 
Q 1753 2669 1959 2591 
Q 2169 2503 2356 2369 
L 2356 2369 
L 2759 2841 
Q 2522 3047 2222 3169 
Q 2066 3225 1888 3256 
Q 1709 3284 1484 3284 
Q 966 3284 628 3034 
Q 281 2784 275 2284 
Q 281 1869 544 1638 
Q 800 1400 1209 1363 
L 1784 1313 
Q 1966 1306 2075 1234 
Q 2181 1166 2181 991 
Q 2181 794 2003 684 
Q 1825 575 1544 575 
Q 916 575 519 991 
L 519 991 
z
" transform="scale(0.015625)"/>
     </defs>
     <use xlink:href="#DINAlternate-Bold-59"/>
     <use xlink:href="#DINAlternate-Bold-65" transform="translate(42 0)"/>
     <use xlink:href="#DINAlternate-Bold-73" transform="translate(92 0)"/>
    </g>
   </g>
   <g id="text_2">
    <!-- 83.3% -->
    <g style="fill: #ffffff" transform="translate(170.659365 476.597255) scale(0.1 -0.1)">
     <defs>
      <path id="DINAlternate-Bold-38" d="M 884 3291 
Q 891 3616 1088 3781 
Q 1281 3941 1534 3941 
Q 1797 3941 1991 3781 
Q 2181 3616 2188 3291 
Q 2181 2975 1991 2809 
Q 1797 2638 1534 2638 
Q 1281 2638 1088 2809 
Q 891 2975 884 3291 
L 884 3291 
z
M 147 1331 
Q 153 716 563 347 
Q 953 -31 1534 -38 
Q 2119 -31 2522 347 
Q 2919 716 2925 1331 
Q 2919 1991 2388 2356 
Q 2591 2534 2719 2766 
Q 2841 2981 2841 3278 
Q 2834 3847 2469 4219 
Q 2106 4588 1534 4594 
Q 972 4588 616 4219 
Q 238 3847 231 3278 
Q 231 2981 366 2766 
Q 481 2534 684 2356 
Q 153 1991 147 1331 
L 147 1331 
z
M 800 1338 
Q 806 1656 1025 1856 
Q 1234 2053 1534 2059 
Q 1844 2053 2053 1856 
Q 2266 1656 2272 1338 
Q 2266 1025 2053 825 
Q 1844 616 1534 616 
Q 1234 616 1025 825 
Q 806 1025 800 1338 
L 800 1338 
z
" transform="scale(0.015625)"/>
      <path id="DINAlternate-Bold-33" d="M 1125 2059 
L 1400 2059 
Q 1703 2059 1900 1875 
Q 2100 1684 2106 1338 
Q 2100 997 1900 813 
Q 1703 616 1416 616 
Q 1147 616 984 763 
Q 825 903 738 1131 
L 84 1131 
Q 191 563 550 263 
Q 909 -38 1375 -38 
Q 1978 -31 2363 347 
Q 2753 716 2759 1356 
Q 2759 1644 2638 1906 
Q 2509 2169 2222 2356 
Q 2503 2547 2613 2791 
Q 2706 3034 2706 3297 
Q 2700 3816 2350 4197 
Q 1984 4588 1363 4594 
Q 872 4588 519 4244 
Q 159 3897 109 3391 
L 763 3391 
Q 825 3672 1006 3806 
Q 1178 3941 1388 3941 
Q 1678 3934 1863 3756 
Q 2047 3572 2053 3284 
Q 2053 3000 1869 2822 
Q 1684 2638 1350 2638 
L 1125 2638 
L 1125 2059 
z
" transform="scale(0.015625)"/>
      <path id="DINAlternate-Bold-2e" d="M 441 0 
L 1094 0 
L 1094 653 
L 441 653 
L 441 0 
z
" transform="scale(0.015625)"/>
      <path id="DINAlternate-Bold-25" d="M 2156 984 
Q 2156 1300 2394 1300 
Q 2631 1300 2631 984 
L 2631 641 
Q 2631 325 2394 325 
Q 2156 325 2156 641 
L 2156 984 
z
M 1791 594 
Q 1797 263 1984 116 
Q 2156 -38 2394 -38 
Q 2638 -38 2816 116 
Q 2906 191 2950 313 
Q 2994 428 2994 594 
L 2994 1031 
Q 2988 1363 2816 1516 
Q 2638 1663 2394 1663 
Q 2156 1663 1984 1516 
Q 1797 1363 1791 1031 
L 1791 594 
z
M 325 3525 
Q 331 3194 519 3047 
Q 691 2894 928 2894 
Q 1172 2894 1350 3047 
Q 1441 3122 1484 3244 
Q 1528 3359 1528 3525 
L 1528 3963 
Q 1522 4294 1350 4447 
Q 1172 4594 928 4594 
Q 691 4594 519 4447 
Q 331 4294 325 3963 
L 325 3525 
z
M 691 3916 
Q 691 4231 928 4231 
Q 1166 4231 1166 3916 
L 1166 3572 
Q 1166 3256 928 3256 
Q 691 3256 691 3572 
L 691 3916 
z
M 372 0 
L 794 0 
L 2950 4556 
L 2528 4556 
L 372 0 
z
" transform="scale(0.015625)"/>
     </defs>
     <use xlink:href="#DINAlternate-Bold-38"/>
     <use xlink:href="#DINAlternate-Bold-33" transform="translate(47.998047 0)"/>
     <use xlink:href="#DINAlternate-Bold-2e" transform="translate(95.996094 0)"/>
     <use xlink:href="#DINAlternate-Bold-33" transform="translate(119.970703 0)"/>
     <use xlink:href="#DINAlternate-Bold-25" transform="translate(167.96875 0)"/>
    </g>
   </g>
   <g id="text_3">
    <!-- No -->
    <g style="fill: #262626" transform="translate(402.928255 93.33809) scale(0.1 -0.1)">
     <defs>
      <path id="DINAlternate-Bold-4e" d="M 481 0 
L 1172 0 
L 1172 3238 
L 1184 3238 
L 3244 0 
L 3897 0 
L 3897 4556 
L 3206 4556 
L 3206 1319 
L 3194 1319 
L 1131 4556 
L 481 4556 
L 481 0 
z
" transform="scale(0.015625)"/>
      <path id="DINAlternate-Bold-6f" d="M 263 1625 
Q 263 1113 347 844 
Q 434 575 616 378 
Q 750 225 991 103 
Q 1228 -31 1600 -38 
Q 1984 -31 2222 103 
Q 2350 159 2431 238 
Q 2522 306 2584 378 
Q 2778 575 2859 844 
Q 2938 1113 2938 1625 
Q 2938 2138 2859 2413 
Q 2778 2681 2584 2866 
Q 2456 3028 2222 3156 
Q 1984 3278 1600 3284 
Q 1228 3278 991 3156 
Q 750 3028 616 2866 
Q 434 2681 347 2413 
Q 263 2138 263 1625 
L 263 1625 
z
M 2284 1619 
Q 2284 1288 2253 1131 
Q 2222 972 2125 850 
Q 2053 756 1913 684 
Q 1778 616 1600 616 
Q 1434 616 1294 684 
Q 1159 756 1075 850 
Q 991 972 953 1131 
Q 916 1288 916 1625 
Q 916 1966 953 2125 
Q 991 2278 1075 2394 
Q 1159 2503 1294 2566 
Q 1434 2631 1600 2631 
Q 1778 2631 1913 2566 
Q 2053 2503 2125 2394 
Q 2222 2278 2253 2125 
Q 2284 1966 2284 1619 
L 2284 1619 
z
" transform="scale(0.015625)"/>
     </defs>
     <use xlink:href="#DINAlternate-Bold-4e"/>
     <use xlink:href="#DINAlternate-Bold-6f" transform="translate(68.408203 0)"/>
    </g>
   </g>
   <g id="text_4">
    <!-- 16.7% -->
    <g style="fill: #ffffff" transform="translate(373.993268 124.413153) scale(0.1 -0.1)">
     <defs>
      <path id="DINAlternate-Bold-31" d="M 1241 3866 
L 1241 0 
L 1894 0 
L 1894 4556 
L 1241 4556 
L 594 4084 
L 594 3391 
L 594 3391 
L 1241 3866 
L 1241 3866 
z
" transform="scale(0.015625)"/>
      <path id="DINAlternate-Bold-36" d="M 2375 4603 
Q 2378 4603 2345 4536 
Q 2313 4469 2256 4353 
Q 2200 4238 2125 4088 
Q 2050 3938 1967 3772 
Q 1884 3606 1798 3437 
Q 1713 3269 1633 3116 
Q 1553 2963 1487 2838 
Q 1422 2713 1378 2638 
Q 1469 2691 1583 2702 
Q 1697 2713 1847 2706 
Q 2063 2700 2223 2631 
Q 2384 2563 2500 2459 
Q 2616 2356 2692 2229 
Q 2769 2103 2812 1983 
Q 2856 1863 2873 1758 
Q 2891 1653 2891 1594 
Q 2891 1575 2891 1525 
Q 2891 1475 2891 1414 
Q 2891 1353 2889 1290 
Q 2888 1228 2884 1184 
Q 2881 1163 2864 1070 
Q 2847 978 2801 851 
Q 2756 725 2672 579 
Q 2588 434 2450 304 
Q 2313 175 2116 81 
Q 1919 -13 1647 -34 
Q 1363 -59 1144 3 
Q 925 66 765 181 
Q 606 297 500 448 
Q 394 600 333 759 
Q 272 919 251 1066 
Q 231 1213 244 1316 
Q 263 1469 284 1589 
Q 306 1709 336 1818 
Q 366 1928 403 2034 
Q 441 2141 491 2266 
Q 503 2297 559 2414 
Q 616 2531 698 2703 
Q 781 2875 884 3081 
Q 988 3288 1091 3500 
Q 1334 3994 1638 4603 
L 2375 4603 
z
M 2244 1269 
Q 2244 1388 2234 1531 
Q 2225 1675 2164 1804 
Q 2103 1934 1965 2028 
Q 1828 2122 1575 2141 
Q 1456 2150 1359 2115 
Q 1263 2081 1188 2022 
Q 1113 1963 1058 1886 
Q 1003 1809 967 1734 
Q 931 1659 915 1595 
Q 900 1531 900 1497 
Q 900 1419 903 1323 
Q 906 1228 923 1133 
Q 941 1038 981 948 
Q 1022 859 1097 790 
Q 1172 722 1289 678 
Q 1406 634 1581 634 
Q 1722 631 1826 670 
Q 1931 709 2004 770 
Q 2078 831 2125 906 
Q 2172 981 2198 1053 
Q 2225 1125 2234 1183 
Q 2244 1241 2244 1269 
z
" transform="scale(0.015625)"/>
      <path id="DINAlternate-Bold-37" d="M 325 3244 
L 978 3244 
L 978 3903 
L 2188 3903 
L 647 0 
L 1375 0 
L 2919 3903 
L 2919 4556 
L 325 4556 
L 325 3244 
z
" transform="scale(0.015625)"/>
     </defs>
     <use xlink:href="#DINAlternate-Bold-31"/>
     <use xlink:href="#DINAlternate-Bold-36" transform="translate(47.998047 0)"/>
     <use xlink:href="#DINAlternate-Bold-2e" transform="translate(95.996094 0)"/>
     <use xlink:href="#DINAlternate-Bold-37" transform="translate(119.970703 0)"/>
     <use xlink:href="#DINAlternate-Bold-25" transform="translate(167.96875 0)"/>
    </g>
   </g>
   <g id="text_5">
    <g id="patch_4">
     <path d="M 481.702388 551.653963 
L 548.3952 551.653963 
Q 551.0952 551.653963 551.0952 548.953962 
L 551.0952 540.700681 
Q 551.0952 538.000681 548.3952 538.000681 
L 481.702388 538.000681 
Q 479.002388 538.000681 479.002388 540.700681 
L 479.002388 548.953962 
Q 479.002388 551.653963 481.702388 551.653963 
z
" style="fill: #d3d3d3; opacity: 0.8; stroke: #808080; stroke-linejoin: miter"/>
    </g>
    <!-- Non-null: 264/388 -->
    <g style="fill: #808080" transform="translate(481.702388 547.107556) scale(0.09 -0.09)">
     <defs>
      <path id="DINAlternate-Bold-6e" d="M 422 0 
L 1075 0 
L 1075 1931 
Q 1075 2272 1259 2450 
Q 1441 2631 1722 2631 
Q 2003 2631 2181 2450 
Q 2363 2272 2363 1931 
L 2363 0 
L 3016 0 
L 3016 2156 
Q 3000 2713 2669 3000 
Q 2334 3284 1931 3284 
Q 1409 3284 1088 2900 
L 1075 2900 
L 1075 3244 
L 422 3244 
L 422 0 
z
" transform="scale(0.015625)"/>
      <path id="DINAlternate-Bold-2d" d="M 341 1447 
L 2266 1447 
L 2266 2100 
L 341 2100 
L 341 1447 
z
" transform="scale(0.015625)"/>
      <path id="DINAlternate-Bold-75" d="M 422 1088 
Q 428 538 781 256 
Q 1106 -31 1509 -38 
Q 2028 -38 2350 347 
L 2363 347 
L 2363 0 
L 3016 0 
L 3016 3244 
L 2363 3244 
L 2363 1313 
Q 2363 984 2181 800 
Q 2003 616 1722 616 
Q 1441 616 1259 800 
Q 1075 984 1075 1313 
L 1075 3244 
L 422 3244 
L 422 1088 
z
" transform="scale(0.015625)"/>
      <path id="DINAlternate-Bold-6c" d="M 422 788 
Q 422 359 666 178 
Q 897 0 1253 0 
L 1544 0 
L 1544 616 
L 1319 616 
Q 1075 616 1075 838 
L 1075 4556 
L 422 4556 
L 422 788 
z
" transform="scale(0.015625)"/>
      <path id="DINAlternate-Bold-3a" d="M 441 1453 
L 1094 1453 
L 1094 2106 
L 441 2106 
L 441 1453 
z
M 441 0 
L 1094 0 
L 1094 653 
L 441 653 
L 441 0 
z
" transform="scale(0.015625)"/>
      <path id="DINAlternate-Bold-20" transform="scale(0.015625)"/>
      <path id="DINAlternate-Bold-32" d="M 206 0 
L 2803 0 
L 2803 653 
L 1063 653 
L 2528 2491 
Q 2803 2841 2803 3291 
Q 2797 3853 2425 4219 
Q 2059 4588 1472 4594 
Q 947 4588 588 4225 
Q 231 3853 206 3284 
L 856 3284 
Q 891 3597 1075 3769 
Q 1253 3941 1522 3941 
Q 1825 3934 1991 3744 
Q 2150 3553 2150 3297 
Q 2150 3200 2125 3091 
Q 2088 2975 1984 2841 
L 206 616 
L 206 0 
z
" transform="scale(0.015625)"/>
      <path id="DINAlternate-Bold-34" d="M 78 678 
L 1978 678 
L 1978 0 
L 2631 0 
L 2631 678 
L 2994 678 
L 2994 1294 
L 2631 1294 
L 2631 2603 
L 1978 2603 
L 1978 1294 
L 788 1294 
L 2328 4556 
L 1600 4556 
L 78 1294 
L 78 678 
z
" transform="scale(0.015625)"/>
      <path id="DINAlternate-Bold-2f" d="M 50 -38 
L 550 -38 
L 2081 4594 
L 1581 4594 
L 50 -38 
z
" transform="scale(0.015625)"/>
     </defs>
     <use xlink:href="#DINAlternate-Bold-4e"/>
     <use xlink:href="#DINAlternate-Bold-6f" transform="translate(68.408203 0)"/>
     <use xlink:href="#DINAlternate-Bold-6e" transform="translate(118.408203 0)"/>
     <use xlink:href="#DINAlternate-Bold-2d" transform="translate(172.119141 0)"/>
     <use xlink:href="#DINAlternate-Bold-6e" transform="translate(212.792969 0)"/>
     <use xlink:href="#DINAlternate-Bold-75" transform="translate(266.503906 0)"/>
     <use xlink:href="#DINAlternate-Bold-6c" transform="translate(320.214844 0)"/>
     <use xlink:href="#DINAlternate-Bold-6c" transform="translate(345.996094 0)"/>
     <use xlink:href="#DINAlternate-Bold-3a" transform="translate(371.777344 0)"/>
     <use xlink:href="#DINAlternate-Bold-20" transform="translate(395.751953 0)"/>
     <use xlink:href="#DINAlternate-Bold-32" transform="translate(419.726562 0)"/>
     <use xlink:href="#DINAlternate-Bold-36" transform="translate(467.724609 0)"/>
     <use xlink:href="#DINAlternate-Bold-34" transform="translate(515.722656 0)"/>
     <use xlink:href="#DINAlternate-Bold-2f" transform="translate(563.720703 0)"/>
     <use xlink:href="#DINAlternate-Bold-33" transform="translate(597.021484 0)"/>
     <use xlink:href="#DINAlternate-Bold-38" transform="translate(645.019531 0)"/>
     <use xlink:href="#DINAlternate-Bold-38" transform="translate(693.017578 0)"/>
    </g>
   </g>
   <g id="text_6">
    <!-- Do you drink shots? -->
    <g style="fill: #262626" transform="translate(229.591406 16.531562) scale(0.13 -0.13)">
     <defs>
      <path id="DINAlternate-Bold-44" d="M 481 0 
L 2028 0 
Q 2541 0 2894 225 
Q 3250 434 3450 756 
Q 3525 878 3578 991 
Q 3628 1106 3653 1253 
Q 3706 1544 3706 2278 
Q 3706 2969 3672 3250 
Q 3628 3531 3463 3788 
Q 3000 4550 2075 4556 
L 481 4556 
L 481 0 
z
M 1172 3903 
L 1997 3903 
Q 2522 3916 2809 3519 
Q 2950 3359 2988 3103 
Q 3016 2847 3016 2253 
Q 3016 1644 2988 1422 
Q 2956 1197 2841 1050 
Q 2578 653 1997 653 
L 1172 653 
L 1172 3903 
z
" transform="scale(0.015625)"/>
      <path id="DINAlternate-Bold-79" d="M 1119 128 
L 941 -416 
Q 897 -556 788 -628 
Q 678 -697 550 -697 
L 359 -697 
L 359 -1313 
L 575 -1313 
Q 878 -1313 1119 -1178 
Q 1356 -1038 1491 -672 
L 2888 3244 
L 2194 3244 
L 1428 972 
L 1416 972 
L 647 3244 
L -44 3244 
L 1119 128 
z
" transform="scale(0.015625)"/>
      <path id="DINAlternate-Bold-64" d="M 2363 341 
L 2363 0 
L 3016 0 
L 3016 4556 
L 2363 4556 
L 2363 2900 
L 2363 2900 
Q 2181 3072 1984 3181 
Q 1772 3284 1522 3284 
Q 928 3269 653 2859 
Q 519 2706 475 2456 
Q 422 2209 422 1625 
Q 422 1050 475 800 
Q 519 538 653 384 
Q 800 197 1019 84 
Q 1228 -31 1522 -38 
Q 2041 -25 2363 341 
L 2363 341 
z
M 1722 2631 
Q 1953 2631 2088 2541 
Q 2222 2450 2272 2303 
Q 2334 2156 2356 1984 
Q 2363 1813 2363 1625 
Q 2363 1453 2356 1275 
Q 2334 1094 2272 947 
Q 2222 800 2088 709 
Q 1953 616 1722 616 
Q 1491 616 1369 703 
Q 1234 794 1172 934 
Q 1113 1081 1094 1266 
Q 1075 1441 1075 1625 
Q 1075 1819 1094 2003 
Q 1113 2175 1172 2322 
Q 1234 2469 1369 2553 
Q 1491 2631 1722 2631 
L 1722 2631 
z
" transform="scale(0.015625)"/>
      <path id="DINAlternate-Bold-72" d="M 422 0 
L 1075 0 
L 1075 1953 
Q 1081 2309 1281 2469 
Q 1459 2631 1709 2631 
Q 1931 2631 2138 2469 
L 2138 2469 
L 2613 3034 
Q 2322 3278 1931 3284 
Q 1409 3284 1088 2900 
L 1075 2900 
L 1075 3244 
L 422 3244 
L 422 0 
z
" transform="scale(0.015625)"/>
      <path id="DINAlternate-Bold-69" d="M 441 0 
L 1094 0 
L 1094 3244 
L 441 3244 
L 441 0 
z
M 441 3903 
L 1094 3903 
L 1094 4556 
L 441 4556 
L 441 3903 
z
" transform="scale(0.015625)"/>
      <path id="DINAlternate-Bold-6b" d="M 422 0 
L 1075 0 
L 1075 934 
L 1588 1516 
L 1588 1516 
L 2450 0 
L 3269 0 
L 1997 1978 
L 3116 3244 
L 2334 3244 
L 1088 1722 
L 1075 1722 
L 1075 4556 
L 422 4556 
L 422 0 
z
" transform="scale(0.015625)"/>
      <path id="DINAlternate-Bold-68" d="M 422 0 
L 1075 0 
L 1075 1931 
Q 1075 2272 1259 2450 
Q 1441 2631 1722 2631 
Q 2003 2631 2181 2450 
Q 2363 2272 2363 1931 
L 2363 0 
L 3016 0 
L 3016 2156 
Q 3000 2713 2669 3000 
Q 2334 3284 1931 3284 
Q 1409 3284 1088 2900 
L 1075 2900 
L 1075 4556 
L 422 4556 
L 422 0 
z
" transform="scale(0.015625)"/>
      <path id="DINAlternate-Bold-74" d="M 459 3244 
L 134 3244 
L 134 2747 
L 459 2747 
L 459 800 
Q 459 416 684 213 
Q 903 0 1247 0 
L 1588 0 
L 1588 616 
L 1344 616 
Q 1106 609 1113 856 
L 1113 2747 
L 1588 2747 
L 1588 3244 
L 1113 3244 
L 1113 4231 
L 459 4231 
L 459 3244 
z
" transform="scale(0.015625)"/>
      <path id="DINAlternate-Bold-3f" d="M 1081 1125 
L 1734 1125 
L 1734 1491 
Q 1728 1728 1844 1894 
L 2425 2694 
Q 2625 2963 2631 3366 
Q 2625 3934 2253 4269 
Q 1894 4588 1394 4594 
Q 903 4588 550 4244 
Q 191 3903 184 3372 
L 184 3244 
L 838 3244 
Q 838 3628 1019 3788 
Q 1178 3941 1428 3941 
Q 1631 3941 1803 3794 
Q 1972 3641 1978 3372 
Q 1978 3175 1819 2950 
L 1247 2156 
Q 1147 2016 1113 1875 
Q 1081 1728 1081 1544 
L 1081 1125 
z
M 1081 0 
L 1734 0 
L 1734 653 
L 1081 653 
L 1081 0 
z
" transform="scale(0.015625)"/>
     </defs>
     <use xlink:href="#DINAlternate-Bold-44"/>
     <use xlink:href="#DINAlternate-Bold-6f" transform="translate(62.988281 0)"/>
     <use xlink:href="#DINAlternate-Bold-20" transform="translate(112.988281 0)"/>
     <use xlink:href="#DINAlternate-Bold-79" transform="translate(136.962891 0)"/>
     <use xlink:href="#DINAlternate-Bold-6f" transform="translate(180.722656 0)"/>
     <use xlink:href="#DINAlternate-Bold-75" transform="translate(230.722656 0)"/>
     <use xlink:href="#DINAlternate-Bold-20" transform="translate(284.433594 0)"/>
     <use xlink:href="#DINAlternate-Bold-64" transform="translate(308.408203 0)"/>
     <use xlink:href="#DINAlternate-Bold-72" transform="translate(360.3125 0)"/>
     <use xlink:href="#DINAlternate-Bold-69" transform="translate(399.228516 0)"/>
     <use xlink:href="#DINAlternate-Bold-6e" transform="translate(423.203125 0)"/>
     <use xlink:href="#DINAlternate-Bold-6b" transform="translate(476.914062 0)"/>
     <use xlink:href="#DINAlternate-Bold-20" transform="translate(528.818359 0)"/>
     <use xlink:href="#DINAlternate-Bold-73" transform="translate(552.792969 0)"/>
     <use xlink:href="#DINAlternate-Bold-68" transform="translate(600.791016 0)"/>
     <use xlink:href="#DINAlternate-Bold-6f" transform="translate(654.501953 0)"/>
     <use xlink:href="#DINAlternate-Bold-74" transform="translate(704.501953 0)"/>
     <use xlink:href="#DINAlternate-Bold-73" transform="translate(732.285156 0)"/>
     <use xlink:href="#DINAlternate-Bold-3f" transform="translate(780.283203 0)"/>
    </g>
   </g>
  </g>
 </g>
</svg>
