<?xml version="1.0" encoding="utf-8" standalone="no"?>
<!DOCTYPE svg PUBLIC "-//W3C//DTD SVG 1.1//EN"
  "http://www.w3.org/Graphics/SVG/1.1/DTD/svg11.dtd">
<svg xmlns:xlink="http://www.w3.org/1999/xlink" width="566.64pt" height="566.611562pt" viewBox="0 0 566.64 566.611562" xmlns="http://www.w3.org/2000/svg" version="1.1">
 <metadata>
  <rdf:RDF xmlns:dc="http://purl.org/dc/elements/1.1/" xmlns:cc="http://creativecommons.org/ns#" xmlns:rdf="http://www.w3.org/1999/02/22-rdf-syntax-ns#">
   <cc:Work>
    <dc:type rdf:resource="http://purl.org/dc/dcmitype/StillImage"/>
    <dc:date>2025-09-19T18:04:05.237993</dc:date>
    <dc:format>image/svg+xml</dc:format>
    <dc:creator>
     <cc:Agent>
      <dc:title>Matplotlib v3.10.3, https://matplotlib.org/</dc:title>
     </cc:Agent>
    </dc:creator>
   </cc:Work>
  </rdf:RDF>
 </metadata>
 <defs>
  <style type="text/css">*{stroke-linejoin: round; stroke-linecap: butt}</style>
 </defs>
 <g id="figure_1">
  <g id="patch_1">
   <path d="M 0 566.611562 
L 566.64 566.611562 
L 566.64 0 
L 0 0 
z
" style="fill: #ffffff"/>
  </g>
  <g id="axes_1">
   <g id="matplotlib.axis_1"/>
   <g id="matplotlib.axis_2"/>
   <g id="patch_2">
    <path d="M 283.319984 58.755493 
C 256.149062 58.755493 229.175676 63.384733 203.559558 72.444175 
C 177.943441 81.503617 154.057055 94.861537 132.927408 111.943603 
C 111.797761 129.025669 93.732081 149.583505 79.507111 172.733219 
C 65.282142 195.882932 55.104716 221.28792 49.412417 247.855884 
C 43.720118 274.423848 42.595713 301.768484 46.087547 328.714097 
C 49.57938 355.659711 57.636681 381.814506 69.91302 406.053947 
C 82.189359 430.293387 98.506237 452.265026 118.162102 471.024182 
C 137.817967 489.783339 160.527019 505.057251 185.312871 516.18921 
C 210.098723 527.321169 236.600984 534.149314 263.680178 536.380065 
C 290.759371 538.610817 318.02176 536.211739 344.295185 529.285982 
C 370.568611 522.360225 395.471051 511.008491 417.931815 495.718852 
C 440.392579 480.429212 460.085082 461.423983 476.162636 439.520303 
C 492.24019 417.616622 504.469025 393.132974 512.323355 367.122044 
C 520.177685 341.111114 523.543308 313.951106 522.275516 286.809779 
C 521.007724 259.668451 515.124952 232.940443 504.880132 207.774938 
C 494.635312 182.609433 480.177406 159.372342 462.128038 139.062756 
L 319.081594 266.189808 
C 322.691468 270.251726 325.583049 274.899144 327.632013 279.932245 
C 329.680977 284.965346 330.857532 290.310947 331.11109 295.739213 
C 331.364648 301.167478 330.691524 306.59948 329.120658 311.801666 
C 327.549792 317.003852 325.104025 321.900581 321.888514 326.281318 
C 318.673003 330.662054 314.734503 334.4631 310.24235 337.521027 
C 305.750197 340.578955 300.769709 342.849302 295.515024 344.234454 
C 290.260339 345.619605 284.807861 346.09942 279.392022 345.65327 
C 273.976184 345.20712 268.675731 343.841491 263.718561 341.615099 
C 258.761391 339.388707 254.21958 336.333925 250.288407 332.582094 
C 246.357234 328.830262 243.093859 324.435935 240.638591 319.588046 
C 238.183323 314.740158 236.571863 309.509199 235.873496 304.120077 
C 235.175129 298.730954 235.40001 293.262027 236.53847 287.948434 
C 237.67693 282.634841 239.712415 277.553843 242.557409 272.923901 
C 245.402403 268.293958 249.015539 264.182391 253.241468 260.765978 
C 257.467398 257.349564 262.244675 254.677981 267.367898 252.866092 
C 272.491122 251.054204 277.885799 250.128356 283.319984 250.128356 
z
" style="fill: #1b365d; stroke: #ffffff; stroke-width: 2; stroke-linejoin: miter"/>
   </g>
   <g id="patch_3">
    <path d="M 462.128071 139.062806 
C 444.457592 119.179553 423.593733 102.382215 400.396745 89.363408 
C 377.19975 76.3446 351.992871 67.285732 325.815398 62.560288 
L 291.819067 250.889315 
C 297.054561 251.834403 302.095937 253.646177 306.735336 256.249939 
C 311.374733 258.8537 315.547505 262.213168 319.081601 266.189818 
z
" style="fill: #800020; stroke: #ffffff; stroke-width: 2; stroke-linejoin: miter"/>
   </g>
   <g id="patch_4">
    <path d="M 325.815398 62.560288 
C 318.807129 61.295184 311.745812 60.343664 304.652648 59.708581 
C 297.559484 59.073498 290.441555 58.755493 283.320017 58.755493 
L 283.31999 250.128356 
C 284.744298 250.128356 286.167884 250.191957 287.586516 250.318973 
C 289.005149 250.44599 290.417413 250.636294 291.819067 250.889315 
z
" style="fill: #2f4f4f; stroke: #ffffff; stroke-width: 2; stroke-linejoin: miter"/>
   </g>
   <g id="text_1">
    <!-- Cisgender -->
    <g style="fill: #262626" transform="translate(142.909789 518.723604) scale(0.1 -0.1)">
     <defs>
      <path id="DINAlternate-Bold-43" d="M 2822 1275 
Q 2534 653 1953 653 
Q 1709 653 1534 756 
Q 1356 844 1247 984 
Q 1113 1131 1069 1369 
Q 1019 1606 1019 2278 
Q 1019 2950 1069 3194 
Q 1113 3425 1247 3572 
Q 1356 3713 1534 3806 
Q 1709 3897 1953 3903 
Q 2284 3897 2516 3713 
Q 2738 3519 2822 3244 
L 3553 3244 
Q 3444 3816 3028 4203 
Q 2613 4588 1953 4594 
Q 1416 4588 1056 4338 
Q 691 4091 525 3775 
Q 422 3609 372 3341 
Q 325 3072 325 2278 
Q 325 1497 372 1222 
Q 397 1075 434 978 
Q 475 884 525 781 
Q 691 466 1056 225 
Q 1416 -25 1953 -38 
Q 2547 -38 2981 300 
Q 3403 641 3553 1275 
L 2822 1275 
z
" transform="scale(0.015625)"/>
      <path id="DINAlternate-Bold-69" d="M 441 0 
L 1094 0 
L 1094 3244 
L 441 3244 
L 441 0 
z
M 441 3903 
L 1094 3903 
L 1094 4556 
L 441 4556 
L 441 3903 
z
" transform="scale(0.015625)"/>
      <path id="DINAlternate-Bold-73" d="M 519 991 
L 63 544 
Q 697 -38 1491 -38 
Q 2075 -31 2450 231 
Q 2828 488 2834 959 
Q 2834 1363 2625 1625 
Q 2400 1894 1894 1931 
L 1356 1972 
Q 1119 1997 1025 2088 
Q 922 2169 928 2278 
Q 928 2450 1056 2559 
Q 1178 2669 1484 2669 
Q 1753 2669 1959 2591 
Q 2169 2503 2356 2369 
L 2356 2369 
L 2759 2841 
Q 2522 3047 2222 3169 
Q 2066 3225 1888 3256 
Q 1709 3284 1484 3284 
Q 966 3284 628 3034 
Q 281 2784 275 2284 
Q 281 1869 544 1638 
Q 800 1400 1209 1363 
L 1784 1313 
Q 1966 1306 2075 1234 
Q 2181 1166 2181 991 
Q 2181 794 2003 684 
Q 1825 575 1544 575 
Q 916 575 519 991 
L 519 991 
z
" transform="scale(0.015625)"/>
      <path id="DINAlternate-Bold-67" d="M 2247 341 
L 2247 6 
Q 2241 -325 2041 -513 
Q 1838 -697 1503 -697 
Q 1325 -691 1159 -600 
Q 997 -519 872 -403 
L 872 -403 
L 366 -806 
Q 831 -1338 1491 -1350 
Q 2066 -1350 2478 -997 
Q 2888 -653 2900 78 
L 2900 3244 
L 2247 3244 
L 2247 2900 
L 2247 2900 
Q 1894 3284 1409 3284 
Q 1094 3278 884 3163 
Q 666 3041 550 2888 
Q 422 2731 366 2503 
Q 306 2272 306 1619 
Q 306 978 366 750 
Q 422 519 550 359 
Q 666 219 884 97 
Q 1094 -31 1409 -38 
Q 1925 -25 2247 341 
L 2247 341 
z
M 959 1619 
Q 959 1997 984 2144 
Q 1006 2291 1088 2381 
Q 1153 2469 1288 2553 
Q 1416 2625 1606 2631 
Q 1797 2625 1925 2553 
Q 2053 2469 2119 2381 
Q 2200 2291 2228 2144 
Q 2247 1997 2247 1619 
Q 2247 1247 2228 1106 
Q 2200 959 2119 863 
Q 2053 775 1925 703 
Q 1797 616 1606 616 
Q 1416 616 1288 703 
Q 1153 775 1088 863 
Q 1006 959 984 1106 
Q 959 1247 959 1619 
L 959 1619 
z
" transform="scale(0.015625)"/>
      <path id="DINAlternate-Bold-65" d="M 2938 1375 
L 2938 1913 
Q 2931 2553 2541 2919 
Q 2156 3278 1600 3284 
Q 1369 3284 1131 3200 
Q 891 3116 697 2925 
Q 506 2738 384 2413 
Q 263 2094 263 1613 
Q 263 1113 403 800 
Q 531 475 738 294 
Q 844 206 966 147 
Q 1081 78 1203 38 
Q 1447 -38 1703 -38 
Q 2375 -44 2872 488 
L 2400 891 
L 2400 891 
Q 2088 575 1691 575 
Q 1350 575 1141 781 
Q 916 984 916 1375 
L 2938 1375 
z
M 916 1913 
Q 934 2291 1119 2484 
Q 1306 2669 1600 2669 
Q 1894 2669 2081 2484 
Q 2272 2291 2284 1913 
L 916 1913 
z
" transform="scale(0.015625)"/>
      <path id="DINAlternate-Bold-6e" d="M 422 0 
L 1075 0 
L 1075 1931 
Q 1075 2272 1259 2450 
Q 1441 2631 1722 2631 
Q 2003 2631 2181 2450 
Q 2363 2272 2363 1931 
L 2363 0 
L 3016 0 
L 3016 2156 
Q 3000 2713 2669 3000 
Q 2334 3284 1931 3284 
Q 1409 3284 1088 2900 
L 1075 2900 
L 1075 3244 
L 422 3244 
L 422 0 
z
" transform="scale(0.015625)"/>
      <path id="DINAlternate-Bold-64" d="M 2363 341 
L 2363 0 
L 3016 0 
L 3016 4556 
L 2363 4556 
L 2363 2900 
L 2363 2900 
Q 2181 3072 1984 3181 
Q 1772 3284 1522 3284 
Q 928 3269 653 2859 
Q 519 2706 475 2456 
Q 422 2209 422 1625 
Q 422 1050 475 800 
Q 519 538 653 384 
Q 800 197 1019 84 
Q 1228 -31 1522 -38 
Q 2041 -25 2363 341 
L 2363 341 
z
M 1722 2631 
Q 1953 2631 2088 2541 
Q 2222 2450 2272 2303 
Q 2334 2156 2356 1984 
Q 2363 1813 2363 1625 
Q 2363 1453 2356 1275 
Q 2334 1094 2272 947 
Q 2222 800 2088 709 
Q 1953 616 1722 616 
Q 1491 616 1369 703 
Q 1234 794 1172 934 
Q 1113 1081 1094 1266 
Q 1075 1441 1075 1625 
Q 1075 1819 1094 2003 
Q 1113 2175 1172 2322 
Q 1234 2469 1369 2553 
Q 1491 2631 1722 2631 
L 1722 2631 
z
" transform="scale(0.015625)"/>
      <path id="DINAlternate-Bold-72" d="M 422 0 
L 1075 0 
L 1075 1953 
Q 1081 2309 1281 2469 
Q 1459 2631 1709 2631 
Q 1931 2631 2138 2469 
L 2138 2469 
L 2613 3034 
Q 2322 3278 1931 3284 
Q 1409 3284 1088 2900 
L 1075 2900 
L 1075 3244 
L 422 3244 
L 422 0 
z
" transform="scale(0.015625)"/>
     </defs>
     <use xlink:href="#DINAlternate-Bold-43"/>
     <use xlink:href="#DINAlternate-Bold-69" transform="translate(55.615234 0)"/>
     <use xlink:href="#DINAlternate-Bold-73" transform="translate(79.589844 0)"/>
     <use xlink:href="#DINAlternate-Bold-67" transform="translate(127.587891 0)"/>
     <use xlink:href="#DINAlternate-Bold-65" transform="translate(179.492188 0)"/>
     <use xlink:href="#DINAlternate-Bold-6e" transform="translate(229.492188 0)"/>
     <use xlink:href="#DINAlternate-Bold-64" transform="translate(283.203125 0)"/>
     <use xlink:href="#DINAlternate-Bold-65" transform="translate(335.107422 0)"/>
     <use xlink:href="#DINAlternate-Bold-72" transform="translate(385.107422 0)"/>
    </g>
   </g>
   <g id="text_2">
    <!-- 86.6% -->
    <g style="fill: #ffffff" transform="translate(189.020224 485.990174) scale(0.1 -0.1)">
     <defs>
      <path id="DINAlternate-Bold-38" d="M 884 3291 
Q 891 3616 1088 3781 
Q 1281 3941 1534 3941 
Q 1797 3941 1991 3781 
Q 2181 3616 2188 3291 
Q 2181 2975 1991 2809 
Q 1797 2638 1534 2638 
Q 1281 2638 1088 2809 
Q 891 2975 884 3291 
L 884 3291 
z
M 147 1331 
Q 153 716 563 347 
Q 953 -31 1534 -38 
Q 2119 -31 2522 347 
Q 2919 716 2925 1331 
Q 2919 1991 2388 2356 
Q 2591 2534 2719 2766 
Q 2841 2981 2841 3278 
Q 2834 3847 2469 4219 
Q 2106 4588 1534 4594 
Q 972 4588 616 4219 
Q 238 3847 231 3278 
Q 231 2981 366 2766 
Q 481 2534 684 2356 
Q 153 1991 147 1331 
L 147 1331 
z
M 800 1338 
Q 806 1656 1025 1856 
Q 1234 2053 1534 2059 
Q 1844 2053 2053 1856 
Q 2266 1656 2272 1338 
Q 2266 1025 2053 825 
Q 1844 616 1534 616 
Q 1234 616 1025 825 
Q 806 1025 800 1338 
L 800 1338 
z
" transform="scale(0.015625)"/>
      <path id="DINAlternate-Bold-36" d="M 2375 4603 
Q 2378 4603 2345 4536 
Q 2313 4469 2256 4353 
Q 2200 4238 2125 4088 
Q 2050 3938 1967 3772 
Q 1884 3606 1798 3437 
Q 1713 3269 1633 3116 
Q 1553 2963 1487 2838 
Q 1422 2713 1378 2638 
Q 1469 2691 1583 2702 
Q 1697 2713 1847 2706 
Q 2063 2700 2223 2631 
Q 2384 2563 2500 2459 
Q 2616 2356 2692 2229 
Q 2769 2103 2812 1983 
Q 2856 1863 2873 1758 
Q 2891 1653 2891 1594 
Q 2891 1575 2891 1525 
Q 2891 1475 2891 1414 
Q 2891 1353 2889 1290 
Q 2888 1228 2884 1184 
Q 2881 1163 2864 1070 
Q 2847 978 2801 851 
Q 2756 725 2672 579 
Q 2588 434 2450 304 
Q 2313 175 2116 81 
Q 1919 -13 1647 -34 
Q 1363 -59 1144 3 
Q 925 66 765 181 
Q 606 297 500 448 
Q 394 600 333 759 
Q 272 919 251 1066 
Q 231 1213 244 1316 
Q 263 1469 284 1589 
Q 306 1709 336 1818 
Q 366 1928 403 2034 
Q 441 2141 491 2266 
Q 503 2297 559 2414 
Q 616 2531 698 2703 
Q 781 2875 884 3081 
Q 988 3288 1091 3500 
Q 1334 3994 1638 4603 
L 2375 4603 
z
M 2244 1269 
Q 2244 1388 2234 1531 
Q 2225 1675 2164 1804 
Q 2103 1934 1965 2028 
Q 1828 2122 1575 2141 
Q 1456 2150 1359 2115 
Q 1263 2081 1188 2022 
Q 1113 1963 1058 1886 
Q 1003 1809 967 1734 
Q 931 1659 915 1595 
Q 900 1531 900 1497 
Q 900 1419 903 1323 
Q 906 1228 923 1133 
Q 941 1038 981 948 
Q 1022 859 1097 790 
Q 1172 722 1289 678 
Q 1406 634 1581 634 
Q 1722 631 1826 670 
Q 1931 709 2004 770 
Q 2078 831 2125 906 
Q 2172 981 2198 1053 
Q 2225 1125 2234 1183 
Q 2244 1241 2244 1269 
z
" transform="scale(0.015625)"/>
      <path id="DINAlternate-Bold-2e" d="M 441 0 
L 1094 0 
L 1094 653 
L 441 653 
L 441 0 
z
" transform="scale(0.015625)"/>
      <path id="DINAlternate-Bold-25" d="M 2156 984 
Q 2156 1300 2394 1300 
Q 2631 1300 2631 984 
L 2631 641 
Q 2631 325 2394 325 
Q 2156 325 2156 641 
L 2156 984 
z
M 1791 594 
Q 1797 263 1984 116 
Q 2156 -38 2394 -38 
Q 2638 -38 2816 116 
Q 2906 191 2950 313 
Q 2994 428 2994 594 
L 2994 1031 
Q 2988 1363 2816 1516 
Q 2638 1663 2394 1663 
Q 2156 1663 1984 1516 
Q 1797 1363 1791 1031 
L 1791 594 
z
M 325 3525 
Q 331 3194 519 3047 
Q 691 2894 928 2894 
Q 1172 2894 1350 3047 
Q 1441 3122 1484 3244 
Q 1528 3359 1528 3525 
L 1528 3963 
Q 1522 4294 1350 4447 
Q 1172 4594 928 4594 
Q 691 4594 519 4447 
Q 331 4294 325 3963 
L 325 3525 
z
M 691 3916 
Q 691 4231 928 4231 
Q 1166 4231 1166 3916 
L 1166 3572 
Q 1166 3256 928 3256 
Q 691 3256 691 3572 
L 691 3916 
z
M 372 0 
L 794 0 
L 2950 4556 
L 2528 4556 
L 372 0 
z
" transform="scale(0.015625)"/>
     </defs>
     <use xlink:href="#DINAlternate-Bold-38"/>
     <use xlink:href="#DINAlternate-Bold-36" transform="translate(47.998047 0)"/>
     <use xlink:href="#DINAlternate-Bold-2e" transform="translate(95.996094 0)"/>
     <use xlink:href="#DINAlternate-Bold-36" transform="translate(119.970703 0)"/>
     <use xlink:href="#DINAlternate-Bold-25" transform="translate(167.96875 0)"/>
    </g>
   </g>
   <g id="text_3">
    <!-- SKIP -->
    <g style="fill: #262626" transform="translate(400.396651 91.896954) scale(0.1 -0.1)">
     <defs>
      <path id="DINAlternate-Bold-53" d="M 538 1106 
L 84 588 
Q 813 -38 1825 -38 
Q 3391 -19 3425 1288 
Q 3425 1772 3122 2138 
Q 2816 2509 2175 2597 
Q 1850 2638 1663 2669 
Q 1325 2731 1172 2894 
Q 1019 3053 1019 3250 
Q 1025 3578 1247 3744 
Q 1459 3903 1778 3903 
Q 2394 3891 2906 3553 
L 2906 3553 
L 3291 4122 
Q 2663 4575 1813 4594 
Q 1106 4588 722 4225 
Q 325 3859 325 3263 
Q 325 2766 641 2419 
Q 947 2081 1534 1984 
Q 1863 1938 2138 1900 
Q 2738 1797 2731 1288 
Q 2719 666 1831 653 
Q 1081 659 538 1106 
L 538 1106 
z
" transform="scale(0.015625)"/>
      <path id="DINAlternate-Bold-4b" d="M 481 0 
L 1172 0 
L 1172 1388 
L 1972 2228 
L 1972 2228 
L 3213 0 
L 4031 0 
L 2419 2759 
L 3878 4556 
L 3059 4556 
L 1184 2209 
L 1172 2209 
L 1172 4556 
L 481 4556 
L 481 0 
z
" transform="scale(0.015625)"/>
      <path id="DINAlternate-Bold-49" d="M 481 0 
L 1172 0 
L 1172 4556 
L 481 4556 
L 481 0 
z
" transform="scale(0.015625)"/>
      <path id="DINAlternate-Bold-50" d="M 1172 3903 
L 2169 3903 
Q 2450 3909 2663 3775 
Q 2803 3694 2881 3553 
Q 2956 3397 2956 3169 
Q 2956 2894 2772 2669 
Q 2578 2438 2194 2431 
L 1172 2431 
L 1172 3903 
z
M 481 0 
L 1172 0 
L 1172 1778 
L 2222 1778 
Q 2925 1791 3291 2228 
Q 3647 2644 3647 3150 
Q 3647 3525 3506 3800 
Q 3372 4084 3156 4238 
Q 2900 4441 2650 4506 
Q 2400 4556 2131 4556 
L 481 4556 
L 481 0 
z
" transform="scale(0.015625)"/>
     </defs>
     <use xlink:href="#DINAlternate-Bold-53"/>
     <use xlink:href="#DINAlternate-Bold-4b" transform="translate(57.373047 0)"/>
     <use xlink:href="#DINAlternate-Bold-49" transform="translate(120.361328 0)"/>
     <use xlink:href="#DINAlternate-Bold-50" transform="translate(146.142578 0)"/>
    </g>
   </g>
   <g id="text_4">
    <!-- 10.6% -->
    <g style="fill: #ffffff" transform="translate(371.841401 123.188185) scale(0.1 -0.1)">
     <defs>
      <path id="DINAlternate-Bold-31" d="M 1241 3866 
L 1241 0 
L 1894 0 
L 1894 4556 
L 1241 4556 
L 594 4084 
L 594 3391 
L 594 3391 
L 1241 3866 
L 1241 3866 
z
" transform="scale(0.015625)"/>
      <path id="DINAlternate-Bold-30" d="M 2175 1313 
Q 2156 622 1534 616 
Q 909 622 897 1313 
L 897 3244 
Q 909 3928 1534 3941 
Q 2156 3928 2175 3244 
L 2175 1313 
z
M 244 1275 
Q 250 647 647 306 
Q 1019 -31 1534 -38 
Q 2066 -31 2438 306 
Q 2816 647 2828 1275 
L 2828 3284 
Q 2816 3916 2438 4256 
Q 2066 4594 1534 4594 
Q 1019 4594 647 4256 
Q 250 3916 244 3284 
L 244 1275 
z
" transform="scale(0.015625)"/>
     </defs>
     <use xlink:href="#DINAlternate-Bold-31"/>
     <use xlink:href="#DINAlternate-Bold-30" transform="translate(47.998047 0)"/>
     <use xlink:href="#DINAlternate-Bold-2e" transform="translate(95.996094 0)"/>
     <use xlink:href="#DINAlternate-Bold-36" transform="translate(119.970703 0)"/>
     <use xlink:href="#DINAlternate-Bold-25" transform="translate(167.96875 0)"/>
    </g>
   </g>
   <g id="text_5">
    <!-- Transgender -->
    <g style="fill: #262626" transform="translate(304.652533 62.213265) scale(0.1 -0.1)">
     <defs>
      <path id="DINAlternate-Bold-54" d="M 1253 0 
L 1947 0 
L 1947 3941 
L 3194 3941 
L 3194 4556 
L 6 4556 
L 6 3941 
L 1253 3941 
L 1253 0 
z
" transform="scale(0.015625)"/>
      <path id="DINAlternate-Bold-61" d="M 2125 0 
L 2778 0 
L 2778 2216 
Q 2772 2809 2406 3053 
Q 2041 3291 1428 3284 
Q 703 3297 331 2809 
L 844 2419 
L 844 2419 
Q 928 2559 1075 2619 
Q 1216 2669 1459 2669 
Q 2131 2681 2125 2253 
L 2125 1913 
L 1222 1913 
Q 703 1906 434 1631 
Q 166 1363 166 953 
Q 166 525 475 250 
Q 769 -31 1313 -38 
Q 1644 -38 1831 44 
Q 2022 122 2113 288 
L 2125 288 
L 2125 0 
z
M 2125 1141 
Q 2125 775 1972 672 
Q 1803 569 1394 575 
Q 1069 575 928 703 
Q 781 819 781 984 
Q 775 1363 1344 1375 
L 2125 1375 
L 2125 1141 
z
" transform="scale(0.015625)"/>
     </defs>
     <use xlink:href="#DINAlternate-Bold-54"/>
     <use xlink:href="#DINAlternate-Bold-72" transform="translate(40.875 0)"/>
     <use xlink:href="#DINAlternate-Bold-61" transform="translate(78.041016 0)"/>
     <use xlink:href="#DINAlternate-Bold-6e" transform="translate(128.041016 0)"/>
     <use xlink:href="#DINAlternate-Bold-73" transform="translate(181.751953 0)"/>
     <use xlink:href="#DINAlternate-Bold-67" transform="translate(229.75 0)"/>
     <use xlink:href="#DINAlternate-Bold-65" transform="translate(281.654297 0)"/>
     <use xlink:href="#DINAlternate-Bold-6e" transform="translate(331.654297 0)"/>
     <use xlink:href="#DINAlternate-Bold-64" transform="translate(385.365234 0)"/>
     <use xlink:href="#DINAlternate-Bold-65" transform="translate(437.269531 0)"/>
     <use xlink:href="#DINAlternate-Bold-72" transform="translate(487.269531 0)"/>
    </g>
   </g>
   <g id="text_6">
    <!-- 2.8% -->
    <g style="fill: #ffffff" transform="translate(292.8589 97.98162) scale(0.1 -0.1)">
     <defs>
      <path id="DINAlternate-Bold-32" d="M 206 0 
L 2803 0 
L 2803 653 
L 1063 653 
L 2528 2491 
Q 2803 2841 2803 3291 
Q 2797 3853 2425 4219 
Q 2059 4588 1472 4594 
Q 947 4588 588 4225 
Q 231 3853 206 3284 
L 856 3284 
Q 891 3597 1075 3769 
Q 1253 3941 1522 3941 
Q 1825 3934 1991 3744 
Q 2150 3553 2150 3297 
Q 2150 3200 2125 3091 
Q 2088 2975 1984 2841 
L 206 616 
L 206 0 
z
" transform="scale(0.015625)"/>
     </defs>
     <use xlink:href="#DINAlternate-Bold-32"/>
     <use xlink:href="#DINAlternate-Bold-2e" transform="translate(47.998047 0)"/>
     <use xlink:href="#DINAlternate-Bold-38" transform="translate(71.972656 0)"/>
     <use xlink:href="#DINAlternate-Bold-25" transform="translate(119.970703 0)"/>
    </g>
   </g>
   <g id="text_7">
    <g id="patch_5">
     <path d="M 481.702388 551.653963 
L 548.3952 551.653963 
Q 551.0952 551.653963 551.0952 548.953962 
L 551.0952 540.700681 
Q 551.0952 538.000681 548.3952 538.000681 
L 481.702388 538.000681 
Q 479.002388 538.000681 479.002388 540.700681 
L 479.002388 548.953962 
Q 479.002388 551.653963 481.702388 551.653963 
z
" style="fill: #d3d3d3; opacity: 0.8; stroke: #808080; stroke-linejoin: miter"/>
    </g>
    <!-- Non-null: 387/388 -->
    <g style="fill: #808080" transform="translate(481.702388 547.107556) scale(0.09 -0.09)">
     <defs>
      <path id="DINAlternate-Bold-4e" d="M 481 0 
L 1172 0 
L 1172 3238 
L 1184 3238 
L 3244 0 
L 3897 0 
L 3897 4556 
L 3206 4556 
L 3206 1319 
L 3194 1319 
L 1131 4556 
L 481 4556 
L 481 0 
z
" transform="scale(0.015625)"/>
      <path id="DINAlternate-Bold-6f" d="M 263 1625 
Q 263 1113 347 844 
Q 434 575 616 378 
Q 750 225 991 103 
Q 1228 -31 1600 -38 
Q 1984 -31 2222 103 
Q 2350 159 2431 238 
Q 2522 306 2584 378 
Q 2778 575 2859 844 
Q 2938 1113 2938 1625 
Q 2938 2138 2859 2413 
Q 2778 2681 2584 2866 
Q 2456 3028 2222 3156 
Q 1984 3278 1600 3284 
Q 1228 3278 991 3156 
Q 750 3028 616 2866 
Q 434 2681 347 2413 
Q 263 2138 263 1625 
L 263 1625 
z
M 2284 1619 
Q 2284 1288 2253 1131 
Q 2222 972 2125 850 
Q 2053 756 1913 684 
Q 1778 616 1600 616 
Q 1434 616 1294 684 
Q 1159 756 1075 850 
Q 991 972 953 1131 
Q 916 1288 916 1625 
Q 916 1966 953 2125 
Q 991 2278 1075 2394 
Q 1159 2503 1294 2566 
Q 1434 2631 1600 2631 
Q 1778 2631 1913 2566 
Q 2053 2503 2125 2394 
Q 2222 2278 2253 2125 
Q 2284 1966 2284 1619 
L 2284 1619 
z
" transform="scale(0.015625)"/>
      <path id="DINAlternate-Bold-2d" d="M 341 1447 
L 2266 1447 
L 2266 2100 
L 341 2100 
L 341 1447 
z
" transform="scale(0.015625)"/>
      <path id="DINAlternate-Bold-75" d="M 422 1088 
Q 428 538 781 256 
Q 1106 -31 1509 -38 
Q 2028 -38 2350 347 
L 2363 347 
L 2363 0 
L 3016 0 
L 3016 3244 
L 2363 3244 
L 2363 1313 
Q 2363 984 2181 800 
Q 2003 616 1722 616 
Q 1441 616 1259 800 
Q 1075 984 1075 1313 
L 1075 3244 
L 422 3244 
L 422 1088 
z
" transform="scale(0.015625)"/>
      <path id="DINAlternate-Bold-6c" d="M 422 788 
Q 422 359 666 178 
Q 897 0 1253 0 
L 1544 0 
L 1544 616 
L 1319 616 
Q 1075 616 1075 838 
L 1075 4556 
L 422 4556 
L 422 788 
z
" transform="scale(0.015625)"/>
      <path id="DINAlternate-Bold-3a" d="M 441 1453 
L 1094 1453 
L 1094 2106 
L 441 2106 
L 441 1453 
z
M 441 0 
L 1094 0 
L 1094 653 
L 441 653 
L 441 0 
z
" transform="scale(0.015625)"/>
      <path id="DINAlternate-Bold-20" transform="scale(0.015625)"/>
      <path id="DINAlternate-Bold-33" d="M 1125 2059 
L 1400 2059 
Q 1703 2059 1900 1875 
Q 2100 1684 2106 1338 
Q 2100 997 1900 813 
Q 1703 616 1416 616 
Q 1147 616 984 763 
Q 825 903 738 1131 
L 84 1131 
Q 191 563 550 263 
Q 909 -38 1375 -38 
Q 1978 -31 2363 347 
Q 2753 716 2759 1356 
Q 2759 1644 2638 1906 
Q 2509 2169 2222 2356 
Q 2503 2547 2613 2791 
Q 2706 3034 2706 3297 
Q 2700 3816 2350 4197 
Q 1984 4588 1363 4594 
Q 872 4588 519 4244 
Q 159 3897 109 3391 
L 763 3391 
Q 825 3672 1006 3806 
Q 1178 3941 1388 3941 
Q 1678 3934 1863 3756 
Q 2047 3572 2053 3284 
Q 2053 3000 1869 2822 
Q 1684 2638 1350 2638 
L 1125 2638 
L 1125 2059 
z
" transform="scale(0.015625)"/>
      <path id="DINAlternate-Bold-37" d="M 325 3244 
L 978 3244 
L 978 3903 
L 2188 3903 
L 647 0 
L 1375 0 
L 2919 3903 
L 2919 4556 
L 325 4556 
L 325 3244 
z
" transform="scale(0.015625)"/>
      <path id="DINAlternate-Bold-2f" d="M 50 -38 
L 550 -38 
L 2081 4594 
L 1581 4594 
L 50 -38 
z
" transform="scale(0.015625)"/>
     </defs>
     <use xlink:href="#DINAlternate-Bold-4e"/>
     <use xlink:href="#DINAlternate-Bold-6f" transform="translate(68.408203 0)"/>
     <use xlink:href="#DINAlternate-Bold-6e" transform="translate(118.408203 0)"/>
     <use xlink:href="#DINAlternate-Bold-2d" transform="translate(172.119141 0)"/>
     <use xlink:href="#DINAlternate-Bold-6e" transform="translate(212.792969 0)"/>
     <use xlink:href="#DINAlternate-Bold-75" transform="translate(266.503906 0)"/>
     <use xlink:href="#DINAlternate-Bold-6c" transform="translate(320.214844 0)"/>
     <use xlink:href="#DINAlternate-Bold-6c" transform="translate(345.996094 0)"/>
     <use xlink:href="#DINAlternate-Bold-3a" transform="translate(371.777344 0)"/>
     <use xlink:href="#DINAlternate-Bold-20" transform="translate(395.751953 0)"/>
     <use xlink:href="#DINAlternate-Bold-33" transform="translate(419.726562 0)"/>
     <use xlink:href="#DINAlternate-Bold-38" transform="translate(467.724609 0)"/>
     <use xlink:href="#DINAlternate-Bold-37" transform="translate(515.722656 0)"/>
     <use xlink:href="#DINAlternate-Bold-2f" transform="translate(563.720703 0)"/>
     <use xlink:href="#DINAlternate-Bold-33" transform="translate(597.021484 0)"/>
     <use xlink:href="#DINAlternate-Bold-38" transform="translate(645.019531 0)"/>
     <use xlink:href="#DINAlternate-Bold-38" transform="translate(693.017578 0)"/>
    </g>
   </g>
   <g id="text_8">
    <!-- What is your gender expression? -->
    <g style="fill: #262626" transform="translate(194.223281 16.531562) scale(0.13 -0.13)">
     <defs>
      <path id="DINAlternate-Bold-57" d="M 1209 0 
L 1784 0 
L 2656 3284 
L 2669 3284 
L 3538 0 
L 4116 0 
L 5253 4556 
L 4525 4556 
L 3806 1319 
L 3794 1319 
L 2913 4556 
L 2413 4556 
L 1528 1319 
L 1516 1319 
L 800 4556 
L 72 4556 
L 1209 0 
z
" transform="scale(0.015625)"/>
      <path id="DINAlternate-Bold-68" d="M 422 0 
L 1075 0 
L 1075 1931 
Q 1075 2272 1259 2450 
Q 1441 2631 1722 2631 
Q 2003 2631 2181 2450 
Q 2363 2272 2363 1931 
L 2363 0 
L 3016 0 
L 3016 2156 
Q 3000 2713 2669 3000 
Q 2334 3284 1931 3284 
Q 1409 3284 1088 2900 
L 1075 2900 
L 1075 4556 
L 422 4556 
L 422 0 
z
" transform="scale(0.015625)"/>
      <path id="DINAlternate-Bold-74" d="M 459 3244 
L 134 3244 
L 134 2747 
L 459 2747 
L 459 800 
Q 459 416 684 213 
Q 903 0 1247 0 
L 1588 0 
L 1588 616 
L 1344 616 
Q 1106 609 1113 856 
L 1113 2747 
L 1588 2747 
L 1588 3244 
L 1113 3244 
L 1113 4231 
L 459 4231 
L 459 3244 
z
" transform="scale(0.015625)"/>
      <path id="DINAlternate-Bold-79" d="M 1119 128 
L 941 -416 
Q 897 -556 788 -628 
Q 678 -697 550 -697 
L 359 -697 
L 359 -1313 
L 575 -1313 
Q 878 -1313 1119 -1178 
Q 1356 -1038 1491 -672 
L 2888 3244 
L 2194 3244 
L 1428 972 
L 1416 972 
L 647 3244 
L -44 3244 
L 1119 128 
z
" transform="scale(0.015625)"/>
      <path id="DINAlternate-Bold-78" d="M 1172 1656 
L 63 0 
L 844 0 
L 1534 1081 
L 1534 1081 
L 2228 0 
L 3006 0 
L 1900 1656 
L 2963 3244 
L 2181 3244 
L 1534 2194 
L 1534 2194 
L 891 3244 
L 109 3244 
L 1172 1656 
z
" transform="scale(0.015625)"/>
      <path id="DINAlternate-Bold-70" d="M 422 -1313 
L 1075 -1313 
L 1075 347 
L 1075 347 
Q 1253 172 1466 72 
Q 1663 -38 1913 -38 
Q 2216 -31 2431 84 
Q 2650 197 2784 384 
Q 2919 544 2969 794 
Q 3016 1044 3016 1619 
Q 3016 2209 2969 2456 
Q 2919 2706 2784 2859 
Q 2509 3269 1913 3284 
Q 1400 3269 1075 2906 
L 1075 2906 
L 1075 3244 
L 422 3244 
L 422 -1313 
z
M 1716 616 
Q 1497 616 1369 709 
Q 1234 800 1172 947 
Q 1113 1094 1094 1275 
Q 1075 1447 1075 1619 
Q 1075 1803 1094 1984 
Q 1113 2156 1172 2303 
Q 1234 2450 1369 2541 
Q 1497 2631 1716 2631 
Q 1947 2631 2081 2553 
Q 2216 2469 2272 2322 
Q 2334 2181 2356 1997 
Q 2363 1813 2363 1619 
Q 2363 1434 2356 1259 
Q 2334 1081 2272 934 
Q 2216 794 2081 703 
Q 1947 616 1716 616 
L 1716 616 
z
" transform="scale(0.015625)"/>
      <path id="DINAlternate-Bold-3f" d="M 1081 1125 
L 1734 1125 
L 1734 1491 
Q 1728 1728 1844 1894 
L 2425 2694 
Q 2625 2963 2631 3366 
Q 2625 3934 2253 4269 
Q 1894 4588 1394 4594 
Q 903 4588 550 4244 
Q 191 3903 184 3372 
L 184 3244 
L 838 3244 
Q 838 3628 1019 3788 
Q 1178 3941 1428 3941 
Q 1631 3941 1803 3794 
Q 1972 3641 1978 3372 
Q 1978 3175 1819 2950 
L 1247 2156 
Q 1147 2016 1113 1875 
Q 1081 1728 1081 1544 
L 1081 1125 
z
M 1081 0 
L 1734 0 
L 1734 653 
L 1081 653 
L 1081 0 
z
" transform="scale(0.015625)"/>
     </defs>
     <use xlink:href="#DINAlternate-Bold-57"/>
     <use xlink:href="#DINAlternate-Bold-68" transform="translate(81.453125 0)"/>
     <use xlink:href="#DINAlternate-Bold-61" transform="translate(135.164062 0)"/>
     <use xlink:href="#DINAlternate-Bold-74" transform="translate(185.164062 0)"/>
     <use xlink:href="#DINAlternate-Bold-20" transform="translate(212.947266 0)"/>
     <use xlink:href="#DINAlternate-Bold-69" transform="translate(236.921875 0)"/>
     <use xlink:href="#DINAlternate-Bold-73" transform="translate(260.896484 0)"/>
     <use xlink:href="#DINAlternate-Bold-20" transform="translate(308.894531 0)"/>
     <use xlink:href="#DINAlternate-Bold-79" transform="translate(332.869141 0)"/>
     <use xlink:href="#DINAlternate-Bold-6f" transform="translate(376.628906 0)"/>
     <use xlink:href="#DINAlternate-Bold-75" transform="translate(426.628906 0)"/>
     <use xlink:href="#DINAlternate-Bold-72" transform="translate(480.339844 0)"/>
     <use xlink:href="#DINAlternate-Bold-20" transform="translate(519.255859 0)"/>
     <use xlink:href="#DINAlternate-Bold-67" transform="translate(543.230469 0)"/>
     <use xlink:href="#DINAlternate-Bold-65" transform="translate(595.134766 0)"/>
     <use xlink:href="#DINAlternate-Bold-6e" transform="translate(645.134766 0)"/>
     <use xlink:href="#DINAlternate-Bold-64" transform="translate(698.845703 0)"/>
     <use xlink:href="#DINAlternate-Bold-65" transform="translate(750.75 0)"/>
     <use xlink:href="#DINAlternate-Bold-72" transform="translate(800.75 0)"/>
     <use xlink:href="#DINAlternate-Bold-20" transform="translate(839.666016 0)"/>
     <use xlink:href="#DINAlternate-Bold-65" transform="translate(863.640625 0)"/>
     <use xlink:href="#DINAlternate-Bold-78" transform="translate(913.640625 0)"/>
     <use xlink:href="#DINAlternate-Bold-70" transform="translate(961.638672 0)"/>
     <use xlink:href="#DINAlternate-Bold-72" transform="translate(1013.542969 0)"/>
     <use xlink:href="#DINAlternate-Bold-65" transform="translate(1050.708984 0)"/>
     <use xlink:href="#DINAlternate-Bold-73" transform="translate(1100.708984 0)"/>
     <use xlink:href="#DINAlternate-Bold-73" transform="translate(1148.707031 0)"/>
     <use xlink:href="#DINAlternate-Bold-69" transform="translate(1196.705078 0)"/>
     <use xlink:href="#DINAlternate-Bold-6f" transform="translate(1220.679688 0)"/>
     <use xlink:href="#DINAlternate-Bold-6e" transform="translate(1270.679688 0)"/>
     <use xlink:href="#DINAlternate-Bold-3f" transform="translate(1324.390625 0)"/>
    </g>
   </g>
  </g>
 </g>
</svg>
